{
.appVersion = "1286";
copyright = "Ariel Martín Pérez";
customParameters = (
{
name = license;
value = "SIL Open Font License v1.1";
},
{
name = trademark;
value = "Ariel Martín Pérez - www.arielgraphisme.com";
},
{
name = openTypeNameLicenseURL;
value = "http://scripts.sil.org/OFL";
}
);
date = "2020-03-10 19:06:58 +0000";
designer = "Ariel Martín Pérez";
designerURL = "http://arielgraphisme.com/";
familyName = Kobata;
featurePrefixes = (
{
automatic = 1;
code = "languagesystem DFLT dflt;\012\012languagesystem latn dflt;\012languagesystem latn AZE;\012languagesystem latn CRT;\012languagesystem latn KAZ;\012languagesystem latn TAT;\012languagesystem latn TRK;\012languagesystem latn ROM;\012languagesystem latn MOL;\012languagesystem latn NLD;\012languagesystem latn CAT;\012";
name = Languagesystems;
}
);
features = (
{
automatic = 1;
code = "feature locl;\012";
name = aalt;
},
{
automatic = 1;
code = "lookup ccmp_Other_1 {\012	@CombiningTopAccents = [acutecomb brevecomb caroncomb circumflexcomb commaturnedabovecomb dieresiscomb dotaccentcomb gravecomb hungarumlautcomb macroncomb ringcomb tildecomb];\012	@CombiningNonTopAccents = [cedillacomb ogonekcomb];\012	sub [i]' @CombiningTopAccents by [idotless];\012	sub [i]' @CombiningNonTopAccents @CombiningTopAccents by [idotless];\012} ccmp_Other_1;\012";
name = ccmp;
},
{
automatic = 1;

glyphs = (
{
glyphname = A;
lastChange = "2020-03-08 17:14:59 +0000";
layers = (
{
anchors = (
{
name = bottom;
position = "{250, 0}";
},
{
name = ogonek;
position = "{450, 0}";
},
{
name = top;
position = "{250, 800}";
}
);
layerId = "83004642-28A7-499C-A4A0-A456D2DB2D8A";
paths = (
{
closed = 1;
nodes = (
"450 400 LINE",
"450 700 LINE",
"350 700 LINE",
"350 400 LINE"
);
},
{
closed = 1;
nodes = (
"150 0 LINE",
"150 300 LINE",
"50 300 LINE",
"50 0 LINE"
);
},
{
closed = 1;
nodes = (
"450 0 LINE",
"450 300 LINE",
"350 300 LINE",
"350 0 LINE"
);
},
{
closed = 1;
nodes = (
"350 300 LINE",
"350 400 LINE",
"150 400 LINE",
"150 300 LINE"
);
},
{
closed = 1;
nodes = (
"150 400 LINE",
"150 700 LINE",
"50 700 LINE",
"50 400 LINE"
);
},
{
closed = 1;
nodes = (
"350 700 LINE",
"350 800 LINE",
"150 800 LINE",
"150 700 LINE"
);
}
);
width = 500;
},
{
anchors = (
{
name = bottom;
position = "{300, 0}";
},
{
name = ogonek;
position = "{550, 0}";
},
{
name = top;
position = "{300, 800}";
}
);
layerId = "99106478-E82A-45B6-ABB4-B34A357236DB";
paths = (
{
closed = 1;
nodes = (
"550 400 LINE",
"550 650 LINE",
"400 650 LINE",
"400 400 LINE"
);
},
{
closed = 1;
nodes = (
"200 0 LINE",
"200 250 LINE",
"50 250 LINE",
"50 0 LINE"
);
},
{
closed = 1;
nodes = (
"550 0 LINE",
"550 250 LINE",
"400 250 LINE",
"400 0 LINE"
);
},
{
closed = 1;
nodes = (
"400 250 LINE",
"400 400 LINE",
"200 400 LINE",
"200 250 LINE"
);
},
{
closed = 1;
nodes = (
"200 400 LINE",
"200 650 LINE",
"50 650 LINE",
"50 400 LINE"
);
},
{
closed = 1;
nodes = (
"400 650 LINE",
"400 800 LINE",
"200 800 LINE",
"200 650 LINE"
);
}
);
width = 600;
}
);
leftKerningGroup = A;
rightKerningGroup = A;
unicode = 0041;
},
{
glyphname = Aogonek;
lastChange = "2020-03-03 14:34:43 +0000";
layers = (
{
anchors = (
{
name = bottom;
position = "{250, 0}";
},
{
name = ogonek;
position = "{450, 0}";
},
{
name = top;
position = "{250, 800}";
}
);
components = (
{
alignment = -1;
name = A;
}
);
layerId = "83004642-28A7-499C-A4A0-A456D2DB2D8A";
paths = (
{
closed = 1;
nodes = (
"450 -200 LINE",
"450 -100 LINE",
"350 -100 LINE",
"350 -200 LINE"
);
},
{
closed = 1;
nodes = (
"350 -100 LINE",
"350 0 LINE",
"250 0 LINE",
"250 -100 LINE"
);
}
);
width = 550;
},
{
anchors = (
{
name = bottom;
position = "{300, 0}";
},
{
name = ogonek;
position = "{550, 0}";
},
{
name = top;
position = "{300, 800}";
}
);
components = (
{
alignment = -1;
name = A;
}
);
layerId = "99106478-E82A-45B6-ABB4-B34A357236DB";
paths = (
{
closed = 1;
nodes = (
"550 -200 LINE",
"550 -100 LINE",
"400 -100 LINE",
"400 -200 LINE"
);
},
{
closed = 1;
nodes = (
"400 -100 LINE",
"400 0 LINE",
"300 0 LINE",
"300 -100 LINE"
);
}
);
width = 600;
}
);
leftKerningGroup = A;
unicode = 0104;
},
{
glyphname = AE;
lastChange = "2020-03-10 13:05:45 +0000";
layers = (
{
anchors = (
{
name = bottom;
position = "{350, 0}";
},
{
name = top;
position = "{350, 800}";
}
);
layerId = "83004642-28A7-499C-A4A0-A456D2DB2D8A";
paths = (
{
closed = 1;
nodes = (
"450 400 LINE",
"450 700 LINE",
"350 700 LINE",
"350 400 LINE"
);
},
{
closed = 1;
nodes = (
"150 0 LINE",
"150 300 LINE",
"50 300 LINE",
"50 0 LINE"
);
},
{
closed = 1;
nodes = (
"450 100 LINE",
"450 300 LINE",
"350 300 LINE",
"350 100 LINE"
);
},
{
closed = 1;
nodes = (
"350 300 LINE",
"350 400 LINE",
"150 400 LINE",
"150 300 LINE"
);
},
{
closed = 1;
nodes = (
"700 0 LINE",
"700 100 LINE",
"450 100 LINE",
"450 0 LINE"
);
},
{
closed = 1;
nodes = (
"150 400 LINE",
"150 700 LINE",
"50 700 LINE",
"50 400 LINE"
);
},
{
closed = 1;
nodes = (
"650 300 LINE",
"650 400 LINE",
"450 400 LINE",
"450 300 LINE"
);
},
{
closed = 1;
nodes = (
"350 700 LINE",
"350 800 LINE",
"150 800 LINE",
"150 700 LINE"
);
},
{
closed = 1;
nodes = (
"700 700 LINE",
"700 800 LINE",
"450 800 LINE",
"450 700 LINE"
);
}
);
width = 750;
},
{
anchors = (
{
name = bottom;
position = "{475, 0}";
},
{
name = top;
position = "{475, 800}";
}
);
layerId = "99106478-E82A-45B6-ABB4-B34A357236DB";
paths = (
{
closed = 1;
nodes = (
"550 475 LINE",
"550 650 LINE",
"400 650 LINE",
"400 475 LINE"
);
},
{
closed = 1;
nodes = (
"200 0 LINE",
"200 325 LINE",
"50 325 LINE",
"50 0 LINE"
);
},
{
closed = 1;
nodes = (
"550 150 LINE",
"550 325 LINE",
"400 325 LINE",
"400 150 LINE"
);
},
{
closed = 1;
nodes = (
"400 325 LINE",
"400 475 LINE",
"200 475 LINE",
"200 325 LINE"
);
},
{
closed = 1;
nodes = (
"800 0 LINE",
"800 150 LINE",
"550 150 LINE",
"550 0 LINE"
);
},
{
closed = 1;
nodes = (
"200 475 LINE",
"200 650 LINE",
"50 650 LINE",
"50 475 LINE"
);
},
{
closed = 1;
nodes = (
"750 325 LINE",
"750 475 LINE",
"550 475 LINE",
"550 325 LINE"
);
},
{
closed = 1;
nodes = (
"400 650 LINE",
"400 800 LINE",
"200 800 LINE",
"200 650 LINE"
);
},
{
closed = 1;
nodes = (
"800 650 LINE",
"800 800 LINE",
"550 800 LINE",
"550 650 LINE"
);
}
);
width = 850;
}
);
leftKerningGroup = A;
rightKerningGroup = E;
unicode = 00C6;
},
{
glyphname = B;
lastChange = "2020-03-08 17:49:49 +0000";
layers = (
{
anchors = (
{
name = bottom;
position = "{250, 0}";
},
{
name = top;
position = "{250, 800}";
}
);
layerId = "83004642-28A7-499C-A4A0-A456D2DB2D8A";
paths = (
{
closed = 1;
nodes = (
"150 100 LINE",
"150 400 LINE",
"50 400 LINE",
"50 100 LINE"
);
},
{
closed = 1;
nodes = (
"350 0 LINE",
"350 100 LINE",
"150 100 LINE",
"150 0 LINE"
);
},
{
closed = 1;
nodes = (
"450 100 LINE",
"450 300 LINE",
"350 300 LINE",
"350 100 LINE"
);
},
{
closed = 1;
nodes = (
"250 400 LINE",
"250 500 LINE",
"150 500 LINE",
"150 400 LINE"
);
},
{
closed = 1;
nodes = (
"350 300 LINE",
"350 400 LINE",
"250 400 LINE",
"250 300 LINE"
);
},
{
closed = 1;
nodes = (
"150 500 LINE",
"150 700 LINE",
"50 700 LINE",
"50 500 LINE"
);
},
{
closed = 1;
nodes = (
"350 500 LINE",
"350 600 LINE",
"250 600 LINE",
"250 500 LINE"
);
},
{
closed = 1;
nodes = (
"350 700 LINE",
"350 800 LINE",
"150 800 LINE",
"150 700 LINE"
);
},
{
closed = 1;
nodes = (
"450 600 LINE",
"450 700 LINE",
"350 700 LINE",
"350 600 LINE"
);
}
);
width = 500;
},
{
anchors = (
{
name = bottom;
position = "{325, 0}";
},
{
name = top;
position = "{325, 800}";
}
);
layerId = "99106478-E82A-45B6-ABB4-B34A357236DB";
paths = (
{
closed = 1;
nodes = (
"200 100 LINE",
"200 350 LINE",
"50 350 LINE",
"50 100 LINE"
);
},
{
closed = 1;
nodes = (
"450 0 LINE",
"450 100 LINE",
"200 100 LINE",
"200 0 LINE"
);
},
{
closed = 1;
nodes = (
"600 100 LINE",
"600 250 LINE",
"450 250 LINE",
"450 100 LINE"
);
},
{
closed = 1;
nodes = (
"300 350 LINE",
"300 450 LINE",
"200 450 LINE",
"200 350 LINE"
);
},
{
closed = 1;
nodes = (
"450 250 LINE",
"450 350 LINE",
"300 350 LINE",
"300 250 LINE"
);
},
{
closed = 1;
nodes = (
"200 450 LINE",
"200 700 LINE",
"50 700 LINE",
"50 450 LINE"
);
},
{
closed = 1;
nodes = (
"450 450 LINE",
"450 550 LINE",
"300 550 LINE",
"300 450 LINE"
);
},
{
closed = 1;
nodes = (
"450 700 LINE",
"450 800 LINE",
"200 800 LINE",
"200 700 LINE"
);
},
{
closed = 1;
nodes = (
"600 550 LINE",
"600 700 LINE",
"450 700 LINE",
"450 550 LINE"
);
}
);
width = 650;
}
);
leftKerningGroup = B;
rightKerningGroup = B;
unicode = 0042;
},
{
glyphname = C;
lastChange = "2020-03-08 13:07:30 +0000";
layers = (
{
anchors = (
{
name = bottom;
position = "{200, 0}";
},
{
name = top;
position = "{250, 800}";
}
);
layerId = "83004642-28A7-499C-A4A0-A456D2DB2D8A";
paths = (
{
closed = 1;
nodes = (
"150 100 LINE",
"150 700 LINE",
"50 700 LINE",
"50 100 LINE"
);
},
{
closed = 1;
nodes = (
"400 0 LINE",
"400 100 LINE",
"150 100 LINE",
"150 0 LINE"
);
},
{
closed = 1;
nodes = (
"400 700 LINE",
"400 800 LINE",
"150 800 LINE",
"150 700 LINE"
);
}
);
width = 450;
},
{
anchors = (
{
name = bottom;
position = "{200, 0}";
},
{
name = top;
position = "{270, 800}";
}
);
layerId = "99106478-E82A-45B6-ABB4-B34A357236DB";
paths = (
{
closed = 1;
nodes = (
"200 150 LINE",
"200 650 LINE",
"50 650 LINE",
"50 150 LINE"
);
},
{
closed = 1;
nodes = (
"450 0 LINE",
"450 150 LINE",
"200 150 LINE",
"200 0 LINE"
);
},
{
closed = 1;
nodes = (
"450 650 LINE",
"450 800 LINE",
"200 800 LINE",
"200 650 LINE"
);
}
);
width = 500;
}
);
leftKerningGroup = C;
rightKerningGroup = C;
unicode = 0043;
},
{
glyphname = Ccedilla;
lastChange = "2020-03-08 17:31:26 +0000";
layers = (
{
layerId = "83004642-28A7-499C-A4A0-A456D2DB2D8A";
paths = (
{
closed = 1;
nodes = (
"150 100 LINE",
"150 700 LINE",
"50 700 LINE",
"50 100 LINE"
);
},
{
closed = 1;
nodes = (
"350 -200 LINE",
"350 -100 LINE",
"250 -100 LINE",
"250 -200 LINE"
);
},
{
closed = 1;
nodes = (
"350 0 LINE",
"350 100 LINE",
"150 100 LINE",
"150 0 LINE"
);
},
{
closed = 1;
nodes = (
"450 -100 LINE",
"450 0 LINE",
"350 0 LINE",
"350 -100 LINE"
);
},
{
closed = 1;
nodes = (
"400 700 LINE",
"400 800 LINE",
"150 800 LINE",
"150 700 LINE"
);
}
);
width = 450;
},
{
layerId = "99106478-E82A-45B6-ABB4-B34A357236DB";
paths = (
{
closed = 1;
nodes = (
"200 150 LINE",
"200 650 LINE",
"50 650 LINE",
"50 150 LINE"
);
},
{
closed = 1;
nodes = (
"450 -200 LINE",
"450 -100 LINE",
"300 -100 LINE",
"300 -200 LINE"
);
},
{
closed = 1;
nodes = (
"450 0 LINE",
"450 150 LINE",
"200 150 LINE",
"200 0 LINE"
);
},
{
closed = 1;
nodes = (
"600 -100 LINE",
"600 0 LINE",
"450 0 LINE",
"450 -100 LINE"
);
},
{
closed = 1;
nodes = (
"525 650 LINE",
"525 800 LINE",
"200 800 LINE",
"200 650 LINE"
);
}
);
width = 600;
}
);
leftKerningGroup = C;
rightKerningGroup = CEDILLA;
unicode = 00C7;
},
{
glyphname = D;
lastChange = "2020-03-08 13:07:30 +0000";
layers = (
{
anchors = (
{
name = bottom;
position = "{250, 0}";
},
{
name = center;
position = "{250, 400}";
},
{
name = top;
position = "{200, 800}";
}
);
layerId = "83004642-28A7-499C-A4A0-A456D2DB2D8A";
paths = (
{
closed = 1;
nodes = (
"150 100 LINE",
"150 700 LINE",
"50 700 LINE",
"50 100 LINE"
);
},
{
closed = 1;
nodes = (
"250 0 LINE",
"250 100 LINE",
"150 100 LINE",
"150 0 LINE"
);
},
{
closed = 1;
nodes = (
"350 100 LINE",
"350 200 LINE",
"250 200 LINE",
"250 100 LINE"
);
},
{
closed = 1;
nodes = (
"450 200 LINE",
"450 600 LINE",
"350 600 LINE",
"350 200 LINE"
);
},
{
closed = 1;
nodes = (
"250 700 LINE",
"250 800 LINE",
"150 800 LINE",
"150 700 LINE"
);
},
{
closed = 1;
nodes = (
"350 600 LINE",
"350 700 LINE",
"250 700 LINE",
"250 600 LINE"
);
}
);
width = 500;
},
{
anchors = (
{
name = bottom;
position = "{275, 0}";
},
{
name = center;
position = "{350, 350}";
},
{
name = top;
position = "{275, 800}";
}
);
layerId = "99106478-E82A-45B6-ABB4-B34A357236DB";
paths = (
{
closed = 1;
nodes = (
"200 100 LINE",
"200 700 LINE",
"50 700 LINE",
"50 100 LINE"
);
},
{
closed = 1;
nodes = (
"350 0 LINE",
"350 100 LINE",
"200 100 LINE",
"200 0 LINE"
);
},
{
closed = 1;
nodes = (
"500 100 LINE",
"500 250 LINE",
"350 250 LINE",
"350 100 LINE"
);
},
{
closed = 1;
nodes = (
"650 250 LINE",
"650 550 LINE",
"500 550 LINE",
"500 250 LINE"
);
},
{
closed = 1;
nodes = (
"350 700 LINE",
"350 800 LINE",
"200 800 LINE",
"200 700 LINE"
);
},
{
closed = 1;
nodes = (
"500 550 LINE",
"500 700 LINE",
"350 700 LINE",
"350 550 LINE"
);
}
);
width = 700;
}
);
leftKerningGroup = C;
rightKerningGroup = D;
unicode = 0044;
},
{
glyphname = Eth;
lastChange = "2020-03-10 13:07:42 +0000";
layers = (
{
layerId = "83004642-28A7-499C-A4A0-A456D2DB2D8A";
paths = (
{
closed = 1;
nodes = (
"500 200 LINE",
"500 600 LINE",
"400 600 LINE",
"400 200 LINE"
);
},
{
closed = 1;
nodes = (
"300 0 LINE",
"300 100 LINE",
"200 100 LINE",
"200 0 LINE"
);
},
{
closed = 1;
nodes = (
"200 100 LINE",
"200 400 LINE",
"100 400 LINE",
"100 100 LINE"
);
},
{
closed = 1;
nodes = (
"400 100 LINE",
"400 200 LINE",
"300 200 LINE",
"300 100 LINE"
);
},
{
closed = 1;
nodes = (
"100 400 LINE",
"100 500 LINE",
"0 500 LINE",
"0 400 LINE"
);
},
{
closed = 1;
nodes = (
"300 400 LINE",
"300 500 LINE",
"200 500 LINE",
"200 400 LINE"
);
},
{
closed = 1;
nodes = (
"200 500 LINE",
"200 700 LINE",
"100 700 LINE",
"100 500 LINE"
);
},
{
closed = 1;
nodes = (
"300 700 LINE",
"300 800 LINE",
"200 800 LINE",
"200 700 LINE"
);
},
{
closed = 1;
nodes = (
"400 600 LINE",
"400 700 LINE",
"300 700 LINE",
"300 600 LINE"
);
}
);
width = 550;
},
{
layerId = "99106478-E82A-45B6-ABB4-B34A357236DB";
paths = (
{
closed = 1;
nodes = (
"750 250 LINE",
"750 550 LINE",
"600 550 LINE",
"600 250 LINE"
);
},
{
closed = 1;
nodes = (
"450 0 LINE",
"450 100 LINE",
"300 100 LINE",
"300 0 LINE"
);
},
{
closed = 1;
nodes = (
"300 100 LINE",
"300 350 LINE",
"150 350 LINE",
"150 100 LINE"
);
},
{
closed = 1;
nodes = (
"600 100 LINE",
"600 250 LINE",
"450 250 LINE",
"450 100 LINE"
);
},
{
closed = 1;
nodes = (
"150 350 LINE",
"150 450 LINE",
"50 450 LINE",
"50 350 LINE"
);
},
{
closed = 1;
nodes = (
"400 350 LINE",
"400 450 LINE",
"300 450 LINE",
"300 350 LINE"
);
},
{
closed = 1;
nodes = (
"300 450 LINE",
"300 700 LINE",
"150 700 LINE",
"150 450 LINE"
);
},
{
closed = 1;
nodes = (
"450 700 LINE",
"450 800 LINE",
"300 800 LINE",
"300 700 LINE"
);
},
{
closed = 1;
nodes = (
"600 550 LINE",
"600 700 LINE",
"450 700 LINE",
"450 550 LINE"
);
}
);
width = 800;
}
);
rightKerningGroup = D;
unicode = 00D0;
},
{
glyphname = E;
lastChange = "2020-03-10 14:22:37 +0000";
layers = (
{
anchors = (
{
name = bottom;
position = "{200, 0}";
},
{
name = ogonek;
position = "{400, 0}";
},
{
name = top;
position = "{250, 800}";
},
{
name = topleft;
position = "{20, 800}";
}
);
layerId = "83004642-28A7-499C-A4A0-A456D2DB2D8A";
paths = (
{
closed = 1;
nodes = (
"150 100 LINE",
"150 400 LINE",
"50 400 LINE",
"50 100 LINE"
);
},
{
closed = 1;
nodes = (
"400 0 LINE",
"400 100 LINE",
"150 100 LINE",
"150 0 LINE"
);
},
{
closed = 1;
nodes = (
"350 400 LINE",
"350 500 LINE",
"150 500 LINE",
"150 400 LINE"
);
},
{
closed = 1;
nodes = (
"150 500 LINE",
"150 700 LINE",
"50 700 LINE",
"50 500 LINE"
);
},
{
closed = 1;
nodes = (
"400 700 LINE",
"400 800 LINE",
"150 800 LINE",
"150 700 LINE"
);
}
);
width = 450;
},
{
anchors = (
{
name = bottom;
position = "{250, 0}";
},
{
name = ogonek;
position = "{450, 10}";
},
{
name = top;
position = "{275, 800}";
},
{
name = topleft;
position = "{53, 800}";
}
);
layerId = "99106478-E82A-45B6-ABB4-B34A357236DB";
paths = (
{
closed = 1;
nodes = (
"200 150 LINE",
"200 350 LINE",
"50 350 LINE",
"50 150 LINE"
);
},
{
closed = 1;
nodes = (
"450 0 LINE",
"450 150 LINE",
"200 150 LINE",
"200 0 LINE"
);
},
{
closed = 1;
nodes = (
"400 350 LINE",
"400 500 LINE",
"200 500 LINE",
"200 350 LINE"
);
},
{
closed = 1;
nodes = (
"200 500 LINE",
"200 650 LINE",
"50 650 LINE",
"50 500 LINE"
);
},
{
closed = 1;
nodes = (
"450 650 LINE",
"450 800 LINE",
"200 800 LINE",
"200 650 LINE"
);
}
);
width = 500;
}
);
leftKerningGroup = C;
rightKerningGroup = E;
unicode = 0045;
},
{
glyphname = Emacron;
lastChange = "2020-03-03 14:34:43 +0000";
layers = (
{
components = (
{
name = E;
}
);
layerId = "83004642-28A7-499C-A4A0-A456D2DB2D8A";
paths = (
{
closed = 1;
nodes = (
"400 900 LINE",
"400 1000 LINE",
"100 1000 LINE",
"100 900 LINE"
);
}
);
width = 450;
},
{
components = (
{
name = E;
}
);
layerId = "99106478-E82A-45B6-ABB4-B34A357236DB";
paths = (
{
closed = 1;
nodes = (
"465 900 LINE",
"465 1000 LINE",
"65 1000 LINE",
"65 900 LINE"
);
}
);
width = 530;
}
);
leftKerningGroup = C;
rightKerningGroup = E;
unicode = 0112;
},
{
glyphname = F;
lastChange = "2020-03-08 17:55:04 +0000";
layers = (
{
layerId = "83004642-28A7-499C-A4A0-A456D2DB2D8A";
paths = (
{
closed = 1;
nodes = (
"150 400 LINE",
"150 700 LINE",
"50 700 LINE",
"50 400 LINE"
);
},
{
closed = 1;
nodes = (
"150 0 LINE",
"150 300 LINE",
"50 300 LINE",
"50 0 LINE"
);
},
{
closed = 1;
nodes = (
"350 300 LINE",
"350 400 LINE",
"150 400 LINE",
"150 300 LINE"
);
},
{
closed = 1;
nodes = (
"350 700 LINE",
"350 800 LINE",
"150 800 LINE",
"150 700 LINE"
);
}
);
width = 400;
},
{
layerId = "99106478-E82A-45B6-ABB4-B34A357236DB";
paths = (
{
closed = 1;
nodes = (
"200 400 LINE",
"200 650 LINE",
"50 650 LINE",
"50 400 LINE"
);
},
{
closed = 1;
nodes = (
"200 0 LINE",
"200 250 LINE",
"50 250 LINE",
"50 0 LINE"
);
},
{
closed = 1;
nodes = (
"450 250 LINE",
"450 400 LINE",
"200 400 LINE",
"200 250 LINE"
);
},
{
closed = 1;
nodes = (
"450 650 LINE",
"450 800 LINE",
"200 800 LINE",
"200 650 LINE"
);
}
);
width = 500;
}
);
leftKerningGroup = FP;
rightKerningGroup = F;
unicode = 0046;
},
{
glyphname = G;
lastChange = "2020-03-08 13:07:30 +0000";
layers = (
{
anchors = (
{
name = bottom;
position = "{250, 0}";
},
{
name = top;
position = "{250, 800}";
}
);
layerId = "83004642-28A7-499C-A4A0-A456D2DB2D8A";
paths = (
{
closed = 1;
nodes = (
"150 100 LINE",
"150 700 LINE",
"50 700 LINE",
"50 100 LINE"
);
},
{
closed = 1;
nodes = (
"350 0 LINE",
"350 100 LINE",
"150 100 LINE",
"150 0 LINE"
);
},
{
closed = 1;
nodes = (
"450 100 LINE",
"450 400 LINE",
"350 400 LINE",
"350 100 LINE"
);
},
{
closed = 1;
nodes = (
"350 400 LINE",
"350 500 LINE",
"250 500 LINE",
"250 400 LINE"
);
},
{
closed = 1;
nodes = (
"350 700 LINE",
"350 800 LINE",
"150 800 LINE",
"150 700 LINE"
);
}
);
width = 500;
},
{
anchors = (
{
name = bottom;
position = "{325, 0}";
},
{
name = top;
position = "{325, 800}";
}
);
layerId = "99106478-E82A-45B6-ABB4-B34A357236DB";
paths = (
{
closed = 1;
nodes = (
"200 150 LINE",
"200 650 LINE",
"50 650 LINE",
"50 150 LINE"
);
},
{
closed = 1;
nodes = (
"450 0 LINE",
"450 150 LINE",
"200 150 LINE",
"200 0 LINE"
);
},
{
closed = 1;
nodes = (
"600 150 LINE",
"600 350 LINE",
"450 350 LINE",
"450 150 LINE"
);
},
{
closed = 1;
nodes = (
"450 350 LINE",
"450 500 LINE",
"300 500 LINE",
"300 350 LINE"
);
},
{
closed = 1;
nodes = (
"450 650 LINE",
"450 800 LINE",
"200 800 LINE",
"200 650 LINE"
);
}
);
width = 650;
}
);
leftKerningGroup = C;
rightKerningGroup = G;
unicode = 0047;
},
{
glyphname = H;
lastChange = "2020-03-08 17:31:58 +0000";
layers = (
{
anchors = (
{
name = bottom;
position = "{250, 0}";
},
{
name = center;
position = "{250, 400}";
},
{
name = top;
position = "{250, 800}";
},
{
name = topleft;
position = "{20, 800}";
}
);
layerId = "83004642-28A7-499C-A4A0-A456D2DB2D8A";
paths = (
{
closed = 1;
nodes = (
"450 400 LINE",
"450 800 LINE",
"350 800 LINE",
"350 400 LINE"
);
},
{
closed = 1;
nodes = (
"150 0 LINE",
"150 300 LINE",
"50 300 LINE",
"50 0 LINE"
);
},
{
closed = 1;
nodes = (
"450 0 LINE",
"450 300 LINE",
"350 300 LINE",
"350 0 LINE"
);
},
{
closed = 1;
nodes = (
"350 300 LINE",
"350 400 LINE",
"150 400 LINE",
"150 300 LINE"
);
},
{
closed = 1;
nodes = (
"150 400 LINE",
"150 800 LINE",
"50 800 LINE",
"50 400 LINE"
);
}
);
width = 500;
},
{
anchors = (
{
name = bottom;
position = "{300, 0}";
},
{
name = center;
position = "{300, 350}";
},
{
name = top;
position = "{300, 800}";
},
{
name = topleft;
position = "{20, 800}";
}
);
layerId = "99106478-E82A-45B6-ABB4-B34A357236DB";
paths = (
{
closed = 1;
nodes = (
"550 400 LINE",
"550 800 LINE",
"400 800 LINE",
"400 400 LINE"
);
},
{
closed = 1;
nodes = (
"200 0 LINE",
"200 250 LINE",
"50 250 LINE",
"50 0 LINE"
);
},
{
closed = 1;
nodes = (
"550 0 LINE",
"550 250 LINE",
"400 250 LINE",
"400 0 LINE"
);
},
{
closed = 1;
nodes = (
"400 250 LINE",
"400 400 LINE",
"200 400 LINE",
"200 250 LINE"
);
},
{
closed = 1;
nodes = (
"200 400 LINE",
"200 800 LINE",
"50 800 LINE",
"50 400 LINE"
);
}
);
width = 600;
}
);
leftKerningGroup = H;
rightKerningGroup = H;
unicode = 0048;
},
{
glyphname = Hbar;
lastChange = "2020-03-10 13:48:41 +0000";
layers = (
{
layerId = "83004642-28A7-499C-A4A0-A456D2DB2D8A";
paths = (
{
closed = 1;
nodes = (
"500 0 LINE",
"500 300 LINE",
"400 300 LINE",
"400 0 LINE"
);
},
{
closed = 1;
nodes = (
"200 0 LINE",
"200 300 LINE",
"100 300 LINE",
"100 0 LINE"
);
},
{
closed = 1;
nodes = (
"200 400 LINE",
"200 550 LINE",
"100 550 LINE",
"100 400 LINE"
);
},
{
closed = 1;
nodes = (
"400 300 LINE",
"400 400 LINE",
"200 400 LINE",
"200 300 LINE"
);
},
{
closed = 1;
nodes = (
"100 550 LINE",
"100 650 LINE",
"0 650 LINE",
"0 550 LINE"
);
},
{
closed = 1;
nodes = (
"200 650 LINE",
"200 800 LINE",
"100 800 LINE",
"100 650 LINE"
);
},
{
closed = 1;
nodes = (
"400 550 LINE",
"400 650 LINE",
"200 650 LINE",
"200 550 LINE"
);
},
{
closed = 1;
nodes = (
"500 400 LINE",
"500 550 LINE",
"400 550 LINE",
"400 400 LINE"
);
},
{
closed = 1;
nodes = (
"600 550 LINE",
"600 650 LINE",
"500 650 LINE",
"500 550 LINE"
);
},
{
closed = 1;
nodes = (
"500 650 LINE",
"500 800 LINE",
"400 800 LINE",
"400 650 LINE"
);
}
);
width = 600;
},
{
layerId = "99106478-E82A-45B6-ABB4-B34A357236DB";
paths = (
{
closed = 1;
nodes = (
"600 0 LINE",
"600 250 LINE",
"450 250 LINE",
"450 0 LINE"
);
},
{
closed = 1;
nodes = (
"250 0 LINE",
"250 250 LINE",
"100 250 LINE",
"100 0 LINE"
);
},
{
closed = 1;
nodes = (
"250 400 LINE",
"250 550 LINE",
"100 550 LINE",
"100 400 LINE"
);
},
{
closed = 1;
nodes = (
"450 250 LINE",
"450 400 LINE",
"250 400 LINE",
"250 250 LINE"
);
},
{
closed = 1;
nodes = (
"100 550 LINE",
"100 650 LINE",
"0 650 LINE",
"0 550 LINE"
);
},
{
closed = 1;
nodes = (
"250 650 LINE",
"250 800 LINE",
"100 800 LINE",
"100 650 LINE"
);
},
{
closed = 1;
nodes = (
"450 550 LINE",
"450 650 LINE",
"250 650 LINE",
"250 550 LINE"
);
},
{
closed = 1;
nodes = (
"600 400 LINE",
"600 550 LINE",
"450 550 LINE",
"450 400 LINE"
);
},
{
closed = 1;
nodes = (
"700 550 LINE",
"700 650 LINE",
"600 650 LINE",
"600 550 LINE"
);
},
{
closed = 1;
nodes = (
"600 650 LINE",
"600 800 LINE",
"450 800 LINE",
"450 650 LINE"
);
}
);
width = 700;
}
);
unicode = 0126;
},
{
glyphname = I;
lastChange = "2020-03-08 13:07:30 +0000";
layers = (
{
anchors = (
{
name = bottom;
position = "{100, 0}";
},
{
name = ogonek;
position = "{150, 0}";
},
{
name = top;
position = "{100, 800}";
},
{
name = topleft;
position = "{20, 800}";
}
);
layerId = "83004642-28A7-499C-A4A0-A456D2DB2D8A";
paths = (
{
closed = 1;
nodes = (
"150 0 LINE",
"150 800 LINE",
"50 800 LINE",
"50 0 LINE"
);
}
);
width = 200;
},
{
anchors = (
{
name = bottom;
position = "{125, 0}";
},
{
name = ogonek;
position = "{200, 0}";
},
{
name = top;
position = "{125, 800}";
},
{
name = topleft;
position = "{5, 800}";
}
);
layerId = "99106478-E82A-45B6-ABB4-B34A357236DB";
paths = (
{
closed = 1;
nodes = (
"200 0 LINE",
"200 800 LINE",
"50 800 LINE",
"50 0 LINE"
);
}
);
width = 250;
}
);
leftKerningGroup = I;
rightKerningGroup = I;
unicode = 0049;
},
{
glyphname = Iogonek;
lastChange = "2020-03-03 14:34:43 +0000";
layers = (
{
components = (
{
name = I;
}
);
layerId = "83004642-28A7-499C-A4A0-A456D2DB2D8A";
paths = (
{
closed = 1;
nodes = (
"150 -200 LINE",
"150 -100 LINE",
"50 -100 LINE",
"50 -200 LINE"
);
},
{
closed = 1;
nodes = (
"50 -100 LINE",
"50 0 LINE",
"-50 0 LINE",
"-50 -100 LINE"
);
}
);
width = 200;
},
{
components = (
{
name = I;
}
);
layerId = "99106478-E82A-45B6-ABB4-B34A357236DB";
paths = (
{
closed = 1;
nodes = (
"215 -200 LINE",
"215 -100 LINE",
"65 -100 LINE",
"65 -200 LINE"
);
},
{
closed = 1;
nodes = (
"65 -100 LINE",
"65 0 LINE",
"-35 0 LINE",
"-35 -100 LINE"
);
}
);
width = 280;
}
);
leftKerningGroup = I;
rightKerningGroup = I;
unicode = 012E;
},
{
glyphname = J;
lastChange = "2020-03-08 17:22:04 +0000";
layers = (
{
anchors = (
{
name = bottom;
position = "{250, 0}";
},
{
name = top;
position = "{400, 800}";
}
);
layerId = "83004642-28A7-499C-A4A0-A456D2DB2D8A";
paths = (
{
closed = 1;
nodes = (
"450 100 LINE",
"450 800 LINE",
"350 800 LINE",
"350 100 LINE"
);
},
{
closed = 1;
nodes = (
"350 0 LINE",
"350 100 LINE",
"150 100 LINE",
"150 0 LINE"
);
},
{
closed = 1;
nodes = (
"150 100 LINE",
"150 400 LINE",
"50 400 LINE",
"50 100 LINE"
);
}
);
width = 500;
},
{
anchors = (
{
name = bottom;
position = "{308, 0}";
},
{
name = top;
position = "{475, 800}";
}
);
layerId = "99106478-E82A-45B6-ABB4-B34A357236DB";
paths = (
{
closed = 1;
nodes = (
"550 150 LINE",
"550 800 LINE",
"400 800 LINE",
"400 150 LINE"
);
},
{
closed = 1;
nodes = (
"400 0 LINE",
"400 150 LINE",
"200 150 LINE",
"200 0 LINE"
);
},
{
closed = 1;
nodes = (
"200 150 LINE",
"200 400 LINE",
"50 400 LINE",
"50 150 LINE"
);
}
);
width = 600;
}
);
leftKerningGroup = J;
rightKerningGroup = J;
unicode = 004A;
},
{
glyphname = K;
lastChange = "2020-03-08 17:51:47 +0000";
layers = (
{
anchors = (
{
name = bottom;
position = "{250, 0}";
},
{
name = top;
position = "{250, 800}";
}
);
layerId = "83004642-28A7-499C-A4A0-A456D2DB2D8A";
paths = (
{
closed = 1;
nodes = (
"150 0 LINE",
"150 400 LINE",
"50 400 LINE",
"50 0 LINE"
);
},
{
closed = 1;
nodes = (
"450 0 LINE",
"450 300 LINE",
"350 300 LINE",
"350 0 LINE"
);
},
{
closed = 1;
nodes = (
"250 400 LINE",
"250 500 LINE",
"150 500 LINE",
"150 400 LINE"
);
},
{
closed = 1;
nodes = (
"350 300 LINE",
"350 400 LINE",
"250 400 LINE",
"250 300 LINE"
);
},
{
closed = 1;
nodes = (
"150 500 LINE",
"150 800 LINE",
"50 800 LINE",
"50 500 LINE"
);
},
{
closed = 1;
nodes = (
"350 500 LINE",
"350 600 LINE",
"250 600 LINE",
"250 500 LINE"
);
},
{
closed = 1;
nodes = (
"450 600 LINE",
"450 800 LINE",
"350 800 LINE",
"350 600 LINE"
);
}
);
width = 500;
},
{
anchors = (
{
name = bottom;
position = "{325, 0}";
},
{
name = top;
position = "{325, 800}";
}
);
layerId = "99106478-E82A-45B6-ABB4-B34A357236DB";
paths = (
{
closed = 1;
nodes = (
"200 0 LINE",
"200 350 LINE",
"50 350 LINE",
"50 0 LINE"
);
},
{
closed = 1;
nodes = (
"600 0 LINE",
"600 250 LINE",
"450 250 LINE",
"450 0 LINE"
);
},
{
closed = 1;
nodes = (
"300 350 LINE",
"300 450 LINE",
"200 450 LINE",
"200 350 LINE"
);
},
{
closed = 1;
nodes = (
"450 250 LINE",
"450 350 LINE",
"300 350 LINE",
"300 250 LINE"
);
},
{
closed = 1;
nodes = (
"200 450 LINE",
"200 800 LINE",
"50 800 LINE",
"50 450 LINE"
);
},
{
closed = 1;
nodes = (
"450 450 LINE",
"450 550 LINE",
"300 550 LINE",
"300 450 LINE"
);
},
{
closed = 1;
nodes = (
"600 550 LINE",
"600 800 LINE",
"450 800 LINE",
"450 550 LINE"
);
}
);
width = 650;
}
);
unicode = 004B;
},
{
glyphname = L;
lastChange = "2020-03-08 17:14:04 +0000";
layers = (
{
anchors = (
{
name = bottom;
position = "{200, 0}";
},
{
name = center;
position = "{175, 400}";
},
{
name = top;
position = "{100, 800}";
},
{
name = topright;
position = "{250, 500}";
}
);
layerId = "83004642-28A7-499C-A4A0-A456D2DB2D8A";
paths = (
{
closed = 1;
nodes = (
"150 100 LINE",
"150 800 LINE",
"50 800 LINE",
"50 100 LINE"
);
},
{
closed = 1;
nodes = (
"350 0 LINE",
"350 100 LINE",
"150 100 LINE",
"150 0 LINE"
);
}
);
width = 350;
},
{
anchors = (
{
name = bottom;
position = "{275, 0}";
},
{
name = center;
position = "{218, 350}";
},
{
name = top;
position = "{125, 800}";
},
{
name = topright;
position = "{300, 500}";
}
);
guideLines = (
{
angle = 90;
position = "{50, 150}";
}
);
layerId = "99106478-E82A-45B6-ABB4-B34A357236DB";
paths = (
{
closed = 1;
nodes = (
"200 150 LINE",
"200 800 LINE",
"50 800 LINE",
"50 150 LINE"
);
},
{
closed = 1;
nodes = (
"400 0 LINE",
"400 150 LINE",
"200 150 LINE",
"200 0 LINE"
);
}
);
width = 400;
}
);
rightKerningGroup = L;
unicode = 004C;
},
{
glyphname = Lslash;
lastChange = "2020-03-10 14:28:53 +0000";
layers = (
{
layerId = "83004642-28A7-499C-A4A0-A456D2DB2D8A";
paths = (
{
closed = 1;
nodes = (
"400 0 LINE",
"400 100 LINE",
"200 100 LINE",
"200 0 LINE"
);
},
{
closed = 1;
nodes = (
"100 300 LINE",
"100 400 LINE",
"0 400 LINE",
"0 300 LINE"
);
},
{
closed = 1;
nodes = (
"200 600 LINE",
"200 800 LINE",
"100 800 LINE",
"100 600 LINE"
);
},
{
closed = 1;
nodes = (
"200 100 LINE",
"200 300 LINE",
"100 300 LINE",
"100 100 LINE"
);
},
{
closed = 1;
nodes = (
"200 400 LINE",
"200 500 LINE",
"100 500 LINE",
"100 400 LINE"
);
},
{
closed = 1;
nodes = (
"300 500 LINE",
"300 600 LINE",
"200 600 LINE",
"200 500 LINE"
);
},
{
closed = 1;
nodes = (
"400 600 LINE",
"400 700 LINE",
"300 700 LINE",
"300 600 LINE"
);
}
);
width = 400;
},
{
layerId = "99106478-E82A-45B6-ABB4-B34A357236DB";
paths = (
{
closed = 1;
nodes = (
"600 0 LINE",
"600 150 LINE",
"300 150 LINE",
"300 0 LINE"
);
},
{
closed = 1;
nodes = (
"150 300 LINE",
"150 400 LINE",
"0 400 LINE",
"0 300 LINE"
);
},
{
closed = 1;
nodes = (
"300 600 LINE",
"300 800 LINE",
"150 800 LINE",
"150 600 LINE"
);
},
{
closed = 1;
nodes = (
"300 150 LINE",
"300 300 LINE",
"150 300 LINE",
"150 150 LINE"
);
},
{
closed = 1;
nodes = (
"300 400 LINE",
"300 500 LINE",
"150 500 LINE",
"150 400 LINE"
);
},
{
closed = 1;
nodes = (
"450 500 LINE",
"450 600 LINE",
"300 600 LINE",
"300 500 LINE"
);
},
{
closed = 1;
nodes = (
"600 600 LINE",
"600 700 LINE",
"450 700 LINE",
"450 600 LINE"
);
}
);
width = 600;
}
);
unicode = 0141;
},
{
glyphname = M;
lastChange = "2020-03-08 17:32:17 +0000";
layers = (
{
anchors = (
{
name = bottom;
position = "{300, 0}";
},
{
name = top;
position = "{300, 800}";
}
);
layerId = "83004642-28A7-499C-A4A0-A456D2DB2D8A";
paths = (
{
closed = 1;
nodes = (
"550 0 LINE",
"550 700 LINE",
"450 700 LINE",
"450 0 LINE"
);
},
{
closed = 1;
nodes = (
"150 0 LINE",
"150 700 LINE",
"50 700 LINE",
"50 0 LINE"
);
},
{
closed = 1;
nodes = (
"350 0 LINE",
"350 700 LINE",
"250 700 LINE",
"250 0 LINE"
);
},
{
closed = 1;
nodes = (
"250 700 LINE",
"250 800 LINE",
"150 800 LINE",
"150 700 LINE"
);
},
{
closed = 1;
nodes = (
"450 700 LINE",
"450 800 LINE",
"350 800 LINE",
"350 700 LINE"
);
}
);
width = 600;
},
{
anchors = (
{
name = bottom;
position = "{350, 0}";
},
{
name = top;
position = "{350, 800}";
}
);
layerId = "99106478-E82A-45B6-ABB4-B34A357236DB";
paths = (
{
closed = 1;
nodes = (
"650 0 LINE",
"650 650 LINE",
"500 650 LINE",
"500 0 LINE"
);
},
{
closed = 1;
nodes = (
"200 0 LINE",
"200 650 LINE",
"50 650 LINE",
"50 0 LINE"
);
},
{
closed = 1;
nodes = (
"400 0 LINE",
"400 650 LINE",
"300 650 LINE",
"300 0 LINE"
);
},
{
closed = 1;
nodes = (
"300 650 LINE",
"300 800 LINE",
"200 800 LINE",
"200 650 LINE"
);
},
{
closed = 1;
nodes = (
"500 650 LINE",
"500 800 LINE",
"400 800 LINE",
"400 650 LINE"
);
}
);
width = 700;
}
);
leftKerningGroup = MN;
rightKerningGroup = M;
unicode = 004D;
},
{
glyphname = N;
lastChange = "2020-03-08 13:03:58 +0000";
layers = (
{
anchors = (
{
name = bottom;
position = "{300, 0}";
},
{
name = top;
position = "{300, 800}";
}
);
layerId = "83004642-28A7-499C-A4A0-A456D2DB2D8A";
paths = (
{
closed = 1;
nodes = (
"550 100 LINE",
"550 800 LINE",
"450 800 LINE",
"450 100 LINE"
);
},
{
closed = 1;
nodes = (
"150 0 LINE",
"150 700 LINE",
"50 700 LINE",
"50 0 LINE"
);
},
{
closed = 1;
nodes = (
"450 0 LINE",
"450 100 LINE",
"350 100 LINE",
"350 0 LINE"
);
},
{
closed = 1;
nodes = (
"350 100 LINE",
"350 700 LINE",
"250 700 LINE",
"250 100 LINE"
);
},
{
closed = 1;
nodes = (
"250 700 LINE",
"250 800 LINE",
"150 800 LINE",
"150 700 LINE"
);
}
);
width = 600;
},
{
anchors = (
{
name = bottom;
position = "{350, 0}";
},
{
name = top;
position = "{350, 800}";
}
);
layerId = "99106478-E82A-45B6-ABB4-B34A357236DB";
paths = (
{
closed = 1;
nodes = (
"650 150 LINE",
"650 800 LINE",
"500 800 LINE",
"500 150 LINE"
);
},
{
closed = 1;
nodes = (
"200 0 LINE",
"200 650 LINE",
"50 650 LINE",
"50 0 LINE"
);
},
{
closed = 1;
nodes = (
"500 0 LINE",
"500 150 LINE",
"400 150 LINE",
"400 0 LINE"
);
},
{
closed = 1;
nodes = (
"400 150 LINE",
"400 650 LINE",
"300 650 LINE",
"300 150 LINE"
);
},
{
closed = 1;
nodes = (
"300 650 LINE",
"300 800 LINE",
"200 800 LINE",
"200 650 LINE"
);
}
);
width = 700;
}
);
leftKerningGroup = MN;
rightKerningGroup = N;
unicode = 004E;
},
{
glyphname = Eng;
lastChange = "2020-03-10 13:52:13 +0000";
layers = (
{
anchors = (
{
name = bottom;
position = "{300, 0}";
},
{
name = top;
position = "{300, 800}";
}
);
layerId = "83004642-28A7-499C-A4A0-A456D2DB2D8A";
paths = (
{
closed = 1;
nodes = (
"150 0 LINE",
"150 700 LINE",
"50 700 LINE",
"50 0 LINE"
);
},
{
closed = 1;
nodes = (
"550 151 LINE",
"550 800 LINE",
"450 800 LINE",
"450 151 LINE"
);
},
{
closed = 1;
nodes = (
"450 -200 LINE",
"450 -100 LINE",
"350 -100 LINE",
"350 -200 LINE"
);
},
{
closed = 1;
nodes = (
"550 -100 LINE",
"550 51 LINE",
"450 51 LINE",
"450 -100 LINE"
);
},
{
closed = 1;
nodes = (
"450 51 LINE",
"450 151 LINE",
"350 151 LINE",
"350 51 LINE"
);
},
{
closed = 1;
nodes = (
"350 151 LINE",
"350 700 LINE",
"250 700 LINE",
"250 151 LINE"
);
},
{
closed = 1;
nodes = (
"250 700 LINE",
"250 800 LINE",
"150 800 LINE",
"150 700 LINE"
);
}
);
width = 600;
},
{
anchors = (
{
name = bottom;
position = "{350, 0}";
},
{
name = top;
position = "{350, 800}";
}
);
layerId = "99106478-E82A-45B6-ABB4-B34A357236DB";
paths = (
{
closed = 1;
nodes = (
"200 0 LINE",
"200 650 LINE",
"50 650 LINE",
"50 0 LINE"
);
},
{
closed = 1;
nodes = (
"650 150 LINE",
"650 800 LINE",
"500 800 LINE",
"500 150 LINE"
);
},
{
closed = 1;
nodes = (
"500 -200 LINE",
"500 -100 LINE",
"400 -100 LINE",
"400 -200 LINE"
);
},
{
closed = 1;
nodes = (
"650 -100 LINE",
"650 50 LINE",
"500 50 LINE",
"500 -100 LINE"
);
},
{
closed = 1;
nodes = (
"500 50 LINE",
"500 150 LINE",
"400 150 LINE",
"400 50 LINE"
);
},
{
closed = 1;
nodes = (
"400 150 LINE",
"400 650 LINE",
"300 650 LINE",
"300 150 LINE"
);
},
{
closed = 1;
nodes = (
"300 650 LINE",
"300 800 LINE",
"200 800 LINE",
"200 650 LINE"
);
}
);
width = 700;
}
);
leftKerningGroup = MN;
rightKerningGroup = N;
unicode = 014A;
},
{
glyphname = O;
lastChange = "2020-03-08 17:18:14 +0000";
layers = (
{
anchors = (
{
name = bottom;
position = "{455, 0}";
},
{
name = center;
position = "{455, 400}";
},
{
name = ogonek;
position = "{815, 10}";
},
{
name = top;
position = "{455, 800}";
},
{
name = topleft;
position = "{25, 800}";
},
{
name = topright;
position = "{885, 800}";
}
);
layerId = "83004642-28A7-499C-A4A0-A456D2DB2D8A";
paths = (
{
closed = 1;
nodes = (
"689 -20 OFFCURVE",
"875 166 OFFCURVE",
"875 400 CURVE SMOOTH",
"875 628 OFFCURVE",
"689 820 OFFCURVE",
"455 820 CURVE SMOOTH",
"221 820 OFFCURVE",
"35 628 OFFCURVE",
"35 400 CURVE SMOOTH",
"35 166 OFFCURVE",
"221 -20 OFFCURVE",
"455 -20 CURVE SMOOTH"
);
}
);
width = 910;
},
{
anchors = (
{
name = bottom;
position = "{455, 0}";
},
{
name = center;
position = "{455, 400}";
},
{
name = ogonek;
position = "{815, 10}";
},
{
name = top;
position = "{455, 800}";
},
{
name = topleft;
position = "{25, 800}";
},
{
name = topright;
position = "{885, 800}";
}
);
layerId = "99106478-E82A-45B6-ABB4-B34A357236DB";
paths = (
{
closed = 1;
nodes = (
"689 -20 OFFCURVE",
"875 166 OFFCURVE",
"875 400 CURVE SMOOTH",
"875 628 OFFCURVE",
"689 820 OFFCURVE",
"455 820 CURVE SMOOTH",
"221 820 OFFCURVE",
"35 628 OFFCURVE",
"35 400 CURVE SMOOTH",
"35 166 OFFCURVE",
"221 -20 OFFCURVE",
"455 -20 CURVE SMOOTH"
);
}
);
width = 910;
}
);
leftKerningGroup = O;
rightKerningGroup = O;
unicode = 004F;
},
{
glyphname = Oslash;
lastChange = "2020-03-03 14:34:43 +0000";
layers = (
{
layerId = "83004642-28A7-499C-A4A0-A456D2DB2D8A";
paths = (
{
closed = 1;
nodes = (
"689 -20 OFFCURVE",
"875 166 OFFCURVE",
"875 400 CURVE SMOOTH",
"875 628 OFFCURVE",
"689 820 OFFCURVE",
"455 820 CURVE SMOOTH",
"221 820 OFFCURVE",
"35 628 OFFCURVE",
"35 400 CURVE SMOOTH",
"35 166 OFFCURVE",
"221 -20 OFFCURVE",
"455 -20 CURVE SMOOTH"
);
},
{
closed = 1;
nodes = (
"160 0 LINE",
"160 100 LINE",
"60 100 LINE",
"60 0 LINE"
);
},
{
closed = 1;
nodes = (
"850 700 LINE",
"850 800 LINE",
"750 800 LINE",
"750 700 LINE"
);
}
);
width = 910;
},
{
layerId = "99106478-E82A-45B6-ABB4-B34A357236DB";
paths = (
{
closed = 1;
nodes = (
"758 -20 OFFCURVE",
"944 166 OFFCURVE",
"944 400 CURVE SMOOTH",
"944 628 OFFCURVE",
"758 820 OFFCURVE",
"524 820 CURVE SMOOTH",
"290 820 OFFCURVE",
"104 628 OFFCURVE",
"104 400 CURVE SMOOTH",
"104 166 OFFCURVE",
"290 -20 OFFCURVE",
"524 -20 CURVE SMOOTH"
);
},
{
closed = 1;
nodes = (
"185 0 LINE",
"185 150 LINE",
"35 150 LINE",
"35 0 LINE"
);
},
{
closed = 1;
nodes = (
"967 700 LINE",
"967 850 LINE",
"817 850 LINE",
"817 700 LINE"
);
}
);
width = 1002;
}
);
unicode = 00D8;
},
{
glyphname = OE;
lastChange = "2020-03-03 14:38:07 +0000";
layers = (
{
layerId = "83004642-28A7-499C-A4A0-A456D2DB2D8A";
paths = (
{
closed = 1;
nodes = (
"689 -20 OFFCURVE",
"875 166 OFFCURVE",
"875 400 CURVE SMOOTH",
"875 628 OFFCURVE",
"689 820 OFFCURVE",
"455 820 CURVE SMOOTH",
"221 820 OFFCURVE",
"35 628 OFFCURVE",
"35 400 CURVE SMOOTH",
"35 166 OFFCURVE",
"221 -20 OFFCURVE",
"455 -20 CURVE SMOOTH"
);
},
{
closed = 1;
nodes = (
"972 100 LINE",
"972 350 LINE",
"872 350 LINE",
"872 100 LINE"
);
},
{
closed = 1;
nodes = (
"1222 0 LINE",
"1222 100 LINE",
"972 100 LINE",
"972 0 LINE"
);
},
{
closed = 1;
nodes = (
"1172 350 LINE",
"1172 450 LINE",
"972 450 LINE",
"972 350 LINE"
);
},
{
closed = 1;
nodes = (
"972 450 LINE",
"972 700 LINE",
"872 700 LINE",
"872 450 LINE"
);
},
{
closed = 1;
nodes = (
"1222 700 LINE",
"1222 800 LINE",
"972 800 LINE",
"972 700 LINE"
);
}
);
width = 1272;
},
{
layerId = "99106478-E82A-45B6-ABB4-B34A357236DB";
paths = (
{
closed = 1;
nodes = (
"689 -20 OFFCURVE",
"875 216 OFFCURVE",
"875 400 CURVE SMOOTH",
"875 628 OFFCURVE",
"689 820 OFFCURVE",
"455 820 CURVE SMOOTH",
"221 820 OFFCURVE",
"35 628 OFFCURVE",
"35 400 CURVE SMOOTH",
"35 166 OFFCURVE",
"221 -20 OFFCURVE",
"455 -20 CURVE SMOOTH"
);
},
{
closed = 1;
nodes = (
"1018 150 LINE",
"1018 325 LINE",
"868 325 LINE",
"868 150 LINE"
);
},
{
closed = 1;
nodes = (
"1268 0 LINE",
"1268 150 LINE",
"1018 150 LINE",
"1018 0 LINE"
);
},
{
closed = 1;
nodes = (
"1218 325 LINE",
"1218 475 LINE",
"1018 475 LINE",
"1018 325 LINE"
);
},
{
closed = 1;
nodes = (
"1018 475 LINE",
"1018 650 LINE",
"868 650 LINE",
"868 475 LINE"
);
},
{
closed = 1;
nodes = (
"1268 650 LINE",
"1268 800 LINE",
"1018 800 LINE",
"1018 650 LINE"
);
}
);
width = 1318;
}
);
leftKerningGroup = O;
leftMetricsKey = O;
rightKerningGroup = E;
rightMetricsKey = E;
unicode = 0152;
},
{
glyphname = P;
lastChange = "2020-03-08 17:32:36 +0000";
layers = (
{
anchors = (
{
name = bottom;
position = "{250, 0}";
},
{
name = top;
position = "{250, 800}";
}
);
layerId = "83004642-28A7-499C-A4A0-A456D2DB2D8A";
paths = (
{
closed = 1;
nodes = (
"450 400 LINE",
"450 700 LINE",
"350 700 LINE",
"350 400 LINE"
);
},
{
closed = 1;
nodes = (
"150 0 LINE",
"150 300 LINE",
"50 300 LINE",
"50 0 LINE"
);
},
{
closed = 1;
nodes = (
"350 300 LINE",
"350 400 LINE",
"150 400 LINE",
"150 300 LINE"
);
},
{
closed = 1;
nodes = (
"150 400 LINE",
"150 700 LINE",
"50 700 LINE",
"50 400 LINE"
);
},
{
closed = 1;
nodes = (
"350 700 LINE",
"350 800 LINE",
"150 800 LINE",
"150 700 LINE"
);
}
);
width = 500;
},
{
anchors = (
{
name = bottom;
position = "{300, 0}";
},
{
name = top;
position = "{300, 800}";
}
);
layerId = "99106478-E82A-45B6-ABB4-B34A357236DB";
paths = (
{
closed = 1;
nodes = (
"550 400 LINE",
"550 650 LINE",
"400 650 LINE",
"400 400 LINE"
);
},
{
closed = 1;
nodes = (
"200 0 LINE",
"200 250 LINE",
"50 250 LINE",
"50 0 LINE"
);
},
{
closed = 1;
nodes = (
"400 250 LINE",
"400 400 LINE",
"200 400 LINE",
"200 250 LINE"
);
},
{
closed = 1;
nodes = (
"200 400 LINE",
"200 650 LINE",
"50 650 LINE",
"50 400 LINE"
);
},
{
closed = 1;
nodes = (
"400 650 LINE",
"400 800 LINE",
"200 800 LINE",
"200 650 LINE"
);
}
);
width = 600;
}
);
leftKerningGroup = FP;
rightKerningGroup = P;
unicode = 0050;
},
{
glyphname = Thorn;
lastChange = "2020-03-09 18:37:16 +0000";
layers = (
{
layerId = "83004642-28A7-499C-A4A0-A456D2DB2D8A";
paths = (
{
closed = 1;
nodes = (
"150 600 LINE",
"150 800 LINE",
"50 800 LINE",
"50 600 LINE"
);
},
{
closed = 1;
nodes = (
"150 0 LINE",
"150 200 LINE",
"50 200 LINE",
"50 0 LINE"
);
},
{
closed = 1;
nodes = (
"350 200 LINE",
"350 300 LINE",
"150 300 LINE",
"150 200 LINE"
);
},
{
closed = 1;
nodes = (
"150 300 LINE",
"150 500 LINE",
"50 500 LINE",
"50 300 LINE"
);
},
{
closed = 1;
nodes = (
"350 500 LINE",
"350 600 LINE",
"150 600 LINE",
"150 500 LINE"
);
},
{
closed = 1;
nodes = (
"450 300 LINE",
"450 500 LINE",
"350 500 LINE",
"350 300 LINE"
);
}
);
width = 500;
},
{
layerId = "99106478-E82A-45B6-ABB4-B34A357236DB";
paths = (
{
closed = 1;
nodes = (
"215 600 LINE",
"215 800 LINE",
"65 800 LINE",
"65 600 LINE"
);
},
{
closed = 1;
nodes = (
"215 0 LINE",
"215 200 LINE",
"65 200 LINE",
"65 0 LINE"
);
},
{
closed = 1;
nodes = (
"415 200 LINE",
"415 300 LINE",
"215 300 LINE",
"215 200 LINE"
);
},
{
closed = 1;
nodes = (
"215 300 LINE",
"215 500 LINE",
"65 500 LINE",
"65 300 LINE"
);
},
{
closed = 1;
nodes = (
"415 500 LINE",
"415 600 LINE",
"215 600 LINE",
"215 500 LINE"
);
},
{
closed = 1;
nodes = (
"565 300 LINE",
"565 500 LINE",
"415 500 LINE",
"415 300 LINE"
);
}
);
width = 630;
}
);
unicode = 00DE;
},
{
glyphname = Q;
lastChange = "2020-03-08 17:17:01 +0000";
layers = (
{
anchors = (
{
name = bottom;
position = "{450, 0}";
},
{
name = top;
position = "{450, 800}";
}
);
components = (
{
name = O;
}
);
layerId = "83004642-28A7-499C-A4A0-A456D2DB2D8A";
paths = (
{
closed = 1;
nodes = (
"850 0 LINE",
"850 100 LINE",
"750 100 LINE",
"750 0 LINE"
);
}
);
width = 900;
},
{
components = (
{
name = O;
}
);
layerId = "99106478-E82A-45B6-ABB4-B34A357236DB";
paths = (
{
closed = 1;
nodes = (
"944 0 LINE",
"944 150 LINE",
"794 150 LINE",
"794 0 LINE"
);
}
);
width = 979;
}
);
leftKerningGroup = O;
rightKerningGroup = O;
unicode = 0051;
},
{
glyphname = R;
lastChange = "2020-03-08 17:51:07 +0000";
layers = (
{
anchors = (
{
name = bottom;
position = "{250, 0}";
},
{
name = top;
position = "{250, 800}";
}
);
layerId = "83004642-28A7-499C-A4A0-A456D2DB2D8A";
paths = (
{
closed = 1;
nodes = (
"150 400 LINE",
"150 700 LINE",
"50 700 LINE",
"50 400 LINE"
);
},
{
closed = 1;
nodes = (
"150 0 LINE",
"150 300 LINE",
"50 300 LINE",
"50 0 LINE"
);
},
{
closed = 1;
nodes = (
"450 0 LINE",
"450 200 LINE",
"350 200 LINE",
"350 0 LINE"
);
},
{
closed = 1;
nodes = (
"250 300 LINE",
"250 400 LINE",
"150 400 LINE",
"150 300 LINE"
);
},
{
closed = 1;
nodes = (
"350 200 LINE",
"350 300 LINE",
"250 300 LINE",
"250 200 LINE"
);
},
{
closed = 1;
nodes = (
"350 400 LINE",
"350 500 LINE",
"250 500 LINE",
"250 400 LINE"
);
},
{
closed = 1;
nodes = (
"350 700 LINE",
"350 800 LINE",
"150 800 LINE",
"150 700 LINE"
);
},
{
closed = 1;
nodes = (
"450 500 LINE",
"450 700 LINE",
"350 700 LINE",
"350 500 LINE"
);
}
);
width = 500;
},
{
anchors = (
{
name = bottom;
position = "{325, 0}";
},
{
name = top;
position = "{325, 800}";
}
);
layerId = "99106478-E82A-45B6-ABB4-B34A357236DB";
paths = (
{
closed = 1;
nodes = (
"200 450 LINE",
"200 700 LINE",
"50 700 LINE",
"50 450 LINE"
);
},
{
closed = 1;
nodes = (
"200 0 LINE",
"200 350 LINE",
"50 350 LINE",
"50 0 LINE"
);
},
{
closed = 1;
nodes = (
"600 0 LINE",
"600 250 LINE",
"450 250 LINE",
"450 0 LINE"
);
},
{
closed = 1;
nodes = (
"300 350 LINE",
"300 450 LINE",
"200 450 LINE",
"200 350 LINE"
);
},
{
closed = 1;
nodes = (
"450 250 LINE",
"450 350 LINE",
"300 350 LINE",
"300 250 LINE"
);
},
{
closed = 1;
nodes = (
"450 450 LINE",
"450 550 LINE",
"300 550 LINE",
"300 450 LINE"
);
},
{
closed = 1;
nodes = (
"450 700 LINE",
"450 800 LINE",
"200 800 LINE",
"200 700 LINE"
);
},
{
closed = 1;
nodes = (
"600 550 LINE",
"600 700 LINE",
"450 700 LINE",
"450 550 LINE"
);
}
);
width = 650;
}
);
leftKerningGroup = FP;
rightKerningGroup = R;
unicode = 0052;
},
{
glyphname = S;
lastChange = "2020-03-08 17:53:21 +0000";
layers = (
{
anchors = (
{
name = bottom;
position = "{250, 0}";
},
{
name = top;
position = "{250, 800}";
}
);
layerId = "83004642-28A7-499C-A4A0-A456D2DB2D8A";
paths = (
{
closed = 1;
nodes = (
"450 700 LINE",
"450 800 LINE",
"150 800 LINE",
"150 700 LINE"
);
},
{
closed = 1;
nodes = (
"350 0 LINE",
"350 100 LINE",
"50 100 LINE",
"50 0 LINE"
);
},
{
closed = 1;
nodes = (
"450 100 LINE",
"450 400 LINE",
"350 400 LINE",
"350 100 LINE"
);
},
{
closed = 1;
nodes = (
"350 400 LINE",
"350 500 LINE",
"150 500 LINE",
"150 400 LINE"
);
},
{
closed = 1;
nodes = (
"150 500 LINE",
"150 700 LINE",
"50 700 LINE",
"50 500 LINE"
);
}
);
width = 500;
},
{
anchors = (
{
name = bottom;
position = "{300, 0}";
},
{
name = top;
position = "{300, 800}";
}
);
layerId = "99106478-E82A-45B6-ABB4-B34A357236DB";
paths = (
{
closed = 1;
nodes = (
"550 650 LINE",
"550 800 LINE",
"200 800 LINE",
"200 650 LINE"
);
},
{
closed = 1;
nodes = (
"400 0 LINE",
"400 150 LINE",
"50 150 LINE",
"50 0 LINE"
);
},
{
closed = 1;
nodes = (
"550 150 LINE",
"550 350 LINE",
"400 350 LINE",
"400 150 LINE"
);
},
{
closed = 1;
nodes = (
"400 350 LINE",
"400 500 LINE",
"200 500 LINE",
"200 350 LINE"
);
},
{
closed = 1;
nodes = (
"200 500 LINE",
"200 650 LINE",
"50 650 LINE",
"50 500 LINE"
);
}
);
width = 600;
}
);
leftKerningGroup = S;
rightKerningGroup = S;
unicode = 0053;
},
{
glyphname = Scedilla;
lastChange = "2020-03-10 19:25:55 +0000";
layers = (
{
anchors = (
{
name = bottom;
position = "{300, -200}";
},
{
name = top;
position = "{250, 800}";
}
);
layerId = "83004642-28A7-499C-A4A0-A456D2DB2D8A";
paths = (
{
closed = 1;
nodes = (
"450 700 LINE",
"450 800 LINE",
"150 800 LINE",
"150 700 LINE"
);
},
{
closed = 1;
nodes = (
"350 -200 LINE",
"350 -100 LINE",
"250 -100 LINE",
"250 -200 LINE"
);
},
{
closed = 1;
nodes = (
"350 0 LINE",
"350 100 LINE",
"50 100 LINE",
"50 0 LINE"
);
},
{
closed = 1;
nodes = (
"450 -100 LINE",
"450 0 LINE",
"350 0 LINE",
"350 -100 LINE"
);
},
{
closed = 1;
nodes = (
"450 100 LINE",
"450 400 LINE",
"350 400 LINE",
"350 100 LINE"
);
},
{
closed = 1;
nodes = (
"150 500 LINE",
"150 700 LINE",
"50 700 LINE",
"50 500 LINE"
);
},
{
closed = 1;
nodes = (
"350 400 LINE",
"350 500 LINE",
"150 500 LINE",
"150 400 LINE"
);
}
);
width = 500;
},
{
anchors = (
{
name = bottom;
position = "{325, -200}";
},
{
name = top;
position = "{290, 800}";
}
);
layerId = "99106478-E82A-45B6-ABB4-B34A357236DB";
paths = (
{
closed = 1;
nodes = (
"565 650 LINE",
"565 800 LINE",
"215 800 LINE",
"215 650 LINE"
);
},
{
closed = 1;
nodes = (
"415 -200 LINE",
"415 -100 LINE",
"265 -100 LINE",
"265 -200 LINE"
);
},
{
closed = 1;
nodes = (
"415 0 LINE",
"415 150 LINE",
"65 150 LINE",
"65 0 LINE"
);
},
{
closed = 1;
nodes = (
"565 -100 LINE",
"565 0 LINE",
"415 0 LINE",
"415 -100 LINE"
);
},
{
closed = 1;
nodes = (
"565 150 LINE",
"565 350 LINE",
"415 350 LINE",
"415 150 LINE"
);
},
{
closed = 1;
nodes = (
"215 500 LINE",
"215 650 LINE",
"65 650 LINE",
"65 500 LINE"
);
},
{
closed = 1;
nodes = (
"415 350 LINE",
"415 500 LINE",
"215 500 LINE",
"215 350 LINE"
);
}
);
width = 630;
}
);
unicode = 015E;
},
{
glyphname = Germandbls;
lastChange = "2020-03-03 14:34:43 +0000";
layers = (
{
layerId = "83004642-28A7-499C-A4A0-A456D2DB2D8A";
paths = (
{
closed = 1;
nodes = (
"150 0 LINE",
"150 700 LINE",
"50 700 LINE",
"50 0 LINE"
);
},
{
closed = 1;
nodes = (
"400 0 LINE",
"400 100 LINE",
"250 100 LINE",
"250 0 LINE"
);
},
{
closed = 1;
nodes = (
"500 100 LINE",
"500 400 LINE",
"400 400 LINE",
"400 100 LINE"
);
},
{
closed = 1;
nodes = (
"400 400 LINE",
"400 500 LINE",
"300 500 LINE",
"300 400 LINE"
);
},
{
closed = 1;
nodes = (
"400 700 LINE",
"400 800 LINE",
"150 800 LINE",
"150 700 LINE"
);
},
{
closed = 1;
nodes = (
"500 500 LINE",
"500 700 LINE",
"400 700 LINE",
"400 500 LINE"
);
}
);
width = 550;
},
{
layerId = "99106478-E82A-45B6-ABB4-B34A357236DB";
paths = (
{
closed = 1;
nodes = (
"215 0 LINE",
"215 650 LINE",
"65 650 LINE",
"65 0 LINE"
);
},
{
closed = 1;
nodes = (
"515 0 LINE",
"515 150 LINE",
"315 150 LINE",
"315 0 LINE"
);
},
{
closed = 1;
nodes = (
"665 150 LINE",
"665 400 LINE",
"515 400 LINE",
"515 150 LINE"
);
},
{
closed = 1;
nodes = (
"515 400 LINE",
"515 500 LINE",
"365 500 LINE",
"365 400 LINE"
);
},
{
closed = 1;
nodes = (
"515 650 LINE",
"515 800 LINE",
"215 800 LINE",
"215 650 LINE"
);
},
{
closed = 1;
nodes = (
"665 500 LINE",
"665 650 LINE",
"515 650 LINE",
"515 500 LINE"
);
}
);
width = 730;
}
);
unicode = 1E9E;
},
{
glyphname = T;
lastChange = "2020-03-08 17:16:15 +0000";
layers = (
{
anchors = (
{
name = bottom;
position = "{250, 0}";
},
{
name = center;
position = "{250, 400}";
},
{
name = top;
position = "{250, 800}";
}
);
layerId = "83004642-28A7-499C-A4A0-A456D2DB2D8A";
paths = (
{
closed = 1;
nodes = (
"300 0 LINE",
"300 700 LINE",
"200 700 LINE",
"200 0 LINE"
);
},
{
closed = 1;
nodes = (
"200 700 LINE",
"200 800 LINE",
"50 800 LINE",
"50 700 LINE"
);
},
{
closed = 1;
nodes = (
"450 700 LINE",
"450 800 LINE",
"300 800 LINE",
"300 700 LINE"
);
}
);
width = 500;
},
{
anchors = (
{
name = bottom;
position = "{310, 0}";
},
{
name = center;
position = "{310, 350}";
},
{
name = top;
position = "{310, 800}";
}
);
layerId = "99106478-E82A-45B6-ABB4-B34A357236DB";
paths = (
{
closed = 1;
nodes = (
"385 0 LINE",
"385 650 LINE",
"235 650 LINE",
"235 0 LINE"
);
},
{
closed = 1;
nodes = (
"235 650 LINE",
"235 800 LINE",
"50 800 LINE",
"50 650 LINE"
);
},
{
closed = 1;
nodes = (
"570 650 LINE",
"570 800 LINE",
"385 800 LINE",
"385 650 LINE"
);
}
);
width = 620;
}
);
leftKerningGroup = T;
rightKerningGroup = T;
unicode = 0054;
},
{
glyphname = Tbar;
lastChange = "2020-03-10 13:55:57 +0000";
layers = (
{
layerId = "83004642-28A7-499C-A4A0-A456D2DB2D8A";
paths = (
{
closed = 1;
nodes = (
"300 0 LINE",
"300 300 LINE",
"200 300 LINE",
"200 0 LINE"
);
},
{
closed = 1;
nodes = (
"300 400 LINE",
"300 700 LINE",
"200 700 LINE",
"200 400 LINE"
);
},
{
closed = 1;
nodes = (
"200 300 LINE",
"200 400 LINE",
"100 400 LINE",
"100 300 LINE"
);
},
{
closed = 1;
nodes = (
"400 300 LINE",
"400 400 LINE",
"300 400 LINE",
"300 300 LINE"
);
},
{
closed = 1;
nodes = (
"200 700 LINE",
"200 800 LINE",
"50 800 LINE",
"50 700 LINE"
);
},
{
closed = 1;
nodes = (
"450 700 LINE",
"450 800 LINE",
"300 800 LINE",
"300 700 LINE"
);
}
);
width = 500;
},
{
layerId = "99106478-E82A-45B6-ABB4-B34A357236DB";
paths = (
{
closed = 1;
nodes = (
"350 0 LINE",
"350 300 LINE",
"200 300 LINE",
"200 0 LINE"
);
},
{
closed = 1;
nodes = (
"350 400 LINE",
"350 650 LINE",
"200 650 LINE",
"200 400 LINE"
);
},
{
closed = 1;
nodes = (
"200 300 LINE",
"200 400 LINE",
"50 400 LINE",
"50 300 LINE"
);
},
{
closed = 1;
nodes = (
"500 300 LINE",
"500 400 LINE",
"350 400 LINE",
"350 300 LINE"
);
},
{
closed = 1;
nodes = (
"200 650 LINE",
"200 800 LINE",
"15 800 LINE",
"15 650 LINE"
);
},
{
closed = 1;
nodes = (
"525 650 LINE",
"525 800 LINE",
"350 800 LINE",
"350 650 LINE"
);
}
);
width = 600;
}
);
unicode = 0166;
},
{
glyphname = U;
lastChange = "2020-03-08 13:07:31 +0000";
layers = (
{
anchors = (
{
name = bottom;
position = "{250, 0}";
},
{
name = ogonek;
position = "{350, 0}";
},
{
name = top;
position = "{250, 800}";
},
{
name = topright;
position = "{480, 800}";
}
);
layerId = "83004642-28A7-499C-A4A0-A456D2DB2D8A";
paths = (
{
closed = 1;
nodes = (
"450 100 LINE",
"450 800 LINE",
"350 800 LINE",
"350 100 LINE"
);
},
{
closed = 1;
nodes = (
"350 0 LINE",
"350 100 LINE",
"150 100 LINE",
"150 0 LINE"
);
},
{
closed = 1;
nodes = (
"150 100 LINE",
"150 800 LINE",
"50 800 LINE",
"50 100 LINE"
);
}
);
width = 500;
},
{
anchors = (
{
name = bottom;
position = "{300, 0}";
},
{
name = ogonek;
position = "{400, 0}";
},
{
name = top;
position = "{300, 800}";
},
{
name = topright;
position = "{595, 800}";
}
);
layerId = "99106478-E82A-45B6-ABB4-B34A357236DB";
paths = (
{
closed = 1;
nodes = (
"550 150 LINE",
"550 800 LINE",
"400 800 LINE",
"400 150 LINE"
);
},
{
closed = 1;
nodes = (
"400 0 LINE",
"400 150 LINE",
"200 150 LINE",
"200 0 LINE"
);
},
{
closed = 1;
nodes = (
"200 150 LINE",
"200 800 LINE",
"50 800 LINE",
"50 150 LINE"
);
}
);
width = 600;
}
);
leftKerningGroup = U;
rightKerningGroup = U;
unicode = 0055;
},
{
glyphname = V;
lastChange = "2020-03-08 17:32:53 +0000";
layers = (
{
anchors = (
{
name = bottom;
position = "{200, 0}";
},
{
name = top;
position = "{200, 800}";
}
);
layerId = "83004642-28A7-499C-A4A0-A456D2DB2D8A";
paths = (
{
closed = 1;
nodes = (
"350 200 LINE",
"350 800 LINE",
"250 800 LINE",
"250 200 LINE"
);
},
{
closed = 1;
nodes = (
"250 0 LINE",
"250 200 LINE",
"150 200 LINE",
"150 0 LINE"
);
},
{
closed = 1;
nodes = (
"150 200 LINE",
"150 800 LINE",
"50 800 LINE",
"50 200 LINE"
);
}
);
width = 400;
},
{
anchors = (
{
name = bottom;
position = "{275, 0}";
},
{
name = top;
position = "{275, 800}";
}
);
layerId = "99106478-E82A-45B6-ABB4-B34A357236DB";
paths = (
{
closed = 1;
nodes = (
"500 300 LINE",
"500 800 LINE",
"350 800 LINE",
"350 300 LINE"
);
},
{
closed = 1;
nodes = (
"350 0 LINE",
"350 300 LINE",
"200 300 LINE",
"200 0 LINE"
);
},
{
closed = 1;
nodes = (
"200 300 LINE",
"200 800 LINE",
"50 800 LINE",
"50 300 LINE"
);
}
);
width = 550;
}
);
leftKerningGroup = VW;
rightKerningGroup = VW;
unicode = 0056;
},
{
glyphname = W;
lastChange = "2020-03-08 17:06:09 +0000";
layers = (
{
anchors = (
{
name = bottom;
position = "{300, 0}";
},
{
name = top;
position = "{300, 800}";
}
);
layerId = "83004642-28A7-499C-A4A0-A456D2DB2D8A";
paths = (
{
closed = 1;
nodes = (
"550 200 LINE",
"550 800 LINE",
"450 800 LINE",
"450 200 LINE"
);
},
{
closed = 1;
nodes = (
"250 0 LINE",
"250 200 LINE",
"150 200 LINE",
"150 0 LINE"
);
},
{
closed = 1;
nodes = (
"450 0 LINE",
"450 200 LINE",
"350 200 LINE",
"350 0 LINE"
);
},
{
closed = 1;
nodes = (
"150 200 LINE",
"150 800 LINE",
"50 800 LINE",
"50 200 LINE"
);
},
{
closed = 1;
nodes = (
"350 200 LINE",
"350 800 LINE",
"250 800 LINE",
"250 200 LINE"
);
}
);
width = 600;
},
{
anchors = (
{
name = bottom;
position = "{350, 0}";
},
{
name = top;
position = "{350, 800}";
}
);
layerId = "99106478-E82A-45B6-ABB4-B34A357236DB";
paths = (
{
closed = 1;
nodes = (
"650 300 LINE",
"650 800 LINE",
"500 800 LINE",
"500 300 LINE"
);
},
{
closed = 1;
nodes = (
"300 0 LINE",
"300 300 LINE",
"200 300 LINE",
"200 0 LINE"
);
},
{
closed = 1;
nodes = (
"500 0 LINE",
"500 300 LINE",
"400 300 LINE",
"400 0 LINE"
);
},
{
closed = 1;
nodes = (
"200 300 LINE",
"200 800 LINE",
"50 800 LINE",
"50 300 LINE"
);
},
{
closed = 1;
nodes = (
"400 300 LINE",
"400 800 LINE",
"300 800 LINE",
"300 300 LINE"
);
}
);
width = 700;
}
);
leftKerningGroup = VW;
rightKerningGroup = VW;
unicode = 0057;
},
{
glyphname = X;
lastChange = "2020-03-08 17:33:13 +0000";
layers = (
{
anchors = (
{
name = bottom;
position = "{200, 0}";
},
{
name = top;
position = "{200, 800}";
}
);
layerId = "83004642-28A7-499C-A4A0-A456D2DB2D8A";
paths = (
{
closed = 1;
nodes = (
"350 500 LINE",
"350 800 LINE",
"250 800 LINE",
"250 500 LINE"
);
},
{
closed = 1;
nodes = (
"150 0 LINE",
"150 300 LINE",
"50 300 LINE",
"50 0 LINE"
);
},
{
closed = 1;
nodes = (
"350 0 LINE",
"350 300 LINE",
"250 300 LINE",
"250 0 LINE"
);
},
{
closed = 1;
nodes = (
"250 300 LINE",
"250 500 LINE",
"150 500 LINE",
"150 300 LINE"
);
},
{
closed = 1;
nodes = (
"150 500 LINE",
"150 800 LINE",
"50 800 LINE",
"50 500 LINE"
);
}
);
width = 400;
},
{
anchors = (
{
name = bottom;
position = "{275, 0}";
},
{
name = top;
position = "{275, 800}";
}
);
layerId = "99106478-E82A-45B6-ABB4-B34A357236DB";
paths = (
{
closed = 1;
nodes = (
"500 500 LINE",
"500 800 LINE",
"350 800 LINE",
"350 500 LINE"
);
},
{
closed = 1;
nodes = (
"200 0 LINE",
"200 300 LINE",
"50 300 LINE",
"50 0 LINE"
);
},
{
closed = 1;
nodes = (
"500 0 LINE",
"500 300 LINE",
"350 300 LINE",
"350 0 LINE"
);
},
{
closed = 1;
nodes = (
"350 300 LINE",
"350 500 LINE",
"200 500 LINE",
"200 300 LINE"
);
},
{
closed = 1;
nodes = (
"200 500 LINE",
"200 800 LINE",
"50 800 LINE",
"50 500 LINE"
);
}
);
width = 550;
}
);
unicode = 0058;
},
{
glyphname = Y;
lastChange = "2020-03-08 17:44:33 +0000";
layers = (
{
anchors = (
{
name = bottom;
position = "{250, 0}";
},
{
name = top;
position = "{250, 800}";
},
{
name = topleft;
position = "{20, 800}";
}
);
layerId = "83004642-28A7-499C-A4A0-A456D2DB2D8A";
paths = (
{
closed = 1;
nodes = (
"450 400 LINE",
"450 800 LINE",
"350 800 LINE",
"350 400 LINE"
);
},
{
closed = 1;
nodes = (
"350 0 LINE",
"350 100 LINE",
"50 100 LINE",
"50 0 LINE"
);
},
{
closed = 1;
nodes = (
"350 300 LINE",
"350 400 LINE",
"150 400 LINE",
"150 300 LINE"
);
},
{
closed = 1;
nodes = (
"450 100 LINE",
"450 300 LINE",
"350 300 LINE",
"350 100 LINE"
);
},
{
closed = 1;
nodes = (
"150 400 LINE",
"150 800 LINE",
"50 800 LINE",
"50 400 LINE"
);
}
);
width = 500;
},
{
associatedMasterId = "83004642-28A7-499C-A4A0-A456D2DB2D8A";
layerId = "64031BA7-CF35-49C2-AAC1-8A11AFD2B692";
name = "Jan 21 20, 15:17";
paths = (
{
closed = 1;
nodes = (
"50 400 LINE",
"150 400 LINE",
"150 900 LINE",
"50 900 LINE"
);
},
{
closed = 1;
nodes = (
"150 0 LINE",
"250 0 LINE",
"250 400 LINE",
"150 400 LINE"
);
},
{
closed = 1;
nodes = (
"250 400 LINE",
"350 400 LINE",
"350 900 LINE",
"250 900 LINE"
);
}
);
width = 400;
},
{
anchors = (
{
name = bottom;
position = "{300, 0}";
},
{
name = top;
position = "{300, 800}";
},
{
name = topleft;
position = "{50, 800}";
}
);
layerId = "99106478-E82A-45B6-ABB4-B34A357236DB";
paths = (
{
closed = 1;
nodes = (
"550 450 LINE",
"550 800 LINE",
"400 800 LINE",
"400 450 LINE"
);
},
{
closed = 1;
nodes = (
"400 0 LINE",
"400 150 LINE",
"50 150 LINE",
"50 0 LINE"
);
},
{
closed = 1;
nodes = (
"400 300 LINE",
"400 450 LINE",
"200 450 LINE",
"200 300 LINE"
);
},
{
closed = 1;
nodes = (
"550 150 LINE",
"550 300 LINE",
"400 300 LINE",
"400 150 LINE"
);
},
{
closed = 1;
nodes = (
"200 450 LINE",
"200 800 LINE",
"50 800 LINE",
"50 450 LINE"
);
}
);
width = 600;
}
);
leftKerningGroup = Y;
rightKerningGroup = Y;
unicode = 0059;
},
{
glyphname = Z;
lastChange = "2020-03-10 19:02:16 +0000";
layers = (
{
anchors = (
{
name = bottom;
position = "{250, 0}";
},
{
name = center;
position = "{250, 400}";
},
{
name = top;
position = "{250, 800}";
}
);
layerId = "83004642-28A7-499C-A4A0-A456D2DB2D8A";
paths = (
{
closed = 1;
nodes = (
"350 700 LINE",
"350 800 LINE",
"50 800 LINE",
"50 700 LINE"
);
},
{
closed = 1;
nodes = (
"150 100 LINE",
"150 250 LINE",
"50 250 LINE",
"50 100 LINE"
);
},
{
closed = 1;
nodes = (
"450 0 LINE",
"450 100 LINE",
"150 100 LINE",
"150 0 LINE"
);
},
{
closed = 1;
nodes = (
"250 250 LINE",
"250 400 LINE",
"150 400 LINE",
"150 250 LINE"
);
},
{
closed = 1;
nodes = (
"350 400 LINE",
"350 550 LINE",
"250 550 LINE",
"250 400 LINE"
);
},
{
closed = 1;
nodes = (
"450 550 LINE",
"450 700 LINE",
"350 700 LINE",
"350 550 LINE"
);
}
);
width = 500;
},
{
anchors = (
{
name = bottom;
position = "{200, 0}";
},
{
name = center;
position = "{200, 400}";
},
{
name = top;
position = "{200, 800}";
}
);
associatedMasterId = "83004642-28A7-499C-A4A0-A456D2DB2D8A";
layerId = "2876D5C5-1DCC-467D-B7B9-D118DA02B467";
name = "Regular [101]";
paths = (
{
closed = 1;
nodes = (
"250 700 LINE",
"250 800 LINE",
"50 800 LINE",
"50 700 LINE"
);
},
{
closed = 1;
nodes = (
"250 500 LINE",
"150 500 LINE",
"150 300 LINE",
"250 300 LINE"
);
},
{
closed = 1;
nodes = (
"350 700 LINE",
"250 700 LINE",
"250 500 LINE",
"350 500 LINE"
);
},
{
closed = 1;
nodes = (
"150 100 LINE",
"150 300 LINE",
"50 300 LINE",
"50 100 LINE"
);
},
{
closed = 1;
nodes = (
"350 0 LINE",
"350 100 LINE",
"150 100 LINE",
"150 0 LINE"
);
}
);
width = 400;
},
{
anchors = (
{
name = bottom;
position = "{300, 0}";
},
{
name = center;
position = "{300, 400}";
},
{
name = top;
position = "{300, 800}";
}
);
layerId = "99106478-E82A-45B6-ABB4-B34A357236DB";
paths = (
{
closed = 1;
nodes = (
"400 650 LINE",
"400 800 LINE",
"50 800 LINE",
"50 650 LINE"
);
},
{
closed = 1;
nodes = (
"200 150 LINE",
"200 300 LINE",
"50 300 LINE",
"50 150 LINE"
);
},
{
closed = 1;
nodes = (
"550 0 LINE",
"550 150 LINE",
"200 150 LINE",
"200 0 LINE"
);
},
{
closed = 1;
nodes = (
"300 300 LINE",
"300 400 LINE",
"200 400 LINE",
"200 300 LINE"
);
},
{
closed = 1;
nodes = (
"400 400 LINE",
"400 500 LINE",
"300 500 LINE",
"300 400 LINE"
);
},
{
closed = 1;
nodes = (
"550 500 LINE",
"550 650 LINE",
"400 650 LINE",
"400 500 LINE"
);
}
);
width = 600;
},
{
anchors = (
{
name = bottom;
position = "{275, 0}";
},
{
name = center;
position = "{275, 400}";
},
{
name = top;
position = "{275, 800}";
}
);
associatedMasterId = "99106478-E82A-45B6-ABB4-B34A357236DB";
layerId = "23C86258-FA34-472F-8F72-BEEC502EF650";
name = "Bold [101]";
paths = (
{
closed = 1;
nodes = (
"350 650 LINE",
"350 800 LINE",
"50 800 LINE",
"50 650 LINE"
);
},
{
closed = 1;
nodes = (
"350 500 LINE",
"200 500 LINE",
"200 300 LINE",
"350 300 LINE"
);
},
{
closed = 1;
nodes = (
"500 650 LINE",
"350 650 LINE",
"350 500 LINE",
"500 500 LINE"
);
},
{
closed = 1;
nodes = (
"200 150 LINE",
"200 300 LINE",
"50 300 LINE",
"50 150 LINE"
);
},
{
closed = 1;
nodes = (
"500 0 LINE",
"500 150 LINE",
"200 150 LINE",
"200 0 LINE"
);
}
);
width = 550;
}
);
leftKerningGroup = Z;
rightKerningGroup = Z;
unicode = 005A;
},
{
glyphname = Zacute;
lastChange = "2020-03-11 12:40:44 +0000";
layers = (
{
anchors = (
{
name = bottom;
position = "{250, 0}";
},
{
name = center;
position = "{250, 400}";
},
{
name = top;
position = "{250, 800}";
}
);
components = (
{
name = acutecomb;
transform = "{1, 0, 0, 1, 150, 300}";
}
);
layerId = "83004642-28A7-499C-A4A0-A456D2DB2D8A";
paths = (
{
closed = 1;
nodes = (
"350 700 LINE",
"350 800 LINE",
"50 800 LINE",
"50 700 LINE"
);
},
{
closed = 1;
nodes = (
"150 100 LINE",
"150 250 LINE",
"50 250 LINE",
"50 100 LINE"
);
},
{
closed = 1;
nodes = (
"450 0 LINE",
"450 100 LINE",
"150 100 LINE",
"150 0 LINE"
);
},
{
closed = 1;
nodes = (
"250 250 LINE",
"250 400 LINE",
"150 400 LINE",
"150 250 LINE"
);
},
{
closed = 1;
nodes = (
"350 400 LINE",
"350 550 LINE",
"250 550 LINE",
"250 400 LINE"
);
},
{
closed = 1;
nodes = (
"450 550 LINE",
"450 700 LINE",
"350 700 LINE",
"350 550 LINE"
);
}
);
width = 500;
},
{
anchors = (
{
name = bottom;
position = "{300, 0}";
},
{
name = center;
position = "{300, 400}";
},
{
name = top;
position = "{300, 800}";
}
);
components = (
{
name = acutecomb;
transform = "{1, 0, 0, 1, 188, 300}";
}
);
layerId = "99106478-E82A-45B6-ABB4-B34A357236DB";
paths = (
{
closed = 1;
nodes = (
"400 650 LINE",
"400 800 LINE",
"50 800 LINE",
"50 650 LINE"
);
},
{
closed = 1;
nodes = (
"200 150 LINE",
"200 300 LINE",
"50 300 LINE",
"50 150 LINE"
);
},
{
closed = 1;
nodes = (
"550 0 LINE",
"550 150 LINE",
"200 150 LINE",
"200 0 LINE"
);
},
{
closed = 1;
nodes = (
"300 300 LINE",
"300 400 LINE",
"200 400 LINE",
"200 300 LINE"
);
},
{
closed = 1;
nodes = (
"400 400 LINE",
"400 500 LINE",
"300 500 LINE",
"300 400 LINE"
);
},
{
closed = 1;
nodes = (
"550 500 LINE",
"550 650 LINE",
"400 650 LINE",
"400 500 LINE"
);
}
);
width = 600;
},
{
anchors = (
{
name = bottom;
position = "{200, 0}";
},
{
name = center;
position = "{200, 400}";
},
{
name = top;
position = "{200, 800}";
}
);
associatedMasterId = "83004642-28A7-499C-A4A0-A456D2DB2D8A";
components = (
{
name = acutecomb;
transform = "{1, 0, 0, 1, 100, 300}";
}
);
layerId = "950F230C-D211-464D-ACAA-9AA8CC71EBAD";
name = "Regular [101]";
paths = (
{
closed = 1;
nodes = (
"250 700 LINE",
"250 800 LINE",
"50 800 LINE",
"50 700 LINE"
);
},
{
closed = 1;
nodes = (
"250 500 LINE",
"150 500 LINE",
"150 300 LINE",
"250 300 LINE"
);
},
{
closed = 1;
nodes = (
"350 700 LINE",
"250 700 LINE",
"250 500 LINE",
"350 500 LINE"
);
},
{
closed = 1;
nodes = (
"150 100 LINE",
"150 300 LINE",
"50 300 LINE",
"50 100 LINE"
);
},
{
closed = 1;
nodes = (
"350 0 LINE",
"350 100 LINE",
"150 100 LINE",
"150 0 LINE"
);
}
);
width = 400;
},
{
anchors = (
{
name = bottom;
position = "{275, 0}";
},
{
name = center;
position = "{275, 400}";
},
{
name = top;
position = "{275, 800}";
}
);
associatedMasterId = "99106478-E82A-45B6-ABB4-B34A357236DB";
components = (
{
name = acutecomb;
transform = "{1, 0, 0, 1, 163, 300}";
}
);
layerId = "E9CF5497-3AA7-4183-8CDE-934143590BF4";
name = "Bold [101]";
paths = (
{
closed = 1;
nodes = (
"350 650 LINE",
"350 800 LINE",
"50 800 LINE",
"50 650 LINE"
);
},
{
closed = 1;
nodes = (
"350 500 LINE",
"200 500 LINE",
"200 300 LINE",
"350 300 LINE"
);
},
{
closed = 1;
nodes = (
"500 650 LINE",
"350 650 LINE",
"350 500 LINE",
"500 500 LINE"
);
},
{
closed = 1;
nodes = (
"200 150 LINE",
"200 300 LINE",
"50 300 LINE",
"50 150 LINE"
);
},
{
closed = 1;
nodes = (
"500 0 LINE",
"500 150 LINE",
"200 150 LINE",
"200 0 LINE"
);
}
);
width = 550;
}
);
leftKerningGroup = Z;
rightKerningGroup = Z;
unicode = 0179;
},
{
glyphname = Zcaron;
lastChange = "2020-03-11 12:42:48 +0000";
layers = (
{
anchors = (
{
name = bottom;
position = "{250, 0}";
},
{
name = center;
position = "{250, 400}";
},
{
name = top;
position = "{250, 800}";
}
);
components = (
{
name = caroncomb;
transform = "{1, 0, 0, 1, 50, 300}";
}
);
layerId = "83004642-28A7-499C-A4A0-A456D2DB2D8A";
paths = (
{
closed = 1;
nodes = (
"350 700 LINE",
"350 800 LINE",
"50 800 LINE",
"50 700 LINE"
);
},
{
closed = 1;
nodes = (
"150 100 LINE",
"150 250 LINE",
"50 250 LINE",
"50 100 LINE"
);
},
{
closed = 1;
nodes = (
"450 0 LINE",
"450 100 LINE",
"150 100 LINE",
"150 0 LINE"
);
},
{
closed = 1;
nodes = (
"250 250 LINE",
"250 400 LINE",
"150 400 LINE",
"150 250 LINE"
);
},
{
closed = 1;
nodes = (
"350 400 LINE",
"350 550 LINE",
"250 550 LINE",
"250 400 LINE"
);
},
{
closed = 1;
nodes = (
"450 550 LINE",
"450 700 LINE",
"350 700 LINE",
"350 550 LINE"
);
}
);
width = 500;
},
{
anchors = (
{
name = bottom;
position = "{300, 0}";
},
{
name = center;
position = "{300, 400}";
},
{
name = top;
position = "{300, 800}";
}
);
components = (
{
name = caroncomb;
transform = "{1, 0, 0, 1, 25, 300}";
}
);
layerId = "99106478-E82A-45B6-ABB4-B34A357236DB";
paths = (
{
closed = 1;
nodes = (
"400 650 LINE",
"400 800 LINE",
"50 800 LINE",
"50 650 LINE"
);
},
{
closed = 1;
nodes = (
"200 150 LINE",
"200 300 LINE",
"50 300 LINE",
"50 150 LINE"
);
},
{
closed = 1;
nodes = (
"550 0 LINE",
"550 150 LINE",
"200 150 LINE",
"200 0 LINE"
);
},
{
closed = 1;
nodes = (
"300 300 LINE",
"300 400 LINE",
"200 400 LINE",
"200 300 LINE"
);
},
{
closed = 1;
nodes = (
"400 400 LINE",
"400 500 LINE",
"300 500 LINE",
"300 400 LINE"
);
},
{
closed = 1;
nodes = (
"550 500 LINE",
"550 650 LINE",
"400 650 LINE",
"400 500 LINE"
);
}
);
width = 600;
},
{
anchors = (
{
name = bottom;
position = "{200, 0}";
},
{
name = center;
position = "{200, 400}";
},
{
name = top;
position = "{200, 800}";
}
);
associatedMasterId = "83004642-28A7-499C-A4A0-A456D2DB2D8A";
components = (
{
name = caroncomb;
transform = "{1, 0, 0, 1, 0, 300}";
}
);
layerId = "515AE65B-ECEF-4B91-B387-C7F2BB8615C4";
name = "Regular [101]";
paths = (
{
closed = 1;
nodes = (
"250 700 LINE",
"250 800 LINE",
"50 800 LINE",
"50 700 LINE"
);
},
{
closed = 1;
nodes = (
"250 500 LINE",
"150 500 LINE",
"150 300 LINE",
"250 300 LINE"
);
},
{
closed = 1;
nodes = (
"350 700 LINE",
"250 700 LINE",
"250 500 LINE",
"350 500 LINE"
);
},
{
closed = 1;
nodes = (
"150 100 LINE",
"150 300 LINE",
"50 300 LINE",
"50 100 LINE"
);
},
{
closed = 1;
nodes = (
"350 0 LINE",
"350 100 LINE",
"150 100 LINE",
"150 0 LINE"
);
}
);
width = 400;
},
{
anchors = (
{
name = bottom;
position = "{275, 0}";
},
{
name = center;
position = "{275, 400}";
},
{
name = top;
position = "{275, 800}";
}
);
associatedMasterId = "99106478-E82A-45B6-ABB4-B34A357236DB";
components = (
{
name = caroncomb;
transform = "{1, 0, 0, 1, 0, 300}";
}
);
layerId = "D253899E-1585-473F-9E29-FC1135167DB2";
name = "Bold [101]";
paths = (
{
closed = 1;
nodes = (
"350 650 LINE",
"350 800 LINE",
"50 800 LINE",
"50 650 LINE"
);
},
{
closed = 1;
nodes = (
"350 500 LINE",
"200 500 LINE",
"200 300 LINE",
"350 300 LINE"
);
},
{
closed = 1;
nodes = (
"500 650 LINE",
"350 650 LINE",
"350 500 LINE",
"500 500 LINE"
);
},
{
closed = 1;
nodes = (
"200 150 LINE",
"200 300 LINE",
"50 300 LINE",
"50 150 LINE"
);
},
{
closed = 1;
nodes = (
"500 0 LINE",
"500 150 LINE",
"200 150 LINE",
"200 0 LINE"
);
}
);
width = 550;
}
);
leftKerningGroup = Z;
rightKerningGroup = Z;
unicode = 017D;
},
{
glyphname = Zdotaccent;
lastChange = "2020-03-11 12:43:14 +0000";
layers = (
{
anchors = (
{
name = bottom;
position = "{250, 0}";
},
{
name = center;
position = "{250, 400}";
},
{
name = top;
position = "{250, 800}";
}
);
components = (
{
name = dotaccentcomb;
transform = "{1, 0, 0, 1, 150, 300}";
}
);
layerId = "83004642-28A7-499C-A4A0-A456D2DB2D8A";
paths = (
{
closed = 1;
nodes = (
"350 700 LINE",
"350 800 LINE",
"50 800 LINE",
"50 700 LINE"
);
},
{
closed = 1;
nodes = (
"150 100 LINE",
"150 250 LINE",
"50 250 LINE",
"50 100 LINE"
);
},
{
closed = 1;
nodes = (
"450 0 LINE",
"450 100 LINE",
"150 100 LINE",
"150 0 LINE"
);
},
{
closed = 1;
nodes = (
"250 250 LINE",
"250 400 LINE",
"150 400 LINE",
"150 250 LINE"
);
},
{
closed = 1;
nodes = (
"350 400 LINE",
"350 550 LINE",
"250 550 LINE",
"250 400 LINE"
);
},
{
closed = 1;
nodes = (
"450 550 LINE",
"450 700 LINE",
"350 700 LINE",
"350 550 LINE"
);
}
);
width = 500;
},
{
anchors = (
{
name = bottom;
position = "{300, 0}";
},
{
name = center;
position = "{300, 400}";
},
{
name = top;
position = "{300, 800}";
}
);
components = (
{
name = dotaccentcomb;
transform = "{1, 0, 0, 1, 175, 300}";
}
);
layerId = "99106478-E82A-45B6-ABB4-B34A357236DB";
paths = (
{
closed = 1;
nodes = (
"400 650 LINE",
"400 800 LINE",
"50 800 LINE",
"50 650 LINE"
);
},
{
closed = 1;
nodes = (
"200 150 LINE",
"200 300 LINE",
"50 300 LINE",
"50 150 LINE"
);
},
{
closed = 1;
nodes = (
"550 0 LINE",
"550 150 LINE",
"200 150 LINE",
"200 0 LINE"
);
},
{
closed = 1;
nodes = (
"300 300 LINE",
"300 400 LINE",
"200 400 LINE",
"200 300 LINE"
);
},
{
closed = 1;
nodes = (
"400 400 LINE",
"400 500 LINE",
"300 500 LINE",
"300 400 LINE"
);
},
{
closed = 1;
nodes = (
"550 500 LINE",
"550 650 LINE",
"400 650 LINE",
"400 500 LINE"
);
}
);
width = 600;
},
{
anchors = (
{
name = bottom;
position = "{200, 0}";
},
{
name = center;
position = "{200, 400}";
},
{
name = top;
position = "{200, 800}";
}
);
associatedMasterId = "83004642-28A7-499C-A4A0-A456D2DB2D8A";
components = (
{
name = dotaccentcomb;
transform = "{1, 0, 0, 1, 100, 300}";
}
);
layerId = "33045F4D-A418-41A9-A1CC-5EB02B3E18CA";
name = "Regular [101]";
paths = (
{
closed = 1;
nodes = (
"250 700 LINE",
"250 800 LINE",
"50 800 LINE",
"50 700 LINE"
);
},
{
closed = 1;
nodes = (
"250 500 LINE",
"150 500 LINE",
"150 300 LINE",
"250 300 LINE"
);
},
{
closed = 1;
nodes = (
"350 700 LINE",
"250 700 LINE",
"250 500 LINE",
"350 500 LINE"
);
},
{
closed = 1;
nodes = (
"150 100 LINE",
"150 300 LINE",
"50 300 LINE",
"50 100 LINE"
);
},
{
closed = 1;
nodes = (
"350 0 LINE",
"350 100 LINE",
"150 100 LINE",
"150 0 LINE"
);
}
);
width = 400;
},
{
anchors = (
{
name = bottom;
position = "{275, 0}";
},
{
name = center;
position = "{275, 400}";
},
{
name = top;
position = "{275, 800}";
}
);
associatedMasterId = "99106478-E82A-45B6-ABB4-B34A357236DB";
components = (
{
name = dotaccentcomb;
transform = "{1, 0, 0, 1, 150, 300}";
}
);
layerId = "2CEF1351-CB62-4EC5-9ED2-2AEDEDAC196F";
name = "Bold [101]";
paths = (
{
closed = 1;
nodes = (
"350 650 LINE",
"350 800 LINE",
"50 800 LINE",
"50 650 LINE"
);
},
{
closed = 1;
nodes = (
"350 500 LINE",
"200 500 LINE",
"200 300 LINE",
"350 300 LINE"
);
},
{
closed = 1;
nodes = (
"500 650 LINE",
"350 650 LINE",
"350 500 LINE",
"500 500 LINE"
);
},
{
closed = 1;
nodes = (
"200 150 LINE",
"200 300 LINE",
"50 300 LINE",
"50 150 LINE"
);
},
{
closed = 1;
nodes = (
"500 0 LINE",
"500 150 LINE",
"200 150 LINE",
"200 0 LINE"
);
}
);
width = 550;
}
);
leftKerningGroup = Z;
rightKerningGroup = Z;
unicode = 017B;
},
{
glyphname = a;
lastChange = "2020-03-08 17:27:30 +0000";
layers = (
{
anchors = (
{
name = bottom;
position = "{251, 0}";
},
{
name = ogonek;
position = "{451, 0}";
},
{
name = top;
position = "{251, 500}";
}
);
guideLines = (
{
position = "{-39, 400}";
},
{
angle = 90;
position = "{-239, 200}";
}
);
layerId = "83004642-28A7-499C-A4A0-A456D2DB2D8A";
paths = (
{
closed = 1;
nodes = (
"280 -8 OFFCURVE",
"351 63 OFFCURVE",
"351 150 CURVE SMOOTH",
"351 236 OFFCURVE",
"280 308 OFFCURVE",
"193 308 CURVE SMOOTH",
"105 308 OFFCURVE",
"35 236 OFFCURVE",
"35 150 CURVE SMOOTH",
"35 63 OFFCURVE",
"105 -8 OFFCURVE",
"193 -8 CURVE SMOOTH"
);
},
{
closed = 1;
nodes = (
"451 0 LINE",
"451 400 LINE",
"351 400 LINE",
"351 0 LINE"
);
},
{
closed = 1;
nodes = (
"351 400 LINE",
"351 500 LINE",
"151 500 LINE",
"151 400 LINE"
);
}
);
width = 501;
},
{
anchors = (
{
name = bottom;
position = "{281, 0}";
},
{
name = ogonek;
position = "{501, 0}";
},
{
name = top;
position = "{277, 500}";
}
);
layerId = "99106478-E82A-45B6-ABB4-B34A357236DB";
paths = (
{
closed = 1;
nodes = (
"280 -8 OFFCURVE",
"351 63 OFFCURVE",
"351 150 CURVE SMOOTH",
"351 236 OFFCURVE",
"280 308 OFFCURVE",
"193 308 CURVE SMOOTH",
"105 308 OFFCURVE",
"35 236 OFFCURVE",
"35 150 CURVE SMOOTH",
"35 63 OFFCURVE",
"105 -8 OFFCURVE",
"193 -8 CURVE SMOOTH"
);
},
{
closed = 1;
nodes = (
"501 0 LINE",
"501 350 LINE",
"351 350 LINE",
"351 0 LINE"
);
},
{
closed = 1;
nodes = (
"351 350 LINE",
"351 500 LINE",
"101 500 LINE",
"101 350 LINE"
);
}
);
width = 551;
}
);
leftKerningGroup = a;
rightKerningGroup = a;
unicode = 0061;
},
{
glyphname = aogonek;
lastChange = "2020-03-03 14:34:43 +0000";
layers = (
{
components = (
{
alignment = -1;
name = a;
}
);
layerId = "83004642-28A7-499C-A4A0-A456D2DB2D8A";
paths = (
{
closed = 1;
nodes = (
"451 -200 LINE",
"451 -100 LINE",
"351 -100 LINE",
"351 -200 LINE"
);
},
{
closed = 1;
nodes = (
"351 -100 LINE",
"351 0 LINE",
"251 0 LINE",
"251 -100 LINE"
);
}
);
width = 501;
},
{
components = (
{
alignment = -1;
name = a;
}
);
layerId = "99106478-E82A-45B6-ABB4-B34A357236DB";
paths = (
{
closed = 1;
nodes = (
"501 -200 LINE",
"501 -100 LINE",
"351 -100 LINE",
"351 -200 LINE"
);
},
{
closed = 1;
nodes = (
"351 -100 LINE",
"351 0 LINE",
"251 0 LINE",
"251 -100 LINE"
);
}
);
width = 551;
}
);
leftKerningGroup = a;
rightKerningGroup = a;
unicode = 0105;
},
{
glyphname = ae;
lastChange = "2020-03-10 13:44:38 +0000";
layers = (
{
anchors = (
{
name = bottom;
position = "{401, 0}";
},
{
name = top;
position = "{401, 500}";
}
);
layerId = "83004642-28A7-499C-A4A0-A456D2DB2D8A";
paths = (
{
closed = 1;
nodes = (
"695 192 OFFCURVE",
"766 263 OFFCURVE",
"766 350 CURVE SMOOTH",
"766 436 OFFCURVE",
"695 508 OFFCURVE",
"608 508 CURVE SMOOTH",
"520 508 OFFCURVE",
"450 436 OFFCURVE",
"450 350 CURVE SMOOTH",
"450 263 OFFCURVE",
"520 192 OFFCURVE",
"608 192 CURVE SMOOTH"
);
},
{
closed = 1;
nodes = (
"280 -8 OFFCURVE",
"351 63 OFFCURVE",
"351 150 CURVE SMOOTH",
"351 236 OFFCURVE",
"280 308 OFFCURVE",
"193 308 CURVE SMOOTH",
"105 308 OFFCURVE",
"35 236 OFFCURVE",
"35 150 CURVE SMOOTH",
"35 63 OFFCURVE",
"105 -8 OFFCURVE",
"193 -8 CURVE SMOOTH"
);
},
{
closed = 1;
nodes = (
"351 400 LINE",
"351 500 LINE",
"151 500 LINE",
"151 400 LINE"
);
},
{
closed = 1;
nodes = (
"450 100 LINE",
"450 400 LINE",
"350 400 LINE",
"350 100 LINE"
);
},
{
closed = 1;
nodes = (
"750 0 LINE",
"750 100 LINE",
"450 100 LINE",
"450 0 LINE"
);
}
);
width = 801;
},
{
anchors = (
{
name = bottom;
position = "{426, 0}";
},
{
name = top;
position = "{426, 500}";
}
);
layerId = "99106478-E82A-45B6-ABB4-B34A357236DB";
paths = (
{
closed = 1;
nodes = (
"745 192 OFFCURVE",
"816 263 OFFCURVE",
"816 350 CURVE SMOOTH",
"816 436 OFFCURVE",
"745 508 OFFCURVE",
"658 508 CURVE SMOOTH",
"570 508 OFFCURVE",
"500 436 OFFCURVE",
"500 350 CURVE SMOOTH",
"500 263 OFFCURVE",
"570 192 OFFCURVE",
"658 192 CURVE SMOOTH"
);
},
{
closed = 1;
nodes = (
"280 -8 OFFCURVE",
"351 63 OFFCURVE",
"351 150 CURVE SMOOTH",
"351 236 OFFCURVE",
"280 308 OFFCURVE",
"193 308 CURVE SMOOTH",
"105 308 OFFCURVE",
"35 236 OFFCURVE",
"35 150 CURVE SMOOTH",
"35 63 OFFCURVE",
"105 -8 OFFCURVE",
"193 -8 CURVE SMOOTH"
);
},
{
closed = 1;
nodes = (
"351 350 LINE",
"351 500 LINE",
"101 500 LINE",
"101 350 LINE"
);
},
{
closed = 1;
nodes = (
"500 150 LINE",
"500 350 LINE",
"350 350 LINE",
"350 150 LINE"
);
},
{
closed = 1;
nodes = (
"800 0 LINE",
"800 150 LINE",
"500 150 LINE",
"500 0 LINE"
);
}
);
width = 851;
}
);
leftKerningGroup = a;
rightKerningGroup = e;
unicode = 00E6;
},
{
glyphname = b;
lastChange = "2020-03-08 18:08:38 +0000";
layers = (
{
anchors = (
{
name = bottom;
position = "{250, 0}";
},
{
name = top;
position = "{100, 700}";
}
);
layerId = "83004642-28A7-499C-A4A0-A456D2DB2D8A";
paths = (
{
closed = 1;
nodes = (
"450 100 LINE",
"450 400 LINE",
"350 400 LINE",
"350 100 LINE"
);
},
{
closed = 1;
nodes = (
"350 0 LINE",
"350 100 LINE",
"150 100 LINE",
"150 0 LINE"
);
},
{
closed = 1;
nodes = (
"150 100 LINE",
"150 400 LINE",
"50 400 LINE",
"50 100 LINE"
);
},
{
closed = 1;
nodes = (
"350 400 LINE",
"350 500 LINE",
"150 500 LINE",
"150 400 LINE"
);
},
{
closed = 1;
nodes = (
"150 500 LINE",
"150 700 LINE",
"50 700 LINE",
"50 500 LINE"
);
}
);
width = 500;
},
{
anchors = (
{
name = bottom;
position = "{300, 0}";
},
{
name = top;
position = "{125, 700}";
}
);
layerId = "99106478-E82A-45B6-ABB4-B34A357236DB";
paths = (
{
closed = 1;
nodes = (
"550 150 LINE",
"550 400 LINE",
"400 400 LINE",
"400 150 LINE"
);
},
{
closed = 1;
nodes = (
"400 0 LINE",
"400 150 LINE",
"200 150 LINE",
"200 0 LINE"
);
},
{
closed = 1;
nodes = (
"200 150 LINE",
"200 400 LINE",
"50 400 LINE",
"50 150 LINE"
);
},
{
closed = 1;
nodes = (
"400 400 LINE",
"400 500 LINE",
"200 500 LINE",
"200 400 LINE"
);
},
{
closed = 1;
nodes = (
"200 500 LINE",
"200 700 LINE",
"50 700 LINE",
"50 500 LINE"
);
}
);
width = 600;
}
);
rightKerningGroup = bp;
unicode = 0062;
},
{
glyphname = c;
lastChange = "2020-03-10 14:05:37 +0000";
layers = (
{
anchors = (
{
name = bottom;
position = "{200, 0}";
},
{
name = top;
position = "{275, 500}";
}
);
layerId = "83004642-28A7-499C-A4A0-A456D2DB2D8A";
paths = (
{
closed = 1;
nodes = (
"150 100 LINE",
"150 400 LINE",
"50 400 LINE",
"50 100 LINE"
);
},
{
closed = 1;
nodes = (
"400 0 LINE",
"400 100 LINE",
"150 100 LINE",
"150 0 LINE"
);
},
{
closed = 1;
nodes = (
"400 400 LINE",
"400 500 LINE",
"150 500 LINE",
"150 400 LINE"
);
}
);
width = 450;
},
{
anchors = (
{
name = bottom;
position = "{275, 0}";
},
{
name = top;
position = "{325, 500}";
}
);
layerId = "99106478-E82A-45B6-ABB4-B34A357236DB";
paths = (
{
closed = 1;
nodes = (
"200 150 LINE",
"200 350 LINE",
"50 350 LINE",
"50 150 LINE"
);
},
{
closed = 1;
nodes = (
"450 0 LINE",
"450 150 LINE",
"200 150 LINE",
"200 0 LINE"
);
},
{
closed = 1;
nodes = (
"450 350 LINE",
"450 500 LINE",
"200 500 LINE",
"200 350 LINE"
);
}
);
width = 500;
}
);
leftKerningGroup = c;
rightKerningGroup = c;
unicode = 0063;
},
{
glyphname = cacute;
lastChange = "2020-03-10 13:50:57 +0000";
layers = (
{
layerId = "83004642-28A7-499C-A4A0-A456D2DB2D8A";
paths = (
{
closed = 1;
nodes = (
"400 400 LINE",
"400 500 LINE",
"150 500 LINE",
"150 400 LINE"
);
},
{
closed = 1;
nodes = (
"150 100 LINE",
"150 400 LINE",
"50 400 LINE",
"50 100 LINE"
);
},
{
closed = 1;
nodes = (
"400 0 LINE",
"400 100 LINE",
"150 100 LINE",
"150 0 LINE"
);
},
{
closed = 1;
nodes = (
"250 600 LINE",
"250 700 LINE",
"150 700 LINE",
"150 600 LINE"
);
},
{
closed = 1;
nodes = (
"350 700 LINE",
"350 800 LINE",
"250 800 LINE",
"250 700 LINE"
);
}
);
width = 450;
},
{
layerId = "99106478-E82A-45B6-ABB4-B34A357236DB";
paths = (
{
closed = 1;
nodes = (
"450 350 LINE",
"450 500 LINE",
"200 500 LINE",
"200 350 LINE"
);
},
{
closed = 1;
nodes = (
"200 150 LINE",
"200 350 LINE",
"50 350 LINE",
"50 150 LINE"
);
},
{
closed = 1;
nodes = (
"450 0 LINE",
"450 150 LINE",
"200 150 LINE",
"200 0 LINE"
);
},
{
closed = 1;
nodes = (
"350 600 LINE",
"350 700 LINE",
"200 700 LINE",
"200 600 LINE"
);
},
{
closed = 1;
nodes = (
"500 700 LINE",
"500 800 LINE",
"350 800 LINE",
"350 700 LINE"
);
}
);
width = 500;
}
);
leftKerningGroup = c;
rightKerningGroup = c;
unicode = 0107;
},
{
glyphname = ccedilla;
lastChange = "2020-03-10 13:45:09 +0000";
layers = (
{
anchors = (
{
name = bottom;
position = "{200, -200}";
},
{
name = top;
position = "{200, 500}";
}
);
layerId = "83004642-28A7-499C-A4A0-A456D2DB2D8A";
paths = (
{
closed = 1;
nodes = (
"150 100 LINE",
"150 400 LINE",
"50 400 LINE",
"50 100 LINE"
);
},
{
closed = 1;
nodes = (
"400 400 LINE",
"400 500 LINE",
"150 500 LINE",
"150 400 LINE"
);
},
{
closed = 1;
nodes = (
"300 0 LINE",
"300 100 LINE",
"150 100 LINE",
"150 0 LINE"
);
},
{
closed = 1;
nodes = (
"400 -100 LINE",
"400 0 LINE",
"300 0 LINE",
"300 -100 LINE"
);
},
{
closed = 1;
nodes = (
"300 -200 LINE",
"300 -100 LINE",
"200 -100 LINE",
"200 -200 LINE"
);
}
);
width = 450;
},
{
anchors = (
{
name = bottom;
position = "{250, -200}";
},
{
name = top;
position = "{250, 500}";
}
);
layerId = "99106478-E82A-45B6-ABB4-B34A357236DB";
paths = (
{
closed = 1;
nodes = (
"200 150 LINE",
"200 350 LINE",
"50 350 LINE",
"50 150 LINE"
);
},
{
closed = 1;
nodes = (
"450 350 LINE",
"450 500 LINE",
"200 500 LINE",
"200 350 LINE"
);
},
{
closed = 1;
nodes = (
"400 0 LINE",
"400 150 LINE",
"200 150 LINE",
"200 0 LINE"
);
},
{
closed = 1;
nodes = (
"550 -100 LINE",
"550 0 LINE",
"400 0 LINE",
"400 -100 LINE"
);
},
{
closed = 1;
nodes = (
"400 -200 LINE",
"400 -100 LINE",
"250 -100 LINE",
"250 -200 LINE"
);
}
);
width = 550;
}
);
leftKerningGroup = c;
rightKerningGroup = c;
unicode = 00E7;
},
{
glyphname = eth;
lastChange = "2020-03-10 13:49:33 +0000";
layers = (
{
layerId = "83004642-28A7-499C-A4A0-A456D2DB2D8A";
paths = (
{
closed = 1;
nodes = (
"450 100 LINE",
"450 400 LINE",
"350 400 LINE",
"350 100 LINE"
);
},
{
closed = 1;
nodes = (
"350 0 LINE",
"350 100 LINE",
"150 100 LINE",
"150 0 LINE"
);
},
{
closed = 1;
nodes = (
"150 100 LINE",
"150 400 LINE",
"50 400 LINE",
"50 100 LINE"
);
},
{
closed = 1;
nodes = (
"350 400 LINE",
"350 500 LINE",
"150 500 LINE",
"150 400 LINE"
);
},
{
closed = 1;
nodes = (
"250 600 LINE",
"250 700 LINE",
"150 700 LINE",
"150 600 LINE"
);
},
{
closed = 1;
nodes = (
"450 500 LINE",
"450 700 LINE",
"350 700 LINE",
"350 500 LINE"
);
},
{
closed = 1;
nodes = (
"250 800 LINE",
"250 900 LINE",
"150 900 LINE",
"150 800 LINE"
);
},
{
closed = 1;
nodes = (
"350 700 LINE",
"350 800 LINE",
"250 800 LINE",
"250 700 LINE"
);
},
{
closed = 1;
nodes = (
"450 800 LINE",
"450 900 LINE",
"350 900 LINE",
"350 800 LINE"
);
}
);
width = 500;
},
{
layerId = "99106478-E82A-45B6-ABB4-B34A357236DB";
paths = (
{
closed = 1;
nodes = (
"550 150 LINE",
"550 400 LINE",
"400 400 LINE",
"400 150 LINE"
);
},
{
closed = 1;
nodes = (
"400 0 LINE",
"400 150 LINE",
"200 150 LINE",
"200 0 LINE"
);
},
{
closed = 1;
nodes = (
"200 150 LINE",
"200 400 LINE",
"50 400 LINE",
"50 150 LINE"
);
},
{
closed = 1;
nodes = (
"400 400 LINE",
"400 500 LINE",
"200 500 LINE",
"200 400 LINE"
);
},
{
closed = 1;
nodes = (
"250 600 LINE",
"250 700 LINE",
"100 700 LINE",
"100 600 LINE"
);
},
{
closed = 1;
nodes = (
"550 500 LINE",
"550 700 LINE",
"400 700 LINE",
"400 500 LINE"
);
},
{
closed = 1;
nodes = (
"250 800 LINE",
"250 900 LINE",
"100 900 LINE",
"100 800 LINE"
);
},
{
closed = 1;
nodes = (
"400 700 LINE",
"400 800 LINE",
"250 800 LINE",
"250 700 LINE"
);
},
{
closed = 1;
nodes = (
"550 800 LINE",
"550 900 LINE",
"400 900 LINE",
"400 800 LINE"
);
}
);
width = 600;
}
);
unicode = 00F0;
},
{
glyphname = dcaron;
lastChange = "2020-03-08 17:35:50 +0000";
layers = (
{
components = (
{
name = d;
}
);
layerId = "83004642-28A7-499C-A4A0-A456D2DB2D8A";
paths = (
{
closed = 1;
nodes = (
"600 500 LINE",
"600 700 LINE",
"500 700 LINE",
"500 500 LINE"
);
}
);
width = 600;
},
{
components = (
{
name = d;
}
);
layerId = "99106478-E82A-45B6-ABB4-B34A357236DB";
paths = (
{
closed = 1;
nodes = (
"700 450 LINE",
"700 700 LINE",
"600 700 LINE",
"600 450 LINE"
);
}
);
width = 705;
}
);
unicode = 010F;
},
{
glyphname = dcroat;
lastChange = "2020-03-08 17:37:29 +0000";
layers = (
{
layerId = "83004642-28A7-499C-A4A0-A456D2DB2D8A";
paths = (
{
closed = 1;
nodes = (
"450 100 LINE",
"450 400 LINE",
"350 400 LINE",
"350 100 LINE"
);
},
{
closed = 1;
nodes = (
"350 0 LINE",
"350 100 LINE",
"150 100 LINE",
"150 0 LINE"
);
},
{
closed = 1;
nodes = (
"150 100 LINE",
"150 400 LINE",
"50 400 LINE",
"50 100 LINE"
);
},
{
closed = 1;
nodes = (
"350 400 LINE",
"350 500 LINE",
"150 500 LINE",
"150 400 LINE"
);
},
{
closed = 1;
nodes = (
"350 600 LINE",
"350 700 LINE",
"150 700 LINE",
"150 600 LINE"
);
},
{
closed = 1;
nodes = (
"450 500 LINE",
"450 600 LINE",
"350 600 LINE",
"350 500 LINE"
);
},
{
closed = 1;
nodes = (
"450 700 LINE",
"450 800 LINE",
"350 800 LINE",
"350 700 LINE"
);
},
{
closed = 1;
nodes = (
"550 600 LINE",
"550 700 LINE",
"450 700 LINE",
"450 600 LINE"
);
}
);
width = 550;
},
{
layerId = "99106478-E82A-45B6-ABB4-B34A357236DB";
paths = (
{
closed = 1;
nodes = (
"525 150 LINE",
"525 400 LINE",
"375 400 LINE",
"375 150 LINE"
);
},
{
closed = 1;
nodes = (
"375 0 LINE",
"375 150 LINE",
"175 150 LINE",
"175 0 LINE"
);
},
{
closed = 1;
nodes = (
"175 150 LINE",
"175 400 LINE",
"25 400 LINE",
"25 150 LINE"
);
},
{
closed = 1;
nodes = (
"375 400 LINE",
"375 500 LINE",
"175 500 LINE",
"175 400 LINE"
);
},
{
closed = 1;
nodes = (
"375 600 LINE",
"375 700 LINE",
"175 700 LINE",
"175 600 LINE"
);
},
{
closed = 1;
nodes = (
"525 500 LINE",
"525 600 LINE",
"375 600 LINE",
"375 500 LINE"
);
},
{
closed = 1;
nodes = (
"525 700 LINE",
"525 800 LINE",
"375 800 LINE",
"375 700 LINE"
);
},
{
closed = 1;
nodes = (
"675 600 LINE",
"675 700 LINE",
"525 700 LINE",
"525 600 LINE"
);
}
);
width = 675;
}
);
unicode = 0111;
},
{
glyphname = e;
lastChange = "2020-03-08 17:38:41 +0000";
layers = (
{
anchors = (
{
name = bottom;
position = "{251, 0}";
},
{
name = ogonek;
position = "{450, 0}";
},
{
name = top;
position = "{308, 500}";
}
);
layerId = "83004642-28A7-499C-A4A0-A456D2DB2D8A";
paths = (
{
closed = 1;
nodes = (
"395 192 OFFCURVE",
"466 263 OFFCURVE",
"466 350 CURVE SMOOTH",
"466 436 OFFCURVE",
"395 508 OFFCURVE",
"308 508 CURVE SMOOTH",
"220 508 OFFCURVE",
"150 436 OFFCURVE",
"150 350 CURVE SMOOTH",
"150 263 OFFCURVE",
"220 192 OFFCURVE",
"308 192 CURVE SMOOTH"
);
},
{
closed = 1;
nodes = (
"150 100 LINE",
"150 350 LINE",
"50 350 LINE",
"50 100 LINE"
);
},
{
closed = 1;
nodes = (
"450 0 LINE",
"450 100 LINE",
"150 100 LINE",
"150 0 LINE"
);
}
);
width = 501;
},
{
anchors = (
{
name = bottom;
position = "{301, 0}";
},
{
name = ogonek;
position = "{500, 0}";
},
{
name = top;
position = "{358, 500}";
}
);
layerId = "99106478-E82A-45B6-ABB4-B34A357236DB";
paths = (
{
closed = 1;
nodes = (
"445 192 OFFCURVE",
"516 263 OFFCURVE",
"516 350 CURVE SMOOTH",
"516 436 OFFCURVE",
"445 508 OFFCURVE",
"358 508 CURVE SMOOTH",
"270 508 OFFCURVE",
"200 436 OFFCURVE",
"200 350 CURVE SMOOTH",
"200 263 OFFCURVE",
"270 192 OFFCURVE",
"358 192 CURVE SMOOTH"
);
},
{
closed = 1;
nodes = (
"200 150 LINE",
"200 350 LINE",
"50 350 LINE",
"50 150 LINE"
);
},
{
closed = 1;
nodes = (
"500 0 LINE",
"500 150 LINE",
"200 150 LINE",
"200 0 LINE"
);
}
);
width = 551;
}
);
leftKerningGroup = e;
rightKerningGroup = e;
unicode = 0065;
},
{
glyphname = eogonek;
lastChange = "2020-03-08 17:38:56 +0000";
layers = (
{
layerId = "83004642-28A7-499C-A4A0-A456D2DB2D8A";
paths = (
{
closed = 1;
nodes = (
"395 192 OFFCURVE",
"466 263 OFFCURVE",
"466 350 CURVE SMOOTH",
"466 436 OFFCURVE",
"395 508 OFFCURVE",
"308 508 CURVE SMOOTH",
"220 508 OFFCURVE",
"150 436 OFFCURVE",
"150 350 CURVE SMOOTH",
"150 263 OFFCURVE",
"220 192 OFFCURVE",
"308 192 CURVE SMOOTH"
);
},
{
closed = 1;
nodes = (
"350 -200 LINE",
"350 -100 LINE",
"250 -100 LINE",
"250 -200 LINE"
);
},
{
closed = 1;
nodes = (
"450 -300 LINE",
"450 -200 LINE",
"350 -200 LINE",
"350 -300 LINE"
);
},
{
closed = 1;
nodes = (
"350 0 LINE",
"350 100 LINE",
"150 100 LINE",
"150 0 LINE"
);
},
{
closed = 1;
nodes = (
"150 100 LINE",
"150 350 LINE",
"50 350 LINE",
"50 100 LINE"
);
},
{
closed = 1;
nodes = (
"450 -100 LINE",
"450 0 LINE",
"350 0 LINE",
"350 -100 LINE"
);
}
);
width = 501;
},
{
layerId = "99106478-E82A-45B6-ABB4-B34A357236DB";
paths = (
{
closed = 1;
nodes = (
"445 192 OFFCURVE",
"516 263 OFFCURVE",
"516 350 CURVE SMOOTH",
"516 436 OFFCURVE",
"445 508 OFFCURVE",
"358 508 CURVE SMOOTH",
"270 508 OFFCURVE",
"200 436 OFFCURVE",
"200 350 CURVE SMOOTH",
"200 263 OFFCURVE",
"270 192 OFFCURVE",
"358 192 CURVE SMOOTH"
);
},
{
closed = 1;
nodes = (
"400 -200 LINE",
"400 -100 LINE",
"250 -100 LINE",
"250 -200 LINE"
);
},
{
closed = 1;
nodes = (
"550 -300 LINE",
"550 -200 LINE",
"400 -200 LINE",
"400 -300 LINE"
);
},
{
closed = 1;
nodes = (
"400 0 LINE",
"400 150 LINE",
"200 150 LINE",
"200 0 LINE"
);
},
{
closed = 1;
nodes = (
"200 150 LINE",
"200 350 LINE",
"50 350 LINE",
"50 150 LINE"
);
},
{
closed = 1;
nodes = (
"550 -100 LINE",
"550 0 LINE",
"400 0 LINE",
"400 -100 LINE"
);
}
);
width = 585;
}
);
leftKerningGroup = e;
rightKerningGroup = e;
unicode = 0119;
},
{
glyphname = f;
lastChange = "2020-03-08 17:38:15 +0000";
layers = (
{
layerId = "83004642-28A7-499C-A4A0-A456D2DB2D8A";
paths = (
{
closed = 1;
nodes = (
"150 0 LINE",
"150 400 LINE",
"50 400 LINE",
"50 0 LINE"
);
},
{
closed = 1;
nodes = (
"150 500 LINE",
"150 600 LINE",
"50 600 LINE",
"50 500 LINE"
);
},
{
closed = 1;
nodes = (
"350 400 LINE",
"350 500 LINE",
"150 500 LINE",
"150 400 LINE"
);
},
{
closed = 1;
nodes = (
"350 600 LINE",
"350 700 LINE",
"150 700 LINE",
"150 600 LINE"
);
}
);
width = 350;
},
{
layerId = "99106478-E82A-45B6-ABB4-B34A357236DB";
paths = (
{
closed = 1;
nodes = (
"200 0 LINE",
"200 350 LINE",
"50 350 LINE",
"50 0 LINE"
);
},
{
closed = 1;
nodes = (
"200 450 LINE",
"200 550 LINE",
"50 550 LINE",
"50 450 LINE"
);
},
{
closed = 1;
nodes = (
"400 350 LINE",
"400 450 LINE",
"200 450 LINE",
"200 350 LINE"
);
},
{
closed = 1;
nodes = (
"400 550 LINE",
"400 700 LINE",
"200 700 LINE",
"200 550 LINE"
);
}
);
width = 435;
}
);
rightKerningGroup = f;
unicode = 0066;
},
{
glyphname = g;
lastChange = "2020-03-08 17:12:08 +0000";
layers = (
{
anchors = (
{
name = bottom;
position = "{275, -200}";
},
{
name = top;
position = "{305, 500}";
}
);
layerId = "83004642-28A7-499C-A4A0-A456D2DB2D8A";
paths = (
{
closed = 1;
nodes = (
"390 195 OFFCURVE",
"460 265 OFFCURVE",
"460 350 CURVE SMOOTH",
"460 434 OFFCURVE",
"390 505 OFFCURVE",
"305 505 CURVE SMOOTH",
"219 505 OFFCURVE",
"150 434 OFFCURVE",
"150 350 CURVE SMOOTH",
"150 265 OFFCURVE",
"219 195 OFFCURVE",
"305 195 CURVE SMOOTH"
);
},
{
closed = 1;
nodes = (
"450 -100 LINE",
"150 -98 LINE",
"150 -198 LINE",
"450 -200 LINE"
);
},
{
closed = 1;
nodes = (
"150 100 LINE",
"150 350 LINE",
"50 350 LINE",
"50 100 LINE"
);
},
{
closed = 1;
nodes = (
"450 0 LINE",
"450 100 LINE",
"150 100 LINE",
"150 0 LINE"
);
},
{
closed = 1;
nodes = (
"550 -100 LINE",
"550 0 LINE",
"450 0 LINE",
"450 -100 LINE"
);
},
{
closed = 1;
nodes = (
"550 400 LINE",
"550 500 LINE",
"450 500 LINE",
"450 400 LINE"
);
}
);
width = 550;
},
{
anchors = (
{
name = bottom;
position = "{355, -200}";
},
{
name = top;
position = "{355, 500}";
}
);
layerId = "99106478-E82A-45B6-ABB4-B34A357236DB";
paths = (
{
closed = 1;
nodes = (
"440 195 OFFCURVE",
"510 265 OFFCURVE",
"510 350 CURVE SMOOTH",
"510 434 OFFCURVE",
"440 505 OFFCURVE",
"355 505 CURVE SMOOTH",
"269 505 OFFCURVE",
"200 434 OFFCURVE",
"200 350 CURVE SMOOTH",
"200 265 OFFCURVE",
"269 195 OFFCURVE",
"355 195 CURVE SMOOTH"
);
},
{
closed = 1;
nodes = (
"500 -100 LINE",
"200 -98 LINE",
"200 -198 LINE",
"500 -200 LINE"
);
},
{
closed = 1;
nodes = (
"200 150 LINE",
"200 350 LINE",
"50 350 LINE",
"50 150 LINE"
);
},
{
closed = 1;
nodes = (
"500 0 LINE",
"500 150 LINE",
"200 150 LINE",
"200 0 LINE"
);
},
{
closed = 1;
nodes = (
"600 -100 LINE",
"600 0 LINE",
"500 0 LINE",
"500 -100 LINE"
);
},
{
closed = 1;
nodes = (
"600 400 LINE",
"600 550 LINE",
"500 550 LINE",
"500 400 LINE"
);
}
);
width = 635;
}
);
leftKerningGroup = g;
rightKerningGroup = g;
unicode = 0067;
},
{
glyphname = h;
lastChange = "2020-03-08 18:05:15 +0000";
layers = (
{
anchors = (
{
name = bottom;
position = "{200, 0}";
},
{
name = center;
position = "{200, 400}";
},
{
name = top;
position = "{200, 700}";
}
);
layerId = "83004642-28A7-499C-A4A0-A456D2DB2D8A";
paths = (
{
closed = 1;
nodes = (
"350 0 LINE",
"350 400 LINE",
"250 400 LINE",
"250 0 LINE"
);
},
{
closed = 1;
nodes = (
"150 0 LINE",
"150 400 LINE",
"50 400 LINE",
"50 0 LINE"
);
},
{
closed = 1;
nodes = (
"250 400 LINE",
"250 500 LINE",
"150 500 LINE",
"150 400 LINE"
);
},
{
closed = 1;
nodes = (
"150 500 LINE",
"150 700 LINE",
"50 700 LINE",
"50 500 LINE"
);
}
);
width = 400;
},
{
anchors = (
{
name = bottom;
position = "{275, 0}";
},
{
name = center;
position = "{275, 400}";
},
{
name = top;
position = "{275, 700}";
}
);
layerId = "99106478-E82A-45B6-ABB4-B34A357236DB";
paths = (
{
closed = 1;
nodes = (
"500 0 LINE",
"500 400 LINE",
"350 400 LINE",
"350 0 LINE"
);
},
{
closed = 1;
nodes = (
"200 0 LINE",
"200 400 LINE",
"50 400 LINE",
"50 0 LINE"
);
},
{
closed = 1;
nodes = (
"350 400 LINE",
"350 500 LINE",
"200 500 LINE",
"200 400 LINE"
);
},
{
closed = 1;
nodes = (
"200 500 LINE",
"200 700 LINE",
"50 700 LINE",
"50 500 LINE"
);
}
);
width = 550;
}
);
leftKerningGroup = h;
rightKerningGroup = mn;
unicode = 0068;
},
{
glyphname = hbar;
lastChange = "2020-03-10 13:45:27 +0000";
layers = (
{
layerId = "83004642-28A7-499C-A4A0-A456D2DB2D8A";
paths = (
{
closed = 1;
nodes = (
"400 0 LINE",
"400 400 LINE",
"300 400 LINE",
"300 0 LINE"
);
},
{
closed = 1;
nodes = (
"200 0 LINE",
"200 400 LINE",
"100 400 LINE",
"100 0 LINE"
);
},
{
closed = 1;
nodes = (
"100 600 LINE",
"100 700 LINE",
"0 700 LINE",
"0 600 LINE"
);
},
{
closed = 1;
nodes = (
"200 500 LINE",
"200 600 LINE",
"100 600 LINE",
"100 500 LINE"
);
},
{
closed = 1;
nodes = (
"300 400 LINE",
"300 500 LINE",
"200 500 LINE",
"200 400 LINE"
);
},
{
closed = 1;
nodes = (
"200 700 LINE",
"200 800 LINE",
"100 800 LINE",
"100 700 LINE"
);
},
{
closed = 1;
nodes = (
"400 600 LINE",
"400 700 LINE",
"200 700 LINE",
"200 600 LINE"
);
}
);
width = 450;
},
{
layerId = "99106478-E82A-45B6-ABB4-B34A357236DB";
paths = (
{
closed = 1;
nodes = (
"550 0 LINE",
"550 400 LINE",
"400 400 LINE",
"400 0 LINE"
);
},
{
closed = 1;
nodes = (
"250 0 LINE",
"250 400 LINE",
"100 400 LINE",
"100 0 LINE"
);
},
{
closed = 1;
nodes = (
"100 600 LINE",
"100 700 LINE",
"0 700 LINE",
"0 600 LINE"
);
},
{
closed = 1;
nodes = (
"250 500 LINE",
"250 600 LINE",
"100 600 LINE",
"100 500 LINE"
);
},
{
closed = 1;
nodes = (
"400 400 LINE",
"400 500 LINE",
"250 500 LINE",
"250 400 LINE"
);
},
{
closed = 1;
nodes = (
"250 700 LINE",
"250 800 LINE",
"100 800 LINE",
"100 700 LINE"
);
},
{
closed = 1;
nodes = (
"450 600 LINE",
"450 700 LINE",
"250 700 LINE",
"250 600 LINE"
);
}
);
width = 600;
}
);
leftKerningGroup = hbar;
unicode = 0127;
},
{
glyphname = idotless;
lastChange = "2020-03-10 14:08:03 +0000";
layers = (
{
anchors = (
{
name = bottom;
position = "{115, 0}";
},
{
name = ogonek;
position = "{165, 0}";
},
{
name = top;
position = "{115, 400}";
}
);
layerId = "83004642-28A7-499C-A4A0-A456D2DB2D8A";
paths = (
{
closed = 1;
nodes = (
"165 0 LINE",
"165 400 LINE",
"65 400 LINE",
"65 0 LINE"
);
}
);
width = 230;
},
{
anchors = (
{
name = bottom;
position = "{140, 0}";
},
{
name = ogonek;
position = "{215, 0}";
},
{
name = top;
position = "{140, 400}";
}
);
layerId = "99106478-E82A-45B6-ABB4-B34A357236DB";
paths = (
{
closed = 1;
nodes = (
"215 0 LINE",
"215 400 LINE",
"65 400 LINE",
"65 0 LINE"
);
}
);
width = 280;
}
);
unicode = 0131;
},
{
glyphname = j;
lastChange = "2020-03-08 15:59:31 +0000";
layers = (
{
layerId = "83004642-28A7-499C-A4A0-A456D2DB2D8A";
paths = (
{
closed = 1;
nodes = (
"150 -100 LINE",
"150 400 LINE",
"50 400 LINE",
"50 -100 LINE"
);
},
{
closed = 1;
nodes = (
"50 -200 LINE",
"50 -100 LINE",
"-50 -100 LINE",
"-50 -200 LINE"
);
},
{
closed = 1;
nodes = (
"150 500 LINE",
"150 600 LINE",
"50 600 LINE",
"50 500 LINE"
);
}
);
width = 200;
},
{
layerId = "99106478-E82A-45B6-ABB4-B34A357236DB";
paths = (
{
closed = 1;
nodes = (
"200 -50 LINE",
"200 400 LINE",
"50 400 LINE",
"50 -50 LINE"
);
},
{
closed = 1;
nodes = (
"50 -200 LINE",
"50 -50 LINE",
"-100 -50 LINE",
"-100 -200 LINE"
);
},
{
closed = 1;
nodes = (
"200 500 LINE",
"200 650 LINE",
"50 650 LINE",
"50 500 LINE"
);
}
);
width = 250;
}
);
unicode = 006A;
},
{
glyphname = k;
lastChange = "2020-03-08 18:11:16 +0000";
layers = (
{
anchors = (
{
name = bottom;
position = "{200, 0}";
},
{
name = top;
position = "{200, 800}";
}
);
layerId = "83004642-28A7-499C-A4A0-A456D2DB2D8A";
paths = (
{
closed = 1;
nodes = (
"150 350 LINE",
"150 650 LINE",
"50 650 LINE",
"50 350 LINE"
);
},
{
closed = 1;
nodes = (
"150 0 LINE",
"150 250 LINE",
"50 250 LINE",
"50 0 LINE"
);
},
{
closed = 1;
nodes = (
"350 0 LINE",
"350 250 LINE",
"250 250 LINE",
"250 0 LINE"
);
},
{
closed = 1;
nodes = (
"250 250 LINE",
"250 350 LINE",
"150 350 LINE",
"150 250 LINE"
);
},
{
closed = 1;
nodes = (
"350 350 LINE",
"350 500 LINE",
"250 500 LINE",
"250 350 LINE"
);
}
);
width = 400;
},
{
anchors = (
{
name = bottom;
position = "{275, 0}";
},
{
name = top;
position = "{275, 650}";
}
);
layerId = "99106478-E82A-45B6-ABB4-B34A357236DB";
paths = (
{
closed = 1;
nodes = (
"200 325 LINE",
"200 675 LINE",
"50 675 LINE",
"50 325 LINE"
);
},
{
closed = 1;
nodes = (
"200 0 LINE",
"200 175 LINE",
"50 175 LINE",
"50 0 LINE"
);
},
{
closed = 1;
nodes = (
"500 0 LINE",
"500 175 LINE",
"350 175 LINE",
"350 0 LINE"
);
},
{
closed = 1;
nodes = (
"350 175 LINE",
"350 325 LINE",
"200 325 LINE",
"200 175 LINE"
);
},
{
closed = 1;
nodes = (
"500 325 LINE",
"500 500 LINE",
"350 500 LINE",
"350 325 LINE"
);
}
);
width = 550;
}
);
leftKerningGroup = k;
rightKerningGroup = k;
unicode = 006B;
},
{
glyphname = l;
lastChange = "2020-03-08 17:28:06 +0000";
layers = (
{
anchors = (
{
name = bottom;
position = "{200, 0}";
},
{
name = center;
position = "{175, 400}";
},
{
name = top;
position = "{100, 700}";
},
{
name = topright;
position = "{250, 500}";
}
);
layerId = "83004642-28A7-499C-A4A0-A456D2DB2D8A";
paths = (
{
closed = 1;
nodes = (
"150 100 LINE",
"150 700 LINE",
"50 700 LINE",
"50 100 LINE"
);
},
{
closed = 1;
nodes = (
"350 0 LINE",
"350 100 LINE",
"150 100 LINE",
"150 0 LINE"
);
}
);
width = 350;
},
{
anchors = (
{
name = bottom;
position = "{200, 0}";
},
{
name = center;
position = "{200, 400}";
},
{
name = top;
position = "{200, 800}";
},
{
name = topright;
position = "{300, 500}";
}
);
layerId = "99106478-E82A-45B6-ABB4-B34A357236DB";
paths = (
{
closed = 1;
nodes = (
"200 150 LINE",
"200 700 LINE",
"50 700 LINE",
"50 150 LINE"
);
},
{
closed = 1;
nodes = (
"400 0 LINE",
"400 150 LINE",
"200 150 LINE",
"200 0 LINE"
);
}
);
width = 400;
}
);
rightKerningGroup = L;
unicode = 006C;
},
{
glyphname = lslash;
lastChange = "2020-03-04 21:59:39 +0000";
layers = (
{
layerId = "83004642-28A7-499C-A4A0-A456D2DB2D8A";
paths = (
{
closed = 1;
nodes = (
"400 0 LINE",
"400 100 LINE",
"200 100 LINE",
"200 0 LINE"
);
},
{
closed = 1;
nodes = (
"200 100 LINE",
"200 250 LINE",
"100 250 LINE",
"100 100 LINE"
);
},
{
closed = 1;
nodes = (
"100 250 LINE",
"100 350 LINE",
"0 350 LINE",
"0 250 LINE"
);
},
{
closed = 1;
nodes = (
"200 350 LINE",
"200 450 LINE",
"100 450 LINE",
"100 350 LINE"
);
},
{
closed = 1;
nodes = (
"300 450 LINE",
"300 550 LINE",
"200 550 LINE",
"200 450 LINE"
);
},
{
closed = 1;
nodes = (
"200 550 LINE",
"200 700 LINE",
"100 700 LINE",
"100 550 LINE"
);
},
{
closed = 1;
nodes = (
"400 550 LINE",
"400 650 LINE",
"300 650 LINE",
"300 550 LINE"
);
}
);
width = 450;
},
{
layerId = "99106478-E82A-45B6-ABB4-B34A357236DB";
paths = (
{
closed = 1;
nodes = (
"450 0 LINE",
"450 150 LINE",
"250 150 LINE",
"250 0 LINE"
);
},
{
closed = 1;
nodes = (
"250 150 LINE",
"250 250 LINE",
"100 250 LINE",
"100 150 LINE"
);
},
{
closed = 1;
nodes = (
"100 250 LINE",
"100 350 LINE",
"-50 350 LINE",
"-50 250 LINE"
);
},
{
closed = 1;
nodes = (
"250 350 LINE",
"250 450 LINE",
"100 450 LINE",
"100 350 LINE"
);
},
{
closed = 1;
nodes = (
"400 450 LINE",
"400 550 LINE",
"250 550 LINE",
"250 450 LINE"
);
},
{
closed = 1;
nodes = (
"250 550 LINE",
"250 700 LINE",
"100 700 LINE",
"100 550 LINE"
);
},
{
closed = 1;
nodes = (
"550 550 LINE",
"550 650 LINE",
"400 650 LINE",
"400 550 LINE"
);
}
);
width = 500;
}
);
unicode = 0142;
},
{
glyphname = m;
lastChange = "2020-03-08 17:39:46 +0000";
layers = (
{
anchors = (
{
name = bottom;
position = "{350, 0}";
},
{
name = top;
position = "{350, 500}";
}
);
layerId = "83004642-28A7-499C-A4A0-A456D2DB2D8A";
paths = (
{
closed = 1;
nodes = (
"600 0 LINE",
"600 400 LINE",
"500 400 LINE",
"500 0 LINE"
);
},
{
closed = 1;
nodes = (
"200 0 LINE",
"200 400 LINE",
"100 400 LINE",
"100 0 LINE"
);
},
{
closed = 1;
nodes = (
"100 400 LINE",
"100 500 LINE",
"0 500 LINE",
"0 400 LINE"
);
},
{
closed = 1;
nodes = (
"400 0 LINE",
"400 400 LINE",
"300 400 LINE",
"300 0 LINE"
);
},
{
closed = 1;
nodes = (
"300 400 LINE",
"300 500 LINE",
"200 500 LINE",
"200 400 LINE"
);
},
{
closed = 1;
nodes = (
"500 400 LINE",
"500 500 LINE",
"400 500 LINE",
"400 400 LINE"
);
}
);
width = 650;
},
{
anchors = (
{
name = bottom;
position = "{400, 0}";
},
{
name = top;
position = "{400, 500}";
}
);
layerId = "99106478-E82A-45B6-ABB4-B34A357236DB";
paths = (
{
closed = 1;
nodes = (
"700 0 LINE",
"700 350 LINE",
"550 350 LINE",
"550 0 LINE"
);
},
{
closed = 1;
nodes = (
"250 0 LINE",
"250 350 LINE",
"100 350 LINE",
"100 0 LINE"
);
},
{
closed = 1;
nodes = (
"100 350 LINE",
"100 500 LINE",
"0 500 LINE",
"0 350 LINE"
);
},
{
closed = 1;
nodes = (
"450 0 LINE",
"450 350 LINE",
"350 350 LINE",
"350 0 LINE"
);
},
{
closed = 1;
nodes = (
"350 350 LINE",
"350 500 LINE",
"250 500 LINE",
"250 350 LINE"
);
},
{
closed = 1;
nodes = (
"550 350 LINE",
"550 500 LINE",
"450 500 LINE",
"450 350 LINE"
);
}
);
width = 750;
}
);
leftKerningGroup = mn;
rightKerningGroup = mn;
unicode = 006D;
},
{
glyphname = n;
lastChange = "2020-03-10 21:09:08 +0000";
layers = (
{
anchors = (
{
name = bottom;
position = "{225, 0}";
},
{
name = top;
position = "{225, 500}";
}
);
layerId = "83004642-28A7-499C-A4A0-A456D2DB2D8A";
paths = (
{
closed = 1;
nodes = (
"400 0 LINE",
"400 400 LINE",
"300 400 LINE",
"300 0 LINE"
);
},
{
closed = 1;
nodes = (
"200 0 LINE",
"200 400 LINE",
"100 400 LINE",
"100 0 LINE"
);
},
{
closed = 1;
nodes = (
"100 400 LINE",
"100 500 LINE",
"0 500 LINE",
"0 400 LINE"
);
},
{
closed = 1;
nodes = (
"300 400 LINE",
"300 500 LINE",
"200 500 LINE",
"200 400 LINE"
);
}
);
width = 450;
},
{
anchors = (
{
name = bottom;
position = "{325, 0}";
},
{
name = top;
position = "{325, 500}";
}
);
layerId = "99106478-E82A-45B6-ABB4-B34A357236DB";
paths = (
{
closed = 1;
nodes = (
"550 0 LINE",
"550 350 LINE",
"400 350 LINE",
"400 0 LINE"
);
},
{
closed = 1;
nodes = (
"250 0 LINE",
"250 350 LINE",
"100 350 LINE",
"100 0 LINE"
);
},
{
closed = 1;
nodes = (
"100 350 LINE",
"100 500 LINE",
"0 500 LINE",
"0 350 LINE"
);
},
{
closed = 1;
nodes = (
"400 350 LINE",
"400 500 LINE",
"250 500 LINE",
"250 350 LINE"
);
}
);
width = 600;
}
);
leftKerningGroup = mn;
rightKerningGroup = mn;
unicode = 006E;
},
{
glyphname = eng;
lastChange = "2020-03-03 14:34:43 +0000";
layers = (
{
layerId = "83004642-28A7-499C-A4A0-A456D2DB2D8A";
paths = (
{
closed = 1;
nodes = (
"400 -100 LINE",
"400 400 LINE",
"300 400 LINE",
"300 -100 LINE"
);
},
{
closed = 1;
nodes = (
"300 -200 LINE",
"300 -100 LINE",
"200 -100 LINE",
"200 -200 LINE"
);
},
{
closed = 1;
nodes = (
"200 0 LINE",
"200 400 LINE",
"100 400 LINE",
"100 0 LINE"
);
},
{
closed = 1;
nodes = (
"100 400 LINE",
"100 500 LINE",
"0 500 LINE",
"0 400 LINE"
);
},
{
closed = 1;
nodes = (
"300 400 LINE",
"300 500 LINE",
"200 500 LINE",
"200 400 LINE"
);
}
);
width = 450;
},
{
layerId = "99106478-E82A-45B6-ABB4-B34A357236DB";
paths = (
{
closed = 1;
nodes = (
"550 -100 LINE",
"550 350 LINE",
"400 350 LINE",
"400 -100 LINE"
);
},
{
closed = 1;
nodes = (
"400 -200 LINE",
"400 -100 LINE",
"250 -100 LINE",
"250 -200 LINE"
);
},
{
closed = 1;
nodes = (
"250 0 LINE",
"250 350 LINE",
"100 350 LINE",
"100 0 LINE"
);
},
{
closed = 1;
nodes = (
"100 350 LINE",
"100 500 LINE",
"0 500 LINE",
"0 350 LINE"
);
},
{
closed = 1;
nodes = (
"400 350 LINE",
"400 500 LINE",
"250 500 LINE",
"250 350 LINE"
);
}
);
width = 600;
}
);
leftKerningGroup = mn;
rightKerningGroup = mn;
unicode = 014B;
},
{
glyphname = o;
lastChange = "2020-03-08 17:26:57 +0000";
layers = (
{
anchors = (
{
name = bottom;
position = "{295, 0}";
},
{
name = center;
position = "{295, 250}";
},
{
name = ogonek;
position = "{535, 10}";
},
{
name = top;
position = "{295, 500}";
},
{
name = topright;
position = "{575, 500}";
}
);
layerId = "83004642-28A7-499C-A4A0-A456D2DB2D8A";
paths = (
{
closed = 1;
nodes = (
"439 -10 OFFCURVE",
"555 106 OFFCURVE",
"555 250 CURVE SMOOTH",
"555 391 OFFCURVE",
"439 510 OFFCURVE",
"295 510 CURVE SMOOTH",
"150 510 OFFCURVE",
"35 391 OFFCURVE",
"35 250 CURVE SMOOTH",
"35 106 OFFCURVE",
"150 -10 OFFCURVE",
"295 -10 CURVE SMOOTH"
);
}
);
width = 590;
},
{
anchors = (
{
name = bottom;
position = "{295, 0}";
},
{
name = center;
position = "{295, 250}";
},
{
name = ogonek;
position = "{535, 10}";
},
{
name = top;
position = "{295, 500}";
},
{
name = topright;
position = "{575, 500}";
}
);
layerId = "99106478-E82A-45B6-ABB4-B34A357236DB";
paths = (
{
closed = 1;
nodes = (
"439 -10 OFFCURVE",
"555 106 OFFCURVE",
"555 250 CURVE SMOOTH",
"555 391 OFFCURVE",
"439 510 OFFCURVE",
"295 510 CURVE SMOOTH",
"150 510 OFFCURVE",
"35 391 OFFCURVE",
"35 250 CURVE SMOOTH",
"35 106 OFFCURVE",
"150 -10 OFFCURVE",
"295 -10 CURVE SMOOTH"
);
}
);
width = 590;
}
);
leftKerningGroup = o;
rightKerningGroup = o;
unicode = 006F;
},
{
glyphname = oslash;
lastChange = "2020-03-04 21:57:11 +0000";
layers = (
{
components = (
{
name = o;
}
);
layerId = "83004642-28A7-499C-A4A0-A456D2DB2D8A";
paths = (
{
closed = 1;
nodes = (
"565 450 LINE",
"565 550 LINE",
"465 550 LINE",
"465 450 LINE"
);
},
{
closed = 1;
nodes = (
"125 -50 LINE",
"125 50 LINE",
"25 50 LINE",
"25 -50 LINE"
);
}
);
width = 590;
},
{
associatedMasterId = "83004642-28A7-499C-A4A0-A456D2DB2D8A";
layerId = "8BD9728A-BE57-441D-911E-EAE9911A4D4D";
name = "Jan 21 20, 21:34";
paths = (
{
closed = 1;
nodes = (
"465 500 LINE",
"465 400 LINE",
"565 400 LINE",
"565 500 LINE"
);
},
{
closed = 1;
nodes = (
"65 100 LINE",
"65 0 LINE",
"165 0 LINE",
"165 100 LINE"
);
},
{
closed = 1;
nodes = (
"434 35 OFFCURVE",
"530 131 OFFCURVE",
"530 250 CURVE SMOOTH",
"530 366 OFFCURVE",
"434 465 OFFCURVE",
"315 465 CURVE SMOOTH",
"195 465 OFFCURVE",
"100 366 OFFCURVE",
"100 250 CURVE SMOOTH",
"100 131 OFFCURVE",
"195 35 OFFCURVE",
"315 35 CURVE SMOOTH"
);
}
);
width = 600;
},
{
components = (
{
name = o;
transform = "{1, 0, 0, 1, 40, 0}";
}
);
layerId = "99106478-E82A-45B6-ABB4-B34A357236DB";
paths = (
{
closed = 1;
nodes = (
"635 450 LINE",
"635 580 LINE",
"505 580 LINE",
"505 450 LINE"
);
},
{
closed = 1;
nodes = (
"165 -80 LINE",
"165 50 LINE",
"35 50 LINE",
"35 -80 LINE"
);
}
);
width = 670;
}
);
unicode = 00F8;
},
{
glyphname = oe;
lastChange = "2020-03-04 21:55:03 +0000";
layers = (
{
layerId = "83004642-28A7-499C-A4A0-A456D2DB2D8A";
paths = (
{
closed = 1;
nodes = (
"439 -10 OFFCURVE",
"555 106 OFFCURVE",
"555 250 CURVE SMOOTH",
"555 391 OFFCURVE",
"439 510 OFFCURVE",
"295 510 CURVE SMOOTH",
"150 510 OFFCURVE",
"35 391 OFFCURVE",
"35 250 CURVE SMOOTH",
"35 106 OFFCURVE",
"150 -10 OFFCURVE",
"295 -10 CURVE SMOOTH"
);
},
{
closed = 1;
nodes = (
"655 100 LINE",
"655 350 LINE",
"555 350 LINE",
"555 100 LINE"
);
},
{
closed = 1;
nodes = (
"955 0 LINE",
"955 100 LINE",
"655 100 LINE",
"655 0 LINE"
);
},
{
closed = 1;
nodes = (
"900 192 OFFCURVE",
"971 263 OFFCURVE",
"971 350 CURVE SMOOTH",
"971 436 OFFCURVE",
"900 508 OFFCURVE",
"813 508 CURVE SMOOTH",
"725 508 OFFCURVE",
"655 436 OFFCURVE",
"655 350 CURVE SMOOTH",
"655 263 OFFCURVE",
"725 192 OFFCURVE",
"813 192 CURVE SMOOTH"
);
}
);
width = 1006;
},
{
layerId = "99106478-E82A-45B6-ABB4-B34A357236DB";
paths = (
{
closed = 1;
nodes = (
"439 -10 OFFCURVE",
"555 106 OFFCURVE",
"555 250 CURVE SMOOTH",
"555 391 OFFCURVE",
"439 510 OFFCURVE",
"295 510 CURVE SMOOTH",
"150 510 OFFCURVE",
"35 391 OFFCURVE",
"35 250 CURVE SMOOTH",
"35 106 OFFCURVE",
"150 -10 OFFCURVE",
"295 -10 CURVE SMOOTH"
);
},
{
closed = 1;
nodes = (
"705 150 LINE",
"705 350 LINE",
"555 350 LINE",
"555 150 LINE"
);
},
{
closed = 1;
nodes = (
"1005 0 LINE",
"1005 150 LINE",
"705 150 LINE",
"705 0 LINE"
);
},
{
closed = 1;
nodes = (
"950 192 OFFCURVE",
"1021 263 OFFCURVE",
"1021 350 CURVE SMOOTH",
"1021 436 OFFCURVE",
"950 508 OFFCURVE",
"863 508 CURVE SMOOTH",
"775 508 OFFCURVE",
"705 436 OFFCURVE",
"705 350 CURVE SMOOTH",
"705 263 OFFCURVE",
"775 192 OFFCURVE",
"863 192 CURVE SMOOTH"
);
}
);
width = 1056;
}
);
leftKerningGroup = o;
rightKerningGroup = e;
unicode = 0153;
},
{
glyphname = p;
lastChange = "2020-03-08 18:10:07 +0000";
layers = (
{
anchors = (
{
name = bottom;
position = "{250, 0}";
},
{
name = top;
position = "{250, 500}";
}
);
layerId = "83004642-28A7-499C-A4A0-A456D2DB2D8A";
paths = (
{
closed = 1;
nodes = (
"450 100 LINE",
"450 400 LINE",
"350 400 LINE",
"350 100 LINE"
);
},
{
closed = 1;
nodes = (
"150 -200 LINE",
"150 0 LINE",
"50 0 LINE",
"50 -200 LINE"
);
},
{
closed = 1;
nodes = (
"350 0 LINE",
"350 100 LINE",
"150 100 LINE",
"150 0 LINE"
);
},
{
closed = 1;
nodes = (
"150 100 LINE",
"150 400 LINE",
"50 400 LINE",
"50 100 LINE"
);
},
{
closed = 1;
nodes = (
"350 400 LINE",
"350 500 LINE",
"150 500 LINE",
"150 400 LINE"
);
}
);
width = 500;
},
{
anchors = (
{
name = bottom;
position = "{300, 0}";
},
{
name = top;
position = "{300, 500}";
}
);
layerId = "99106478-E82A-45B6-ABB4-B34A357236DB";
paths = (
{
closed = 1;
nodes = (
"550 150 LINE",
"550 400 LINE",
"400 400 LINE",
"400 150 LINE"
);
},
{
closed = 1;
nodes = (
"200 -200 LINE",
"200 0 LINE",
"50 0 LINE",
"50 -200 LINE"
);
},
{
closed = 1;
nodes = (
"400 0 LINE",
"400 150 LINE",
"200 150 LINE",
"200 0 LINE"
);
},
{
closed = 1;
nodes = (
"200 150 LINE",
"200 400 LINE",
"50 400 LINE",
"50 150 LINE"
);
},
{
closed = 1;
nodes = (
"400 400 LINE",
"400 500 LINE",
"200 500 LINE",
"200 400 LINE"
);
}
);
width = 600;
}
);
leftKerningGroup = p;
rightKerningGroup = bp;
unicode = 0070;
},
{
glyphname = thorn;
lastChange = "2020-03-10 19:36:10 +0000";
layers = (
{
layerId = "83004642-28A7-499C-A4A0-A456D2DB2D8A";
paths = (
{
closed = 1;
nodes = (
"450 100 LINE",
"450 400 LINE",
"350 400 LINE",
"350 100 LINE"
);
},
{
closed = 1;
nodes = (
"150 -200 LINE",
"150 0 LINE",
"50 0 LINE",
"50 -200 LINE"
);
},
{
closed = 1;
nodes = (
"350 0 LINE",
"350 100 LINE",
"150 100 LINE",
"150 0 LINE"
);
},
{
closed = 1;
nodes = (
"150 100 LINE",
"150 400 LINE",
"50 400 LINE",
"50 100 LINE"
);
},
{
closed = 1;
nodes = (
"350 400 LINE",
"350 500 LINE",
"150 500 LINE",
"150 400 LINE"
);
},
{
closed = 1;
nodes = (
"150 500 LINE",
"150 700 LINE",
"50 700 LINE",
"50 500 LINE"
);
}
);
width = 500;
},
{
layerId = "99106478-E82A-45B6-ABB4-B34A357236DB";
paths = (
{
closed = 1;
nodes = (
"550 150 LINE",
"550 400 LINE",
"400 400 LINE",
"400 150 LINE"
);
},
{
closed = 1;
nodes = (
"200 -200 LINE",
"200 0 LINE",
"50 0 LINE",
"50 -200 LINE"
);
},
{
closed = 1;
nodes = (
"400 0 LINE",
"400 150 LINE",
"200 150 LINE",
"200 0 LINE"
);
},
{
closed = 1;
nodes = (
"200 150 LINE",
"200 400 LINE",
"50 400 LINE",
"50 150 LINE"
);
},
{
closed = 1;
nodes = (
"400 400 LINE",
"400 500 LINE",
"200 500 LINE",
"200 400 LINE"
);
},
{
closed = 1;
nodes = (
"200 500 LINE",
"200 700 LINE",
"50 700 LINE",
"50 500 LINE"
);
}
);
width = 600;
}
);
unicode = 00FE;
},
{
glyphname = r;
lastChange = "2020-03-10 18:53:59 +0000";
layers = (
{
anchors = (
{
name = bottom;
position = "{100, 0}";
},
{
name = top;
position = "{200, 500}";
}
);
layerId = "83004642-28A7-499C-A4A0-A456D2DB2D8A";
paths = (
{
closed = 1;
nodes = (
"150 0 LINE",
"150 400 LINE",
"50 400 LINE",
"50 0 LINE"
);
},
{
closed = 1;
nodes = (
"350 400 LINE",
"350 500 LINE",
"150 500 LINE",
"150 400 LINE"
);
}
);
width = 400;
},
{
anchors = (
{
name = bottom;
position = "{125, 0}";
},
{
name = top;
position = "{275, 500}";
}
);
layerId = "99106478-E82A-45B6-ABB4-B34A357236DB";
paths = (
{
closed = 1;
nodes = (
"200 0 LINE",
"200 350 LINE",
"50 350 LINE",
"50 0 LINE"
);
},
{
closed = 1;
nodes = (
"400 350 LINE",
"400 500 LINE",
"200 500 LINE",
"200 350 LINE"
);
}
);
width = 435;
}
);
leftKerningGroup = r;
rightKerningGroup = r;
unicode = 0072;
},
{
glyphname = s;
lastChange = "2020-03-12 00:08:34 +0000";
layers = (
{
anchors = (
{
name = bottom;
position = "{250, 0}";
},
{
name = top;
position = "{250, 500}";
}
);
layerId = "83004642-28A7-499C-A4A0-A456D2DB2D8A";
paths = (
{
closed = 1;
nodes = (
"450 400 LINE",
"450 500 LINE",
"150 500 LINE",
"150 400 LINE"
);
},
{
closed = 1;
nodes = (
"350 0 LINE",
"350 100 LINE",
"50 100 LINE",
"50 0 LINE"
);
},
{
closed = 1;
nodes = (
"150 300 LINE",
"150 400 LINE",
"50 400 LINE",
"50 300 LINE"
);
},
{
closed = 1;
nodes = (
"350 200 LINE",
"350 300 LINE",
"150 300 LINE",
"150 200 LINE"
);
},
{
closed = 1;
nodes = (
"450 100 LINE",
"450 200 LINE",
"350 200 LINE",
"350 100 LINE"
);
}
);
width = 500;
},
{
anchors = (
{
name = bottom;
position = "{250, 0}";
},
{
name = top;
position = "{250, 500}";
}
);
layerId = "99106478-E82A-45B6-ABB4-B34A357236DB";
paths = (
{
closed = 1;
nodes = (
"450 400 LINE",
"450 500 LINE",
"150 500 LINE",
"150 400 LINE"
);
},
{
closed = 1;
nodes = (
"350 0 LINE",
"350 100 LINE",
"50 100 LINE",
"50 0 LINE"
);
},
{
closed = 1;
nodes = (
"150 300 LINE",
"150 400 LINE",
"50 400 LINE",
"50 300 LINE"
);
},
{
closed = 1;
nodes = (
"350 200 LINE",
"350 300 LINE",
"150 300 LINE",
"150 200 LINE"
);
},
{
closed = 1;
nodes = (
"450 100 LINE",
"450 200 LINE",
"350 200 LINE",
"350 100 LINE"
);
}
);
width = 500;
},
{
anchors = (
{
name = bottom;
position = "{250, 0}";
},
{
name = top;
position = "{250, 500}";
}
);
associatedMasterId = "83004642-28A7-499C-A4A0-A456D2DB2D8A";
layerId = "AC548F63-2015-466A-9929-945EA77BEC26";
name = "Regular [101]";
paths = (
{
closed = 1;
nodes = (
"50 100 LINE",
"50 0 LINE",
"350 0 LINE",
"350 100 LINE"
);
},
{
closed = 1;
nodes = (
"350 300 LINE",
"350 100 LINE",
"450 100 LINE",
"450 300 LINE"
);
},
{
closed = 1;
nodes = (
"50 400 LINE",
"50 200 LINE",
"150 200 LINE",
"150 400 LINE"
);
},
{
closed = 1;
nodes = (
"150 500 LINE",
"150 400 LINE",
"450 400 LINE",
"450 500 LINE"
);
}
);
width = 500;
},
{
anchors = (
{
name = bottom;
position = "{275, 0}";
},
{
name = top;
position = "{275, 500}";
}
);
associatedMasterId = "99106478-E82A-45B6-ABB4-B34A357236DB";
layerId = "52E4A065-275D-4725-94E1-EE15DC694270";
name = "Bold [101]";
paths = (
{
closed = 1;
nodes = (
"50 150 LINE",
"50 0 LINE",
"350 0 LINE",
"350 150 LINE"
);
},
{
closed = 1;
nodes = (
"350 300 LINE",
"350 150 LINE",
"500 150 LINE",
"500 300 LINE"
);
},
{
closed = 1;
nodes = (
"50 350 LINE",
"50 200 LINE",
"200 200 LINE",
"200 350 LINE"
);
},
{
closed = 1;
nodes = (
"200 500 LINE",
"200 350 LINE",
"500 350 LINE",
"500 500 LINE"
);
}
);
width = 550;
}
);
leftKerningGroup = s;
rightKerningGroup = s;
unicode = 0073;
},
{
glyphname = sacute;
lastChange = "2020-03-11 12:51:18 +0000";
layers = (
{
anchors = (
{
name = bottom;
position = "{250, 0}";
},
{
name = top;
position = "{250, 500}";
}
);
components = (
{
name = acutecomb;
transform = "{1, 0, 0, 1, 150, 0}";
}
);
layerId = "83004642-28A7-499C-A4A0-A456D2DB2D8A";
paths = (
{
closed = 1;
nodes = (
"450 400 LINE",
"450 500 LINE",
"150 500 LINE",
"150 400 LINE"
);
},
{
closed = 1;
nodes = (
"350 0 LINE",
"350 100 LINE",
"50 100 LINE",
"50 0 LINE"
);
},
{
closed = 1;
nodes = (
"150 300 LINE",
"150 400 LINE",
"50 400 LINE",
"50 300 LINE"
);
},
{
closed = 1;
nodes = (
"350 200 LINE",
"350 300 LINE",
"150 300 LINE",
"150 200 LINE"
);
},
{
closed = 1;
nodes = (
"450 100 LINE",
"450 200 LINE",
"350 200 LINE",
"350 100 LINE"
);
}
);
width = 500;
},
{
anchors = (
{
name = bottom;
position = "{250, 0}";
},
{
name = top;
position = "{250, 500}";
}
);
components = (
{
name = acutecomb;
transform = "{1, 0, 0, 1, 138, 0}";
}
);
layerId = "99106478-E82A-45B6-ABB4-B34A357236DB";
paths = (
{
closed = 1;
nodes = (
"450 400 LINE",
"450 500 LINE",
"150 500 LINE",
"150 400 LINE"
);
},
{
closed = 1;
nodes = (
"350 0 LINE",
"350 100 LINE",
"50 100 LINE",
"50 0 LINE"
);
},
{
closed = 1;
nodes = (
"150 300 LINE",
"150 400 LINE",
"50 400 LINE",
"50 300 LINE"
);
},
{
closed = 1;
nodes = (
"350 200 LINE",
"350 300 LINE",
"150 300 LINE",
"150 200 LINE"
);
},
{
closed = 1;
nodes = (
"450 100 LINE",
"450 200 LINE",
"350 200 LINE",
"350 100 LINE"
);
}
);
width = 500;
},
{
anchors = (
{
name = bottom;
position = "{250, 0}";
},
{
name = top;
position = "{250, 500}";
}
);
associatedMasterId = "83004642-28A7-499C-A4A0-A456D2DB2D8A";
components = (
{
name = acutecomb;
transform = "{1, 0, 0, 1, 150, 0}";
}
);
layerId = "48E98E26-240C-4A41-89D0-B6187F1D857C";
name = "Regular [101]";
paths = (
{
closed = 1;
nodes = (
"50 100 LINE",
"50 0 LINE",
"350 0 LINE",
"350 100 LINE"
);
},
{
closed = 1;
nodes = (
"350 300 LINE",
"350 100 LINE",
"450 100 LINE",
"450 300 LINE"
);
},
{
closed = 1;
nodes = (
"50 400 LINE",
"50 200 LINE",
"150 200 LINE",
"150 400 LINE"
);
},
{
closed = 1;
nodes = (
"150 500 LINE",
"150 400 LINE",
"450 400 LINE",
"450 500 LINE"
);
}
);
width = 500;
},
{
anchors = (
{
name = bottom;
position = "{275, 0}";
},
{
name = top;
position = "{275, 500}";
}
);
associatedMasterId = "99106478-E82A-45B6-ABB4-B34A357236DB";
components = (
{
name = acutecomb;
transform = "{1, 0, 0, 1, 163, 0}";
}
);
guideLines = (
{
angle = 90;
position = "{200, 500}";
}
);
layerId = "F2190633-1E35-4FE6-9246-12C425B7FC07";
name = "Bold [101]";
paths = (
{
closed = 1;
nodes = (
"50 150 LINE",
"50 0 LINE",
"350 0 LINE",
"350 150 LINE"
);
},
{
closed = 1;
nodes = (
"350 300 LINE",
"350 150 LINE",
"500 150 LINE",
"500 300 LINE"
);
},
{
closed = 1;
nodes = (
"50 350 LINE",
"50 200 LINE",
"200 200 LINE",
"200 350 LINE"
);
},
{
closed = 1;
nodes = (
"200 500 LINE",
"200 350 LINE",
"500 350 LINE",
"500 500 LINE"
);
}
);
width = 550;
}
);
unicode = 015B;
},
{
glyphname = scaron;
lastChange = "2020-03-11 12:51:49 +0000";
layers = (
{
anchors = (
{
name = bottom;
position = "{250, 0}";
},
{
name = top;
position = "{250, 500}";
}
);
components = (
{
name = caroncomb;
transform = "{1, 0, 0, 1, 50, 0}";
}
);
layerId = "83004642-28A7-499C-A4A0-A456D2DB2D8A";
paths = (
{
closed = 1;
nodes = (
"450 400 LINE",
"450 500 LINE",
"150 500 LINE",
"150 400 LINE"
);
},
{
closed = 1;
nodes = (
"350 0 LINE",
"350 100 LINE",
"50 100 LINE",
"50 0 LINE"
);
},
{
closed = 1;
nodes = (
"150 300 LINE",
"150 400 LINE",
"50 400 LINE",
"50 300 LINE"
);
},
{
closed = 1;
nodes = (
"350 200 LINE",
"350 300 LINE",
"150 300 LINE",
"150 200 LINE"
);
},
{
closed = 1;
nodes = (
"450 100 LINE",
"450 200 LINE",
"350 200 LINE",
"350 100 LINE"
);
}
);
width = 500;
},
{
anchors = (
{
name = bottom;
position = "{250, 0}";
},
{
name = top;
position = "{250, 500}";
}
);
components = (
{
name = caroncomb;
transform = "{1, 0, 0, 1, -25, 0}";
}
);
layerId = "99106478-E82A-45B6-ABB4-B34A357236DB";
paths = (
{
closed = 1;
nodes = (
"450 400 LINE",
"450 500 LINE",
"150 500 LINE",
"150 400 LINE"
);
},
{
closed = 1;
nodes = (
"350 0 LINE",
"350 100 LINE",
"50 100 LINE",
"50 0 LINE"
);
},
{
closed = 1;
nodes = (
"150 300 LINE",
"150 400 LINE",
"50 400 LINE",
"50 300 LINE"
);
},
{
closed = 1;
nodes = (
"350 200 LINE",
"350 300 LINE",
"150 300 LINE",
"150 200 LINE"
);
},
{
closed = 1;
nodes = (
"450 100 LINE",
"450 200 LINE",
"350 200 LINE",
"350 100 LINE"
);
}
);
width = 500;
},
{
anchors = (
{
name = bottom;
position = "{250, 0}";
},
{
name = top;
position = "{250, 500}";
}
);
associatedMasterId = "83004642-28A7-499C-A4A0-A456D2DB2D8A";
components = (
{
name = caroncomb;
transform = "{1, 0, 0, 1, 50, 0}";
}
);
layerId = "8FE80F76-A762-4BFD-8D17-AA2D77654456";
name = "Regular [101]";
paths = (
{
closed = 1;
nodes = (
"50 100 LINE",
"50 0 LINE",
"350 0 LINE",
"350 100 LINE"
);
},
{
closed = 1;
nodes = (
"350 300 LINE",
"350 100 LINE",
"450 100 LINE",
"450 300 LINE"
);
},
{
closed = 1;
nodes = (
"50 400 LINE",
"50 200 LINE",
"150 200 LINE",
"150 400 LINE"
);
},
{
closed = 1;
nodes = (
"150 500 LINE",
"150 400 LINE",
"450 400 LINE",
"450 500 LINE"
);
}
);
width = 500;
},
{
anchors = (
{
name = bottom;
position = "{275, 0}";
},
{
name = top;
position = "{275, 500}";
}
);
associatedMasterId = "99106478-E82A-45B6-ABB4-B34A357236DB";
components = (
{
name = caroncomb;
}
);
guideLines = (
{
angle = 90;
position = "{200, 500}";
}
);
layerId = "D7BCCC01-6C62-4080-8545-4116AE3D974D";
name = "Bold [101]";
paths = (
{
closed = 1;
nodes = (
"50 150 LINE",
"50 0 LINE",
"350 0 LINE",
"350 150 LINE"
);
},
{
closed = 1;
nodes = (
"350 300 LINE",
"350 150 LINE",
"500 150 LINE",
"500 300 LINE"
);
},
{
closed = 1;
nodes = (
"50 350 LINE",
"50 200 LINE",
"200 200 LINE",
"200 350 LINE"
);
},
{
closed = 1;
nodes = (
"200 500 LINE",
"200 350 LINE",
"500 350 LINE",
"500 500 LINE"
);
}
);
width = 550;
}
);
unicode = 0161;
},
{
glyphname = scedilla;
lastChange = "2020-03-11 12:55:28 +0000";
layers = (
{
anchors = (
{
name = bottom;
position = "{250, 0}";
},
{
name = top;
position = "{250, 500}";
}
);
layerId = "83004642-28A7-499C-A4A0-A456D2DB2D8A";
paths = (
{
closed = 1;
nodes = (
"350 -200 LINE",
"350 -100 LINE",
"250 -100 LINE",
"250 -200 LINE"
);
},
{
closed = 1;
nodes = (
"450 -100 LINE",
"450 0 LINE",
"350 0 LINE",
"350 -100 LINE"
);
},
{
closed = 1;
nodes = (
"450 400 LINE",
"450 500 LINE",
"150 500 LINE",
"150 400 LINE"
);
},
{
closed = 1;
nodes = (
"350 0 LINE",
"350 100 LINE",
"50 100 LINE",
"50 0 LINE"
);
},
{
closed = 1;
nodes = (
"150 300 LINE",
"150 400 LINE",
"50 400 LINE",
"50 300 LINE"
);
},
{
closed = 1;
nodes = (
"350 200 LINE",
"350 300 LINE",
"150 300 LINE",
"150 200 LINE"
);
},
{
closed = 1;
nodes = (
"450 100 LINE",
"450 200 LINE",
"350 200 LINE",
"350 100 LINE"
);
}
);
width = 500;
},
{
anchors = (
{
name = bottom;
position = "{250, 0}";
},
{
name = top;
position = "{250, 500}";
}
);
layerId = "99106478-E82A-45B6-ABB4-B34A357236DB";
paths = (
{
closed = 1;
nodes = (
"350 -200 LINE",
"350 -100 LINE",
"200 -100 LINE",
"200 -200 LINE"
);
},
{
closed = 1;
nodes = (
"500 -100 LINE",
"500 0 LINE",
"350 0 LINE",
"350 -100 LINE"
);
},
{
closed = 1;
nodes = (
"450 400 LINE",
"450 500 LINE",
"150 500 LINE",
"150 400 LINE"
);
},
{
closed = 1;
nodes = (
"350 0 LINE",
"350 100 LINE",
"50 100 LINE",
"50 0 LINE"
);
},
{
closed = 1;
nodes = (
"150 300 LINE",
"150 400 LINE",
"50 400 LINE",
"50 300 LINE"
);
},
{
closed = 1;
nodes = (
"350 200 LINE",
"350 300 LINE",
"150 300 LINE",
"150 200 LINE"
);
},
{
closed = 1;
nodes = (
"450 100 LINE",
"450 200 LINE",
"350 200 LINE",
"350 100 LINE"
);
}
);
width = 550;
},
{
anchors = (
{
name = bottom;
position = "{250, 0}";
},
{
name = top;
position = "{250, 500}";
}
);
associatedMasterId = "83004642-28A7-499C-A4A0-A456D2DB2D8A";
layerId = "55CAE605-DA16-4A97-928C-064C3EE73096";
name = "Regular [101]";
paths = (
{
closed = 1;
nodes = (
"350 -200 LINE",
"350 -100 LINE",
"250 -100 LINE",
"250 -200 LINE"
);
},
{
closed = 1;
nodes = (
"450 -100 LINE",
"450 0 LINE",
"350 0 LINE",
"350 -100 LINE"
);
},
{
closed = 1;
nodes = (
"50 100 LINE",
"50 0 LINE",
"350 0 LINE",
"350 100 LINE"
);
},
{
closed = 1;
nodes = (
"350 300 LINE",
"350 100 LINE",
"450 100 LINE",
"450 300 LINE"
);
},
{
closed = 1;
nodes = (
"50 400 LINE",
"50 200 LINE",
"150 200 LINE",
"150 400 LINE"
);
},
{
closed = 1;
nodes = (
"150 500 LINE",
"150 400 LINE",
"450 400 LINE",
"450 500 LINE"
);
}
);
width = 500;
},
{
anchors = (
{
name = bottom;
position = "{275, 0}";
},
{
name = top;
position = "{275, 500}";
}
);
associatedMasterId = "99106478-E82A-45B6-ABB4-B34A357236DB";
layerId = "67F48FA8-FDFF-4817-ADC1-0F4301440E14";
name = "Bold [101]";
paths = (
{
closed = 1;
nodes = (
"350 -200 LINE",
"350 -100 LINE",
"200 -100 LINE",
"200 -200 LINE"
);
},
{
closed = 1;
nodes = (
"500 -100 LINE",
"500 0 LINE",
"350 0 LINE",
"350 -100 LINE"
);
},
{
closed = 1;
nodes = (
"50 150 LINE",
"50 0 LINE",
"350 0 LINE",
"350 150 LINE"
);
},
{
closed = 1;
nodes = (
"350 300 LINE",
"350 150 LINE",
"500 150 LINE",
"500 300 LINE"
);
},
{
closed = 1;
nodes = (
"50 350 LINE",
"50 200 LINE",
"200 200 LINE",
"200 350 LINE"
);
},
{
closed = 1;
nodes = (
"200 500 LINE",
"200 350 LINE",
"500 350 LINE",
"500 500 LINE"
);
}
);
width = 550;
}
);
leftKerningGroup = s;
rightKerningGroup = s;
unicode = 015F;
},
{
glyphname = scommaaccent;
lastChange = "2020-03-11 12:52:42 +0000";
layers = (
{
anchors = (
{
name = bottom;
position = "{250, 0}";
},
{
name = top;
position = "{250, 500}";
}
);
components = (
{
name = commaaccentcomb;
transform = "{1, 0, 0, 1, 50, 0}";
}
);
layerId = "83004642-28A7-499C-A4A0-A456D2DB2D8A";
paths = (
{
closed = 1;
nodes = (
"450 400 LINE",
"450 500 LINE",
"150 500 LINE",
"150 400 LINE"
);
},
{
closed = 1;
nodes = (
"350 0 LINE",
"350 100 LINE",
"50 100 LINE",
"50 0 LINE"
);
},
{
closed = 1;
nodes = (
"150 300 LINE",
"150 400 LINE",
"50 400 LINE",
"50 300 LINE"
);
},
{
closed = 1;
nodes = (
"350 200 LINE",
"350 300 LINE",
"150 300 LINE",
"150 200 LINE"
);
},
{
closed = 1;
nodes = (
"450 100 LINE",
"450 200 LINE",
"350 200 LINE",
"350 100 LINE"
);
}
);
width = 500;
},
{
anchors = (
{
name = bottom;
position = "{250, 0}";
},
{
name = top;
position = "{250, 500}";
}
);
components = (
{
name = commaaccentcomb;
transform = "{1, 0, 0, 1, -25, 0}";
}
);
layerId = "99106478-E82A-45B6-ABB4-B34A357236DB";
paths = (
{
closed = 1;
nodes = (
"450 400 LINE",
"450 500 LINE",
"150 500 LINE",
"150 400 LINE"
);
},
{
closed = 1;
nodes = (
"350 0 LINE",
"350 100 LINE",
"50 100 LINE",
"50 0 LINE"
);
},
{
closed = 1;
nodes = (
"150 300 LINE",
"150 400 LINE",
"50 400 LINE",
"50 300 LINE"
);
},
{
closed = 1;
nodes = (
"350 200 LINE",
"350 300 LINE",
"150 300 LINE",
"150 200 LINE"
);
},
{
closed = 1;
nodes = (
"450 100 LINE",
"450 200 LINE",
"350 200 LINE",
"350 100 LINE"
);
}
);
width = 500;
},
{
anchors = (
{
name = bottom;
position = "{250, 0}";
},
{
name = top;
position = "{250, 500}";
}
);
associatedMasterId = "83004642-28A7-499C-A4A0-A456D2DB2D8A";
components = (
{
name = commaaccentcomb;
transform = "{1, 0, 0, 1, 50, 0}";
}
);
layerId = "C5F75983-E924-48EB-B6C4-27222B04B47C";
name = "Regular [101]";
paths = (
{
closed = 1;
nodes = (
"50 100 LINE",
"50 0 LINE",
"350 0 LINE",
"350 100 LINE"
);
},
{
closed = 1;
nodes = (
"350 300 LINE",
"350 100 LINE",
"450 100 LINE",
"450 300 LINE"
);
},
{
closed = 1;
nodes = (
"50 400 LINE",
"50 200 LINE",
"150 200 LINE",
"150 400 LINE"
);
},
{
closed = 1;
nodes = (
"150 500 LINE",
"150 400 LINE",
"450 400 LINE",
"450 500 LINE"
);
}
);
width = 500;
},
{
anchors = (
{
name = bottom;
position = "{275, 0}";
},
{
name = top;
position = "{275, 500}";
}
);
associatedMasterId = "99106478-E82A-45B6-ABB4-B34A357236DB";
components = (
{
name = commaaccentcomb;
}
);
guideLines = (
{
angle = 90;
position = "{350, 0}";
}
);
layerId = "F3BD90D3-F3EE-4093-8A79-6CC179C5B230";
name = "Bold [101]";
paths = (
{
closed = 1;
nodes = (
"50 150 LINE",
"50 0 LINE",
"350 0 LINE",
"350 150 LINE"
);
},
{
closed = 1;
nodes = (
"350 300 LINE",
"350 150 LINE",
"500 150 LINE",
"500 300 LINE"
);
},
{
closed = 1;
nodes = (
"50 350 LINE",
"50 200 LINE",
"200 200 LINE",
"200 350 LINE"
);
},
{
closed = 1;
nodes = (
"200 500 LINE",
"200 350 LINE",
"500 350 LINE",
"500 500 LINE"
);
}
);
width = 550;
}
);
unicode = 0219;
},
{
glyphname = germandbls;
lastChange = "2020-03-10 13:54:22 +0000";
layers = (
{
layerId = "83004642-28A7-499C-A4A0-A456D2DB2D8A";
paths = (
{
closed = 1;
nodes = (
"150 0 LINE",
"150 700 LINE",
"50 700 LINE",
"50 0 LINE"
);
},
{
closed = 1;
nodes = (
"350 0 LINE",
"350 100 LINE",
"250 100 LINE",
"250 0 LINE"
);
},
{
closed = 1;
nodes = (
"450 100 LINE",
"450 400 LINE",
"350 400 LINE",
"350 100 LINE"
);
},
{
closed = 1;
nodes = (
"350 400 LINE",
"350 500 LINE",
"250 500 LINE",
"250 400 LINE"
);
},
{
closed = 1;
nodes = (
"350 700 LINE",
"350 800 LINE",
"150 800 LINE",
"150 700 LINE"
);
},
{
closed = 1;
nodes = (
"450 500 LINE",
"450 700 LINE",
"350 700 LINE",
"350 500 LINE"
);
}
);
width = 500;
},
{
layerId = "99106478-E82A-45B6-ABB4-B34A357236DB";
paths = (
{
closed = 1;
nodes = (
"200 0 LINE",
"200 650 LINE",
"50 650 LINE",
"50 0 LINE"
);
},
{
closed = 1;
nodes = (
"450 0 LINE",
"450 150 LINE",
"300 150 LINE",
"300 0 LINE"
);
},
{
closed = 1;
nodes = (
"600 150 LINE",
"600 400 LINE",
"450 400 LINE",
"450 150 LINE"
);
},
{
closed = 1;
nodes = (
"450 400 LINE",
"450 500 LINE",
"300 500 LINE",
"300 400 LINE"
);
},
{
closed = 1;
nodes = (
"450 650 LINE",
"450 800 LINE",
"200 800 LINE",
"200 650 LINE"
);
},
{
closed = 1;
nodes = (
"600 500 LINE",
"600 650 LINE",
"450 650 LINE",
"450 500 LINE"
);
}
);
width = 650;
}
);
unicode = 00DF;
},
{
glyphname = t;
lastChange = "2020-03-10 20:16:19 +0000";
layers = (
{
anchors = (
{
name = bottom;
position = "{300, 0}";
},
{
name = center;
position = "{275, 250}";
},
{
name = top;
position = "{200, 600}";
},
{
name = topright;
position = "{400, 500}";
}
);
layerId = "83004642-28A7-499C-A4A0-A456D2DB2D8A";
paths = (
{
closed = 1;
nodes = (
"250 100 LINE",
"250 400 LINE",
"150 400 LINE",
"150 100 LINE"
);
},
{
closed = 1;
nodes = (
"450 0 LINE",
"450 100 LINE",
"250 100 LINE",
"250 0 LINE"
);
},
{
closed = 1;
nodes = (
"150 400 LINE",
"150 500 LINE",
"50 500 LINE",
"50 400 LINE"
);
},
{
closed = 1;
nodes = (
"250 500 LINE",
"250 600 LINE",
"150 600 LINE",
"150 500 LINE"
);
},
{
closed = 1;
nodes = (
"450 400 LINE",
"450 500 LINE",
"250 500 LINE",
"250 400 LINE"
);
}
);
width = 500;
},
{
anchors = (
{
name = bottom;
position = "{375, 0}";
},
{
name = center;
position = "{275, 250}";
},
{
name = top;
position = "{225, 650}";
},
{
name = topright;
position = "{450, 500}";
}
);
layerId = "99106478-E82A-45B6-ABB4-B34A357236DB";
paths = (
{
closed = 1;
nodes = (
"300 150 LINE",
"300 350 LINE",
"150 350 LINE",
"150 150 LINE"
);
},
{
closed = 1;
nodes = (
"500 0 LINE",
"500 150 LINE",
"300 150 LINE",
"300 0 LINE"
);
},
{
closed = 1;
nodes = (
"150 350 LINE",
"150 500 LINE",
"50 500 LINE",
"50 350 LINE"
);
},
{
closed = 1;
nodes = (
"300 500 LINE",
"300 650 LINE",
"150 650 LINE",
"150 500 LINE"
);
},
{
closed = 1;
nodes = (
"500 350 LINE",
"500 500 LINE",
"300 500 LINE",
"300 350 LINE"
);
}
);
width = 550;
}
);
leftKerningGroup = t;
rightKerningGroup = t;
unicode = 0074;
},
{
glyphname = tbar;
lastChange = "2020-03-10 13:53:39 +0000";
layers = (
{
layerId = "83004642-28A7-499C-A4A0-A456D2DB2D8A";
paths = (
{
closed = 1;
nodes = (
"450 400 LINE",
"450 500 LINE",
"250 500 LINE",
"250 400 LINE"
);
},
{
closed = 1;
nodes = (
"150 200 LINE",
"150 300 LINE",
"50 300 LINE",
"50 200 LINE"
);
},
{
closed = 1;
nodes = (
"250 100 LINE",
"250 200 LINE",
"150 200 LINE",
"150 100 LINE"
);
},
{
closed = 1;
nodes = (
"450 0 LINE",
"450 100 LINE",
"250 100 LINE",
"250 0 LINE"
);
},
{
closed = 1;
nodes = (
"150 400 LINE",
"150 500 LINE",
"50 500 LINE",
"50 400 LINE"
);
},
{
closed = 1;
nodes = (
"250 300 LINE",
"250 400 LINE",
"150 400 LINE",
"150 300 LINE"
);
},
{
closed = 1;
nodes = (
"400 200 LINE",
"400 300 LINE",
"250 300 LINE",
"250 200 LINE"
);
},
{
closed = 1;
nodes = (
"250 500 LINE",
"250 600 LINE",
"150 600 LINE",
"150 500 LINE"
);
}
);
width = 600;
},
{
layerId = "99106478-E82A-45B6-ABB4-B34A357236DB";
paths = (
{
closed = 1;
nodes = (
"550 350 LINE",
"550 500 LINE",
"350 500 LINE",
"350 350 LINE"
);
},
{
closed = 1;
nodes = (
"200 175 LINE",
"200 275 LINE",
"100 275 LINE",
"100 175 LINE"
);
},
{
closed = 1;
nodes = (
"350 100 LINE",
"350 175 LINE",
"200 175 LINE",
"200 100 LINE"
);
},
{
closed = 1;
nodes = (
"550 0 LINE",
"550 100 LINE",
"350 100 LINE",
"350 0 LINE"
);
},
{
closed = 1;
nodes = (
"200 350 LINE",
"200 500 LINE",
"50 500 LINE",
"50 350 LINE"
);
},
{
closed = 1;
nodes = (
"350 275 LINE",
"350 350 LINE",
"200 350 LINE",
"200 275 LINE"
);
},
{
closed = 1;
nodes = (
"500 175 LINE",
"500 275 LINE",
"350 275 LINE",
"350 175 LINE"
);
},
{
closed = 1;
nodes = (
"350 500 LINE",
"350 650 LINE",
"200 650 LINE",
"200 500 LINE"
);
}
);
width = 600;
}
);
unicode = 0167;
},
{
glyphname = tcedilla;
lastChange = "2020-03-10 19:58:24 +0000";
layers = (
{
anchors = (
{
name = bottom;
position = "{350, -200}";
},
{
name = center;
position = "{275, 250}";
},
{
name = top;
position = "{200, 600}";
},
{
name = topright;
position = "{400, 500}";
}
);
layerId = "83004642-28A7-499C-A4A0-A456D2DB2D8A";
paths = (
{
closed = 1;
nodes = (
"250 100 LINE",
"250 400 LINE",
"150 400 LINE",
"150 100 LINE"
);
},
{
closed = 1;
nodes = (
"450 400 LINE",
"450 500 LINE",
"250 500 LINE",
"250 400 LINE"
);
},
{
closed = 1;
nodes = (
"150 400 LINE",
"150 500 LINE",
"50 500 LINE",
"50 400 LINE"
);
},
{
closed = 1;
nodes = (
"350 0 LINE",
"350 100 LINE",
"250 100 LINE",
"250 0 LINE"
);
},
{
closed = 1;
nodes = (
"250 500 LINE",
"250 600 LINE",
"150 600 LINE",
"150 500 LINE"
);
},
{
closed = 1;
nodes = (
"450 -100 LINE",
"450 0 LINE",
"350 0 LINE",
"350 -100 LINE"
);
},
{
closed = 1;
nodes = (
"350 -200 LINE",
"350 -100 LINE",
"250 -100 LINE",
"250 -200 LINE"
);
}
);
width = 500;
},
{
anchors = (
{
name = bottom;
position = "{425, -200}";
},
{
name = center;
position = "{225, 250}";
},
{
name = top;
position = "{225, 650}";
},
{
name = topright;
position = "{450, 500}";
}
);
layerId = "99106478-E82A-45B6-ABB4-B34A357236DB";
paths = (
{
closed = 1;
nodes = (
"300 150 LINE",
"300 350 LINE",
"150 350 LINE",
"150 150 LINE"
);
},
{
closed = 1;
nodes = (
"500 350 LINE",
"500 500 LINE",
"300 500 LINE",
"300 350 LINE"
);
},
{
closed = 1;
nodes = (
"150 350 LINE",
"150 500 LINE",
"50 500 LINE",
"50 350 LINE"
);
},
{
closed = 1;
nodes = (
"450 0 LINE",
"450 150 LINE",
"300 150 LINE",
"300 0 LINE"
);
},
{
closed = 1;
nodes = (
"300 500 LINE",
"300 650 LINE",
"150 650 LINE",
"150 500 LINE"
);
},
{
closed = 1;
nodes = (
"605 -100 LINE",
"605 0 LINE",
"455 0 LINE",
"455 -100 LINE"
);
},
{
closed = 1;
nodes = (
"455 -200 LINE",
"455 -100 LINE",
"305 -100 LINE",
"305 -200 LINE"
);
}
);
width = 555;
}
);
leftKerningGroup = t;
unicode = 0163;
},
{
glyphname = u;
lastChange = "2020-03-08 17:11:14 +0000";
layers = (
{
anchors = (
{
name = bottom;
position = "{225, 0}";
},
{
name = ogonek;
position = "{450, 0}";
},
{
name = top;
position = "{200, 500}";
},
{
name = topright;
position = "{430, 500}";
}
);
layerId = "83004642-28A7-499C-A4A0-A456D2DB2D8A";
paths = (
{
closed = 1;
nodes = (
"350 100 LINE",
"350 500 LINE",
"250 500 LINE",
"250 100 LINE"
);
},
{
closed = 1;
nodes = (
"250 0 LINE",
"250 100 LINE",
"150 100 LINE",
"150 0 LINE"
);
},
{
closed = 1;
nodes = (
"150 100 LINE",
"150 500 LINE",
"50 500 LINE",
"50 100 LINE"
);
},
{
closed = 1;
nodes = (
"450 0 LINE",
"450 100 LINE",
"350 100 LINE",
"350 0 LINE"
);
}
);
width = 450;
},
{
anchors = (
{
name = bottom;
position = "{275, 0}";
},
{
name = ogonek;
position = "{600, 0}";
},
{
name = top;
position = "{275, 500}";
},
{
name = topright;
position = "{580, 500}";
}
);
layerId = "99106478-E82A-45B6-ABB4-B34A357236DB";
paths = (
{
closed = 1;
nodes = (
"500 150 LINE",
"500 500 LINE",
"350 500 LINE",
"350 150 LINE"
);
},
{
closed = 1;
nodes = (
"350 0 LINE",
"350 150 LINE",
"200 150 LINE",
"200 0 LINE"
);
},
{
closed = 1;
nodes = (
"200 150 LINE",
"200 500 LINE",
"50 500 LINE",
"50 150 LINE"
);
},
{
closed = 1;
nodes = (
"600 0 LINE",
"600 150 LINE",
"500 150 LINE",
"500 0 LINE"
);
}
);
width = 600;
}
);
leftKerningGroup = u;
rightKerningGroup = u;
unicode = 0075;
},
{
glyphname = v;
lastChange = "2020-03-08 17:40:14 +0000";
layers = (
{
anchors = (
{
name = bottom;
position = "{200, 0}";
},
{
name = top;
position = "{200, 500}";
}
);
layerId = "83004642-28A7-499C-A4A0-A456D2DB2D8A";
paths = (
{
closed = 1;
nodes = (
"350 100 LINE",
"350 500 LINE",
"250 500 LINE",
"250 100 LINE"
);
},
{
closed = 1;
nodes = (
"250 0 LINE",
"250 100 LINE",
"150 100 LINE",
"150 0 LINE"
);
},
{
closed = 1;
nodes = (
"150 100 LINE",
"150 500 LINE",
"50 500 LINE",
"50 100 LINE"
);
}
);
width = 400;
},
{
anchors = (
{
name = bottom;
position = "{275, 0}";
},
{
name = top;
position = "{275, 500}";
}
);
layerId = "99106478-E82A-45B6-ABB4-B34A357236DB";
paths = (
{
closed = 1;
nodes = (
"500 200 LINE",
"500 500 LINE",
"350 500 LINE",
"350 200 LINE"
);
},
{
closed = 1;
nodes = (
"350 0 LINE",
"350 200 LINE",
"200 200 LINE",
"200 0 LINE"
);
},
{
closed = 1;
nodes = (
"200 200 LINE",
"200 500 LINE",
"50 500 LINE",
"50 200 LINE"
);
}
);
width = 550;
}
);
leftKerningGroup = vw;
rightKerningGroup = vw;
unicode = 0076;
},
{
glyphname = w;
lastChange = "2020-03-08 17:10:01 +0000";
layers = (
{
anchors = (
{
name = bottom;
position = "{300, 0}";
},
{
name = top;
position = "{300, 500}";
}
);
layerId = "83004642-28A7-499C-A4A0-A456D2DB2D8A";
paths = (
{
closed = 1;
nodes = (
"550 100 LINE",
"550 500 LINE",
"450 500 LINE",
"450 100 LINE"
);
},
{
closed = 1;
nodes = (
"250 0 LINE",
"250 100 LINE",
"150 100 LINE",
"150 0 LINE"
);
},
{
closed = 1;
nodes = (
"150 100 LINE",
"150 500 LINE",
"50 500 LINE",
"50 100 LINE"
);
},
{
closed = 1;
nodes = (
"450 0 LINE",
"450 100 LINE",
"350 100 LINE",
"350 0 LINE"
);
},
{
closed = 1;
nodes = (
"350 100 LINE",
"350 500 LINE",
"250 500 LINE",
"250 100 LINE"
);
}
);
width = 600;
},
{
anchors = (
{
name = bottom;
position = "{350, 0}";
},
{
name = top;
position = "{350, 500}";
}
);
layerId = "99106478-E82A-45B6-ABB4-B34A357236DB";
paths = (
{
closed = 1;
nodes = (
"650 200 LINE",
"650 500 LINE",
"500 500 LINE",
"500 200 LINE"
);
},
{
closed = 1;
nodes = (
"300 0 LINE",
"300 200 LINE",
"200 200 LINE",
"200 0 LINE"
);
},
{
closed = 1;
nodes = (
"200 200 LINE",
"200 500 LINE",
"50 500 LINE",
"50 200 LINE"
);
},
{
closed = 1;
nodes = (
"500 0 LINE",
"500 200 LINE",
"400 200 LINE",
"400 0 LINE"
);
},
{
closed = 1;
nodes = (
"400 200 LINE",
"400 500 LINE",
"300 500 LINE",
"300 200 LINE"
);
}
);
width = 700;
}
);
leftKerningGroup = vw;
rightKerningGroup = vw;
unicode = 0077;
},
{
glyphname = x;
lastChange = "2020-03-08 17:40:29 +0000";
layers = (
{
anchors = (
{
name = bottom;
position = "{200, 0}";
},
{
name = top;
position = "{200, 500}";
}
);
layerId = "83004642-28A7-499C-A4A0-A456D2DB2D8A";
paths = (
{
closed = 1;
nodes = (
"350 300 LINE",
"350 500 LINE",
"250 500 LINE",
"250 300 LINE"
);
},
{
closed = 1;
nodes = (
"150 0 LINE",
"150 200 LINE",
"50 200 LINE",
"50 0 LINE"
);
},
{
closed = 1;
nodes = (
"350 0 LINE",
"350 200 LINE",
"250 200 LINE",
"250 0 LINE"
);
},
{
closed = 1;
nodes = (
"250 200 LINE",
"250 300 LINE",
"150 300 LINE",
"150 200 LINE"
);
},
{
closed = 1;
nodes = (
"150 300 LINE",
"150 500 LINE",
"50 500 LINE",
"50 300 LINE"
);
}
);
width = 400;
},
{
associatedMasterId = "83004642-28A7-499C-A4A0-A456D2DB2D8A";
layerId = "082912E0-F4BB-4A52-8A53-B501D9F25E4E";
name = "Jan 21 20, 14:18";
paths = (
{
closed = 1;
nodes = (
"100 400 LINE",
"200 400 LINE",
"200 500 LINE",
"100 500 LINE"
);
},
{
closed = 1;
nodes = (
"200 300 LINE",
"300 300 LINE",
"300 400 LINE",
"200 400 LINE"
);
},
{
closed = 1;
nodes = (
"300 200 LINE",
"400 200 LINE",
"400 300 LINE",
"300 300 LINE"
);
},
{
closed = 1;
nodes = (
"400 300 LINE",
"500 300 LINE",
"500 400 LINE",
"400 400 LINE"
);
},
{
closed = 1;
nodes = (
"500 400 LINE",
"600 400 LINE",
"600 500 LINE",
"500 500 LINE"
);
},
{
closed = 1;
nodes = (
"200 100 LINE",
"300 100 LINE",
"300 200 LINE",
"200 200 LINE"
);
},
{
closed = 1;
nodes = (
"400 100 LINE",
"500 100 LINE",
"500 200 LINE",
"400 200 LINE"
);
},
{
closed = 1;
nodes = (
"100 0 LINE",
"200 0 LINE",
"200 100 LINE",
"100 100 LINE"
);
},
{
closed = 1;
nodes = (
"500 0 LINE",
"600 0 LINE",
"600 100 LINE",
"500 100 LINE"
);
}
);
width = 700;
},
{
anchors = (
{
name = bottom;
position = "{275, 0}";
},
{
name = top;
position = "{275, 500}";
}
);
layerId = "99106478-E82A-45B6-ABB4-B34A357236DB";
paths = (
{
closed = 1;
nodes = (
"500 325 LINE",
"500 500 LINE",
"350 500 LINE",
"350 325 LINE"
);
},
{
closed = 1;
nodes = (
"200 0 LINE",
"200 175 LINE",
"50 175 LINE",
"50 0 LINE"
);
},
{
closed = 1;
nodes = (
"500 0 LINE",
"500 175 LINE",
"350 175 LINE",
"350 0 LINE"
);
},
{
closed = 1;
nodes = (
"350 175 LINE",
"350 325 LINE",
"200 325 LINE",
"200 175 LINE"
);
},
{
closed = 1;
nodes = (
"200 325 LINE",
"200 500 LINE",
"50 500 LINE",
"50 325 LINE"
);
}
);
width = 550;
}
);
leftKerningGroup = x;
rightKerningGroup = x;
unicode = 0078;
},
{
glyphname = y;
lastChange = "2020-03-08 17:11:30 +0000";
layers = (
{
anchors = (
{
name = bottom;
position = "{200, 0}";
},
{
name = top;
position = "{200, 500}";
}
);
layerId = "83004642-28A7-499C-A4A0-A456D2DB2D8A";
paths = (
{
closed = 1;
nodes = (
"350 100 LINE",
"350 500 LINE",
"250 500 LINE",
"250 100 LINE"
);
},
{
closed = 1;
nodes = (
"150 -200 LINE",
"150 0 LINE",
"50 0 LINE",
"50 -200 LINE"
);
},
{
closed = 1;
nodes = (
"250 0 LINE",
"250 100 LINE",
"150 100 LINE",
"150 0 LINE"
);
},
{
closed = 1;
nodes = (
"150 100 LINE",
"150 500 LINE",
"50 500 LINE",
"50 100 LINE"
);
}
);
width = 400;
},
{
anchors = (
{
name = bottom;
position = "{275, 0}";
},
{
name = top;
position = "{275, 500}";
}
);
layerId = "99106478-E82A-45B6-ABB4-B34A357236DB";
paths = (
{
closed = 1;
nodes = (
"500 150 LINE",
"500 500 LINE",
"350 500 LINE",
"350 150 LINE"
);
},
{
closed = 1;
nodes = (
"200 -200 LINE",
"200 0 LINE",
"50 0 LINE",
"50 -200 LINE"
);
},
{
closed = 1;
nodes = (
"350 0 LINE",
"350 150 LINE",
"200 150 LINE",
"200 0 LINE"
);
},
{
closed = 1;
nodes = (
"200 150 LINE",
"200 500 LINE",
"50 500 LINE",
"50 150 LINE"
);
}
);
width = 550;
}
);
leftKerningGroup = y;
rightKerningGroup = y;
unicode = 0079;
},
{
glyphname = z;
lastChange = "2020-03-10 18:40:03 +0000";
layers = (
{
anchors = (
{
name = bottom;
position = "{250, 0}";
},
{
name = center;
position = "{250, 250}";
},
{
name = top;
position = "{250, 500}";
}
);
layerId = "83004642-28A7-499C-A4A0-A456D2DB2D8A";
paths = (
{
closed = 1;
nodes = (
"350 400 LINE",
"350 500 LINE",
"50 500 LINE",
"50 400 LINE"
);
},
{
closed = 1;
nodes = (
"150 100 LINE",
"150 200 LINE",
"50 200 LINE",
"50 100 LINE"
);
},
{
closed = 1;
nodes = (
"450 0 LINE",
"450 100 LINE",
"150 100 LINE",
"150 0 LINE"
);
},
{
closed = 1;
nodes = (
"350 200 LINE",
"350 300 LINE",
"150 300 LINE",
"150 200 LINE"
);
},
{
closed = 1;
nodes = (
"450 300 LINE",
"450 400 LINE",
"350 400 LINE",
"350 300 LINE"
);
}
);
width = 500;
},
{
anchors = (
{
name = bottom;
position = "{250, 0}";
},
{
name = center;
position = "{250, 250}";
},
{
name = top;
position = "{250, 500}";
}
);
layerId = "99106478-E82A-45B6-ABB4-B34A357236DB";
paths = (
{
closed = 1;
nodes = (
"350 400 LINE",
"350 500 LINE",
"50 500 LINE",
"50 400 LINE"
);
},
{
closed = 1;
nodes = (
"150 100 LINE",
"150 200 LINE",
"50 200 LINE",
"50 100 LINE"
);
},
{
closed = 1;
nodes = (
"450 0 LINE",
"450 100 LINE",
"150 100 LINE",
"150 0 LINE"
);
},
{
closed = 1;
nodes = (
"350 200 LINE",
"350 300 LINE",
"150 300 LINE",
"150 200 LINE"
);
},
{
closed = 1;
nodes = (
"450 300 LINE",
"450 400 LINE",
"350 400 LINE",
"350 300 LINE"
);
}
);
width = 500;
},
{
anchors = (
{
name = bottom;
position = "{250, 0}";
},
{
name = center;
position = "{250, 250}";
},
{
name = top;
position = "{250, 500}";
}
);
associatedMasterId = "83004642-28A7-499C-A4A0-A456D2DB2D8A";
layerId = "9DEDBED4-AB45-4E28-9E64-94EEA1F3FAF3";
name = "Regular [101]";
paths = (
{
closed = 1;
nodes = (
"150 0 LINE",
"450 0 LINE",
"450 100 LINE",
"150 100 LINE"
);
},
{
closed = 1;
nodes = (
"50 100 LINE",
"150 100 LINE",
"150 300 LINE",
"50 300 LINE"
);
},
{
closed = 1;
nodes = (
"350 200 LINE",
"450 200 LINE",
"450 400 LINE",
"350 400 LINE"
);
},
{
closed = 1;
nodes = (
"50 400 LINE",
"350 400 LINE",
"350 500 LINE",
"50 500 LINE"
);
}
);
width = 500;
},
{
anchors = (
{
name = bottom;
position = "{275, 0}";
},
{
name = center;
position = "{275, 250}";
},
{
name = top;
position = "{275, 500}";
}
);
associatedMasterId = "99106478-E82A-45B6-ABB4-B34A357236DB";
layerId = "4940B0CD-B7BD-4496-9D2C-28FC075FA547";
name = "Bold [101]";
paths = (
{
closed = 1;
nodes = (
"200 0 LINE",
"500 0 LINE",
"500 150 LINE",
"200 150 LINE"
);
},
{
closed = 1;
nodes = (
"50 150 LINE",
"200 150 LINE",
"200 300 LINE",
"50 300 LINE"
);
},
{
closed = 1;
nodes = (
"350 200 LINE",
"500 200 LINE",
"500 350 LINE",
"350 350 LINE"
);
},
{
closed = 1;
nodes = (
"50 350 LINE",
"350 350 LINE",
"350 500 LINE",
"50 500 LINE"
);
}
);
width = 550;
}
);
leftKerningGroup = z;
rightKerningGroup = z;
unicode = 007A;
},
{
glyphname = zacute;
lastChange = "2020-03-11 12:53:06 +0000";
layers = (
{
anchors = (
{
name = bottom;
position = "{250, 0}";
},
{
name = center;
position = "{250, 250}";
},
{
name = top;
position = "{250, 500}";
}
);
components = (
{
name = acutecomb;
transform = "{1, 0, 0, 1, 150, 0}";
}
);
layerId = "83004642-28A7-499C-A4A0-A456D2DB2D8A";
paths = (
{
closed = 1;
nodes = (
"350 400 LINE",
"350 500 LINE",
"50 500 LINE",
"50 400 LINE"
);
},
{
closed = 1;
nodes = (
"150 100 LINE",
"150 200 LINE",
"50 200 LINE",
"50 100 LINE"
);
},
{
closed = 1;
nodes = (
"450 0 LINE",
"450 100 LINE",
"150 100 LINE",
"150 0 LINE"
);
},
{
closed = 1;
nodes = (
"350 200 LINE",
"350 300 LINE",
"150 300 LINE",
"150 200 LINE"
);
},
{
closed = 1;
nodes = (
"450 300 LINE",
"450 400 LINE",
"350 400 LINE",
"350 300 LINE"
);
}
);
width = 500;
},
{
anchors = (
{
name = bottom;
position = "{250, 0}";
},
{
name = center;
position = "{250, 250}";
},
{
name = top;
position = "{250, 500}";
}
);
components = (
{
name = acutecomb;
transform = "{1, 0, 0, 1, 138, 0}";
}
);
layerId = "99106478-E82A-45B6-ABB4-B34A357236DB";
paths = (
{
closed = 1;
nodes = (
"350 400 LINE",
"350 500 LINE",
"50 500 LINE",
"50 400 LINE"
);
},
{
closed = 1;
nodes = (
"150 100 LINE",
"150 200 LINE",
"50 200 LINE",
"50 100 LINE"
);
},
{
closed = 1;
nodes = (
"450 0 LINE",
"450 100 LINE",
"150 100 LINE",
"150 0 LINE"
);
},
{
closed = 1;
nodes = (
"350 200 LINE",
"350 300 LINE",
"150 300 LINE",
"150 200 LINE"
);
},
{
closed = 1;
nodes = (
"450 300 LINE",
"450 400 LINE",
"350 400 LINE",
"350 300 LINE"
);
}
);
width = 500;
},
{
anchors = (
{
name = bottom;
position = "{250, 0}";
},
{
name = center;
position = "{250, 250}";
},
{
name = top;
position = "{250, 500}";
}
);
associatedMasterId = "83004642-28A7-499C-A4A0-A456D2DB2D8A";
components = (
{
name = acutecomb;
transform = "{1, 0, 0, 1, 150, 0}";
}
);
layerId = "50A771CE-0179-4CEA-BDB2-44FA9B55E2E0";
name = "Regular [101]";
paths = (
{
closed = 1;
nodes = (
"150 0 LINE",
"450 0 LINE",
"450 100 LINE",
"150 100 LINE"
);
},
{
closed = 1;
nodes = (
"50 100 LINE",
"150 100 LINE",
"150 300 LINE",
"50 300 LINE"
);
},
{
closed = 1;
nodes = (
"350 200 LINE",
"450 200 LINE",
"450 400 LINE",
"350 400 LINE"
);
},
{
closed = 1;
nodes = (
"50 400 LINE",
"350 400 LINE",
"350 500 LINE",
"50 500 LINE"
);
}
);
width = 500;
},
{
anchors = (
{
name = bottom;
position = "{275, 0}";
},
{
name = center;
position = "{275, 250}";
},
{
name = top;
position = "{275, 500}";
}
);
associatedMasterId = "99106478-E82A-45B6-ABB4-B34A357236DB";
components = (
{
name = acutecomb;
transform = "{1, 0, 0, 1, 163, 0}";
}
);
layerId = "0CC9A136-6AC0-4A78-92C9-E66E6AC96CF1";
name = "Bold [101]";
paths = (
{
closed = 1;
nodes = (
"200 0 LINE",
"500 0 LINE",
"500 150 LINE",
"200 150 LINE"
);
},
{
closed = 1;
nodes = (
"50 150 LINE",
"200 150 LINE",
"200 300 LINE",
"50 300 LINE"
);
},
{
closed = 1;
nodes = (
"350 200 LINE",
"500 200 LINE",
"500 350 LINE",
"350 350 LINE"
);
},
{
closed = 1;
nodes = (
"50 350 LINE",
"350 350 LINE",
"350 500 LINE",
"50 500 LINE"
);
}
);
width = 550;
}
);
unicode = 017A;
},
{
glyphname = zcaron;
lastChange = "2020-03-11 12:53:25 +0000";
layers = (
{
anchors = (
{
name = bottom;
position = "{250, 0}";
},
{
name = center;
position = "{250, 250}";
},
{
name = top;
position = "{250, 500}";
}
);
components = (
{
name = caroncomb;
transform = "{1, 0, 0, 1, 50, 0}";
}
);
layerId = "83004642-28A7-499C-A4A0-A456D2DB2D8A";
paths = (
{
closed = 1;
nodes = (
"350 400 LINE",
"350 500 LINE",
"50 500 LINE",
"50 400 LINE"
);
},
{
closed = 1;
nodes = (
"150 100 LINE",
"150 200 LINE",
"50 200 LINE",
"50 100 LINE"
);
},
{
closed = 1;
nodes = (
"450 0 LINE",
"450 100 LINE",
"150 100 LINE",
"150 0 LINE"
);
},
{
closed = 1;
nodes = (
"350 200 LINE",
"350 300 LINE",
"150 300 LINE",
"150 200 LINE"
);
},
{
closed = 1;
nodes = (
"450 300 LINE",
"450 400 LINE",
"350 400 LINE",
"350 300 LINE"
);
}
);
width = 500;
},
{
anchors = (
{
name = bottom;
position = "{250, 0}";
},
{
name = center;
position = "{250, 250}";
},
{
name = top;
position = "{250, 500}";
}
);
components = (
{
name = caroncomb;
transform = "{1, 0, 0, 1, -25, 0}";
}
);
layerId = "99106478-E82A-45B6-ABB4-B34A357236DB";
paths = (
{
closed = 1;
nodes = (
"350 400 LINE",
"350 500 LINE",
"50 500 LINE",
"50 400 LINE"
);
},
{
closed = 1;
nodes = (
"150 100 LINE",
"150 200 LINE",
"50 200 LINE",
"50 100 LINE"
);
},
{
closed = 1;
nodes = (
"450 0 LINE",
"450 100 LINE",
"150 100 LINE",
"150 0 LINE"
);
},
{
closed = 1;
nodes = (
"350 200 LINE",
"350 300 LINE",
"150 300 LINE",
"150 200 LINE"
);
},
{
closed = 1;
nodes = (
"450 300 LINE",
"450 400 LINE",
"350 400 LINE",
"350 300 LINE"
);
}
);
width = 500;
},
{
anchors = (
{
name = bottom;
position = "{250, 0}";
},
{
name = center;
position = "{250, 250}";
},
{
name = top;
position = "{250, 500}";
}
);
associatedMasterId = "83004642-28A7-499C-A4A0-A456D2DB2D8A";
components = (
{
name = caroncomb;
transform = "{1, 0, 0, 1, 50, 0}";
}
);
layerId = "C09D2592-7A02-4297-9620-29A36180AACB";
name = "Regular [101]";
paths = (
{
closed = 1;
nodes = (
"150 0 LINE",
"450 0 LINE",
"450 100 LINE",
"150 100 LINE"
);
},
{
closed = 1;
nodes = (
"50 100 LINE",
"150 100 LINE",
"150 300 LINE",
"50 300 LINE"
);
},
{
closed = 1;
nodes = (
"350 200 LINE",
"450 200 LINE",
"450 400 LINE",
"350 400 LINE"
);
},
{
closed = 1;
nodes = (
"50 400 LINE",
"350 400 LINE",
"350 500 LINE",
"50 500 LINE"
);
}
);
width = 500;
},
{
anchors = (
{
name = bottom;
position = "{275, 0}";
},
{
name = center;
position = "{275, 250}";
},
{
name = top;
position = "{275, 500}";
}
);
associatedMasterId = "99106478-E82A-45B6-ABB4-B34A357236DB";
components = (
{
name = caroncomb;
}
);
layerId = "78DF48B9-EC1D-4C4C-8239-B16B0AFC317C";
name = "Bold [101]";
paths = (
{
closed = 1;
nodes = (
"200 0 LINE",
"500 0 LINE",
"500 150 LINE",
"200 150 LINE"
);
},
{
closed = 1;
nodes = (
"50 150 LINE",
"200 150 LINE",
"200 300 LINE",
"50 300 LINE"
);
},
{
closed = 1;
nodes = (
"350 200 LINE",
"500 200 LINE",
"500 350 LINE",
"350 350 LINE"
);
},
{
closed = 1;
nodes = (
"50 350 LINE",
"350 350 LINE",
"350 500 LINE",
"50 500 LINE"
);
}
);
width = 550;
}
);
unicode = 017E;
},
{
glyphname = zdotaccent;
lastChange = "2020-03-11 12:53:52 +0000";
layers = (
{
anchors = (
{
name = bottom;
position = "{250, 0}";
},
{
name = center;
position = "{250, 250}";
},
{
name = top;
position = "{250, 500}";
}
);
components = (
{
name = dotaccentcomb;
transform = "{1, 0, 0, 1, 150, 0}";
}
);
layerId = "83004642-28A7-499C-A4A0-A456D2DB2D8A";
paths = (
{
closed = 1;
nodes = (
"350 400 LINE",
"350 500 LINE",
"50 500 LINE",
"50 400 LINE"
);
},
{
closed = 1;
nodes = (
"150 100 LINE",
"150 200 LINE",
"50 200 LINE",
"50 100 LINE"
);
},
{
closed = 1;
nodes = (
"450 0 LINE",
"450 100 LINE",
"150 100 LINE",
"150 0 LINE"
);
},
{
closed = 1;
nodes = (
"350 200 LINE",
"350 300 LINE",
"150 300 LINE",
"150 200 LINE"
);
},
{
closed = 1;
nodes = (
"450 300 LINE",
"450 400 LINE",
"350 400 LINE",
"350 300 LINE"
);
}
);
width = 500;
},
{
anchors = (
{
name = bottom;
position = "{250, 0}";
},
{
name = center;
position = "{250, 250}";
},
{
name = top;
position = "{250, 500}";
}
);
components = (
{
name = dotaccentcomb;
transform = "{1, 0, 0, 1, 125, 0}";
}
);
layerId = "99106478-E82A-45B6-ABB4-B34A357236DB";
paths = (
{
closed = 1;
nodes = (
"350 400 LINE",
"350 500 LINE",
"50 500 LINE",
"50 400 LINE"
);
},
{
closed = 1;
nodes = (
"150 100 LINE",
"150 200 LINE",
"50 200 LINE",
"50 100 LINE"
);
},
{
closed = 1;
nodes = (
"450 0 LINE",
"450 100 LINE",
"150 100 LINE",
"150 0 LINE"
);
},
{
closed = 1;
nodes = (
"350 200 LINE",
"350 300 LINE",
"150 300 LINE",
"150 200 LINE"
);
},
{
closed = 1;
nodes = (
"450 300 LINE",
"450 400 LINE",
"350 400 LINE",
"350 300 LINE"
);
}
);
width = 500;
},
{
anchors = (
{
name = bottom;
position = "{250, 0}";
},
{
name = center;
position = "{250, 250}";
},
{
name = top;
position = "{250, 500}";
}
);
associatedMasterId = "83004642-28A7-499C-A4A0-A456D2DB2D8A";
components = (
{
name = dotaccentcomb;
transform = "{1, 0, 0, 1, 150, 0}";
}
);
layerId = "8CE9349F-8868-489D-844A-F78717D76EC9";
name = "Regular [101]";
paths = (
{
closed = 1;
nodes = (
"150 0 LINE",
"450 0 LINE",
"450 100 LINE",
"150 100 LINE"
);
},
{
closed = 1;
nodes = (
"50 100 LINE",
"150 100 LINE",
"150 300 LINE",
"50 300 LINE"
);
},
{
closed = 1;
nodes = (
"350 200 LINE",
"450 200 LINE",
"450 400 LINE",
"350 400 LINE"
);
},
{
closed = 1;
nodes = (
"50 400 LINE",
"350 400 LINE",
"350 500 LINE",
"50 500 LINE"
);
}
);
width = 500;
},
{
anchors = (
{
name = bottom;
position = "{275, 0}";
},
{
name = center;
position = "{275, 250}";
},
{
name = top;
position = "{275, 500}";
}
);
associatedMasterId = "99106478-E82A-45B6-ABB4-B34A357236DB";
components = (
{
name = dotaccentcomb;
transform = "{1, 0, 0, 1, 150, 0}";
}
);
layerId = "4B1A59A0-0897-4A8E-B6E9-8CF9781C86D1";
name = "Bold [101]";
paths = (
{
closed = 1;
nodes = (
"200 0 LINE",
"500 0 LINE",
"500 150 LINE",
"200 150 LINE"
);
},
{
closed = 1;
nodes = (
"50 150 LINE",
"200 150 LINE",
"200 300 LINE",
"50 300 LINE"
);
},
{
closed = 1;
nodes = (
"350 200 LINE",
"500 200 LINE",
"500 350 LINE",
"350 350 LINE"
);
},
{
closed = 1;
nodes = (
"50 350 LINE",
"350 350 LINE",
"350 500 LINE",
"50 500 LINE"
);
}
);
width = 550;
}
);
unicode = 017C;
},
{
glyphname = iacute_j.loclNLD;
lastChange = "2020-03-04 22:14:16 +0000";
layers = (
{
layerId = "83004642-28A7-499C-A4A0-A456D2DB2D8A";
paths = (
{
closed = 1;
nodes = (
"385 -100 LINE",
"385 400 LINE",
"285 400 LINE",
"285 -100 LINE"
);
},
{
closed = 1;
nodes = (
"285 -200 LINE",
"285 -100 LINE",
"185 -100 LINE",
"185 -200 LINE"
);
},
{
closed = 1;
nodes = (
"150 0 LINE",
"150 400 LINE",
"50 400 LINE",
"50 0 LINE"
);
},
{
closed = 1;
nodes = (
"150 500 LINE",
"150 600 LINE",
"50 600 LINE",
"50 500 LINE"
);
},
{
closed = 1;
nodes = (
"250 600 LINE",
"250 700 LINE",
"150 700 LINE",
"150 600 LINE"
);
},
{
closed = 1;
nodes = (
"385 500 LINE",
"385 600 LINE",
"285 600 LINE",
"285 500 LINE"
);
},
{
closed = 1;
nodes = (
"485 600 LINE",
"485 700 LINE",
"385 700 LINE",
"385 600 LINE"
);
}
);
width = 485;
},
{
layerId = "99106478-E82A-45B6-ABB4-B34A357236DB";
paths = (
{
closed = 1;
nodes = (
"535 -100 LINE",
"535 400 LINE",
"385 400 LINE",
"385 -100 LINE"
);
},
{
closed = 1;
nodes = (
"385 -200 LINE",
"385 -100 LINE",
"235 -100 LINE",
"235 -200 LINE"
);
},
{
closed = 1;
nodes = (
"200 0 LINE",
"200 400 LINE",
"50 400 LINE",
"50 0 LINE"
);
},
{
closed = 1;
nodes = (
"200 500 LINE",
"200 600 LINE",
"50 600 LINE",
"50 500 LINE"
);
},
{
closed = 1;
nodes = (
"350 600 LINE",
"350 700 LINE",
"200 700 LINE",
"200 600 LINE"
);
},
{
closed = 1;
nodes = (
"535 500 LINE",
"535 600 LINE",
"385 600 LINE",
"385 500 LINE"
);
},
{
closed = 1;
nodes = (
"685 600 LINE",
"685 700 LINE",
"535 700 LINE",
"535 600 LINE"
);
}
);
width = 685;
}
);
},
{
glyphname = f_f.liga;
lastChange = "2020-03-08 17:33:44 +0000";
layers = (
{
layerId = "83004642-28A7-499C-A4A0-A456D2DB2D8A";
paths = (
{
closed = 1;
nodes = (
"500 0 LINE",
"500 400 LINE",
"400 400 LINE",
"400 0 LINE"
);
},
{
closed = 1;
nodes = (
"150 0 LINE",
"150 400 LINE",
"50 400 LINE",
"50 0 LINE"
);
},
{
closed = 1;
nodes = (
"150 500 LINE",
"150 600 LINE",
"50 600 LINE",
"50 500 LINE"
);
},
{
closed = 1;
nodes = (
"400 400 LINE",
"400 500 LINE",
"150 500 LINE",
"150 400 LINE"
);
},
{
closed = 1;
nodes = (
"350 600 LINE",
"350 700 LINE",
"150 700 LINE",
"150 600 LINE"
);
},
{
closed = 1;
nodes = (
"500 500 LINE",
"500 600 LINE",
"400 600 LINE",
"400 500 LINE"
);
},
{
closed = 1;
nodes = (
"700 400 LINE",
"700 500 LINE",
"500 500 LINE",
"500 400 LINE"
);
},
{
closed = 1;
nodes = (
"700 600 LINE",
"700 700 LINE",
"500 700 LINE",
"500 600 LINE"
);
}
);
width = 700;
},
{
layerId = "99106478-E82A-45B6-ABB4-B34A357236DB";
paths = (
{
closed = 1;
nodes = (
"600 0 LINE",
"600 350 LINE",
"450 350 LINE",
"450 0 LINE"
);
},
{
closed = 1;
nodes = (
"200 0 LINE",
"200 350 LINE",
"50 350 LINE",
"50 0 LINE"
);
},
{
closed = 1;
nodes = (
"200 450 LINE",
"200 550 LINE",
"50 550 LINE",
"50 450 LINE"
);
},
{
closed = 1;
nodes = (
"450 350 LINE",
"450 450 LINE",
"200 450 LINE",
"200 350 LINE"
);
},
{
closed = 1;
nodes = (
"400 550 LINE",
"400 700 LINE",
"200 700 LINE",
"200 550 LINE"
);
},
{
closed = 1;
nodes = (
"600 450 LINE",
"600 550 LINE",
"450 550 LINE",
"450 450 LINE"
);
},
{
closed = 1;
nodes = (
"800 350 LINE",
"800 450 LINE",
"600 450 LINE",
"600 350 LINE"
);
},
{
closed = 1;
nodes = (
"800 550 LINE",
"800 700 LINE",
"600 700 LINE",
"600 550 LINE"
);
}
);
width = 835;
}
);
leftKerningGroup = f;
leftMetricsKey = f;
rightKerningGroup = f;
rightMetricsKey = f;
},
{
glyphname = l_l.liga;
lastChange = "2020-03-04 22:21:46 +0000";
layers = (
{
layerId = "83004642-28A7-499C-A4A0-A456D2DB2D8A";
paths = (
{
closed = 1;
nodes = (
"450 100 LINE",
"450 700 LINE",
"350 700 LINE",
"350 100 LINE"
);
},
{
closed = 1;
nodes = (
"300 0 LINE",
"300 100 LINE",
"150 100 LINE",
"150 0 LINE"
);
},
{
closed = 1;
nodes = (
"150 100 LINE",
"150 700 LINE",
"50 700 LINE",
"50 100 LINE"
);
},
{
closed = 1;
nodes = (
"600 0 LINE",
"600 100 LINE",
"450 100 LINE",
"450 0 LINE"
);
}
);
width = 600;
},
{
layerId = "99106478-E82A-45B6-ABB4-B34A357236DB";
paths = (
{
closed = 1;
nodes = (
"576 150 LINE",
"576 700 LINE",
"426 700 LINE",
"426 150 LINE"
);
},
{
closed = 1;
nodes = (
"376 0 LINE",
"376 150 LINE",
"201 150 LINE",
"201 0 LINE"
);
},
{
closed = 1;
nodes = (
"201 150 LINE",
"201 700 LINE",
"51 700 LINE",
"50 150 LINE"
);
},
{
closed = 1;
nodes = (
"751 0 LINE",
"751 150 LINE",
"576 150 LINE",
"576 0 LINE"
);
}
);
width = 751;
}
);
leftMetricsKey = l;
rightKerningGroup = L;
rightMetricsKey = l;
},
{
glyphname = t_t.liga;
lastChange = "2020-03-04 22:23:22 +0000";
layers = (
{
layerId = "83004642-28A7-499C-A4A0-A456D2DB2D8A";
paths = (
{
closed = 1;
nodes = (
"550 100 LINE",
"550 400 LINE",
"450 400 LINE",
"450 100 LINE"
);
},
{
closed = 1;
nodes = (
"450 0 LINE",
"450 100 LINE",
"250 100 LINE",
"250 0 LINE"
);
},
{
closed = 1;
nodes = (
"250 100 LINE",
"250 400 LINE",
"150 400 LINE",
"150 100 LINE"
);
},
{
closed = 1;
nodes = (
"150 400 LINE",
"150 500 LINE",
"50 500 LINE",
"50 400 LINE"
);
},
{
closed = 1;
nodes = (
"750 0 LINE",
"750 100 LINE",
"550 100 LINE",
"550 0 LINE"
);
},
{
closed = 1;
nodes = (
"250 500 LINE",
"250 600 LINE",
"150 600 LINE",
"150 500 LINE"
);
},
{
closed = 1;
nodes = (
"450 400 LINE",
"450 500 LINE",
"250 500 LINE",
"250 400 LINE"
);
},
{
closed = 1;
nodes = (
"550 500 LINE",
"550 600 LINE",
"450 600 LINE",
"450 500 LINE"
);
},
{
closed = 1;
nodes = (
"750 400 LINE",
"750 500 LINE",
"550 500 LINE",
"550 400 LINE"
);
}
);
width = 800;
},
{
layerId = "99106478-E82A-45B6-ABB4-B34A357236DB";
paths = (
{
closed = 1;
nodes = (
"650 150 LINE",
"650 350 LINE",
"500 350 LINE",
"500 150 LINE"
);
},
{
closed = 1;
nodes = (
"500 0 LINE",
"500 150 LINE",
"300 150 LINE",
"300 0 LINE"
);
},
{
closed = 1;
nodes = (
"300 150 LINE",
"300 350 LINE",
"150 350 LINE",
"150 150 LINE"
);
},
{
closed = 1;
nodes = (
"150 350 LINE",
"150 500 LINE",
"50 500 LINE",
"50 350 LINE"
);
},
{
closed = 1;
nodes = (
"850 0 LINE",
"850 150 LINE",
"650 150 LINE",
"650 0 LINE"
);
},
{
closed = 1;
nodes = (
"300 500 LINE",
"300 650 LINE",
"150 650 LINE",
"150 500 LINE"
);
},
{
closed = 1;
nodes = (
"500 350 LINE",
"500 500 LINE",
"300 500 LINE",
"300 350 LINE"
);
},
{
closed = 1;
nodes = (
"650 500 LINE",
"650 650 LINE",
"500 650 LINE",
"500 500 LINE"
);
},
{
closed = 1;
nodes = (
"850 350 LINE",
"850 500 LINE",
"650 500 LINE",
"650 350 LINE"
);
}
);
width = 900;
}
);
leftKerningGroup = t;
leftMetricsKey = t;
rightKerningGroup = t;
rightMetricsKey = t;
},
{
glyphname = zero;
lastChange = "2020-03-10 11:58:57 +0000";
layers = (
{
layerId = "83004642-28A7-499C-A4A0-A456D2DB2D8A";
paths = (
{
closed = 1;
nodes = (
"450 100 LINE",
"450 700 LINE",
"350 700 LINE",
"350 100 LINE"
);
},
{
closed = 1;
nodes = (
"350 0 LINE",
"350 100 LINE",
"150 100 LINE",
"150 0 LINE"
);
},
{
closed = 1;
nodes = (
"150 100 LINE",
"150 700 LINE",
"50 700 LINE",
"50 100 LINE"
);
},
{
closed = 1;
nodes = (
"350 700 LINE",
"350 800 LINE",
"150 800 LINE",
"150 700 LINE"
);
}
);
width = 500;
},
{
layerId = "99106478-E82A-45B6-ABB4-B34A357236DB";
paths = (
{
closed = 1;
nodes = (
"600 150 LINE",
"600 650 LINE",
"450 650 LINE",
"450 150 LINE"
);
},
{
closed = 1;
nodes = (
"450 0 LINE",
"450 150 LINE",
"200 150 LINE",
"200 0 LINE"
);
},
{
closed = 1;
nodes = (
"200 150 LINE",
"200 650 LINE",
"50 650 LINE",
"50 150 LINE"
);
},
{
closed = 1;
nodes = (
"450 650 LINE",
"450 800 LINE",
"200 800 LINE",
"200 650 LINE"
);
}
);
width = 650;
}
);
unicode = 0030;
},
{
glyphname = one;
lastChange = "2020-03-11 16:41:23 +0000";
layers = (
{
layerId = "83004642-28A7-499C-A4A0-A456D2DB2D8A";
paths = (
{
closed = 1;
nodes = (
"300 0 LINE",
"300 700 LINE",
"200 700 LINE",
"200 0 LINE"
);
},
{
closed = 1;
nodes = (
"200 700 LINE",
"200 800 LINE",
"50 800 LINE",
"50 700 LINE"
);
}
);
width = 350;
},
{
associatedMasterId = "83004642-28A7-499C-A4A0-A456D2DB2D8A";
layerId = "C547F7AC-4101-49B9-8792-A7C69A452BD4";
name = "Jan 22 20, 13:44";
paths = (
{
closed = 1;
nodes = (
"350 700 LINE",
"350 0 LINE",
"450 0 LINE",
"450 700 LINE"
);
},
{
closed = 1;
nodes = (
"150 700 LINE",
"350 700 LINE",
"350 800 LINE",
"150 800 LINE"
);
}
);
width = 600;
},
{
layerId = "99106478-E82A-45B6-ABB4-B34A357236DB";
paths = (
{
closed = 1;
nodes = (
"350 0 LINE",
"350 650 LINE",
"200 650 LINE",
"200 0 LINE"
);
},
{
closed = 1;
nodes = (
"200 650 LINE",
"200 800 LINE",
"50 800 LINE",
"50 650 LINE"
);
}
);
width = 400;
}
);
unicode = 0031;
},
{
glyphname = two;
lastChange = "2020-03-10 13:43:31 +0000";
layers = (
{
layerId = "83004642-28A7-499C-A4A0-A456D2DB2D8A";
paths = (
{
closed = 1;
nodes = (
"450 0 LINE",
"450 100 LINE",
"150 100 LINE",
"150 0 LINE"
);
},
{
closed = 1;
nodes = (
"150 100 LINE",
"150 300 LINE",
"50 300 LINE",
"50 100 LINE"
);
},
{
closed = 1;
nodes = (
"450 400 LINE",
"450 700 LINE",
"350 700 LINE",
"350 400 LINE"
);
},
{
closed = 1;
nodes = (
"350 300 LINE",
"350 400 LINE",
"150 400 LINE",
"150 300 LINE"
);
},
{
closed = 1;
nodes = (
"150 500 LINE",
"150 700 LINE",
"50 700 LINE",
"50 500 LINE"
);
},
{
closed = 1;
nodes = (
"350 700 LINE",
"350 800 LINE",
"150 800 LINE",
"150 700 LINE"
);
}
);
width = 500;
},
{
layerId = "99106478-E82A-45B6-ABB4-B34A357236DB";
paths = (
{
closed = 1;
nodes = (
"550 0 LINE",
"550 150 LINE",
"200 150 LINE",
"200 0 LINE"
);
},
{
closed = 1;
nodes = (
"200 150 LINE",
"200 300 LINE",
"50 300 LINE",
"50 150 LINE"
);
},
{
closed = 1;
nodes = (
"550 450 LINE",
"550 650 LINE",
"400 650 LINE",
"400 450 LINE"
);
},
{
closed = 1;
nodes = (
"400 300 LINE",
"400 450 LINE",
"200 450 LINE",
"200 300 LINE"
);
},
{
closed = 1;
nodes = (
"200 500 LINE",
"200 650 LINE",
"50 650 LINE",
"50 500 LINE"
);
},
{
closed = 1;
nodes = (
"400 650 LINE",
"400 800 LINE",
"200 800 LINE",
"200 650 LINE"
);
}
);
width = 600;
}
);
unicode = 0032;
},
{
glyphname = three;
lastChange = "2020-03-10 12:02:35 +0000";
layers = (
{
layerId = "83004642-28A7-499C-A4A0-A456D2DB2D8A";
paths = (
{
closed = 1;
nodes = (
"450 100 LINE",
"450 400 LINE",
"350 400 LINE",
"350 100 LINE"
);
},
{
closed = 1;
nodes = (
"150 100 LINE",
"150 200 LINE",
"50 200 LINE",
"50 100 LINE"
);
},
{
closed = 1;
nodes = (
"350 0 LINE",
"350 100 LINE",
"150 100 LINE",
"150 0 LINE"
);
},
{
closed = 1;
nodes = (
"350 400 LINE",
"350 500 LINE",
"150 500 LINE",
"150 400 LINE"
);
},
{
closed = 1;
nodes = (
"150 600 LINE",
"150 700 LINE",
"50 700 LINE",
"50 600 LINE"
);
},
{
closed = 1;
nodes = (
"450 500 LINE",
"450 700 LINE",
"350 700 LINE",
"350 500 LINE"
);
},
{
closed = 1;
nodes = (
"350 700 LINE",
"350 800 LINE",
"150 800 LINE",
"150 700 LINE"
);
}
);
width = 500;
},
{
layerId = "99106478-E82A-45B6-ABB4-B34A357236DB";
paths = (
{
closed = 1;
nodes = (
"530 150 LINE",
"530 350 LINE",
"390 350 LINE",
"390 150 LINE"
);
},
{
closed = 1;
nodes = (
"190 150 LINE",
"190 300 LINE",
"50 300 LINE",
"50 150 LINE"
);
},
{
closed = 1;
nodes = (
"390 0 LINE",
"390 150 LINE",
"190 150 LINE",
"190 0 LINE"
);
},
{
closed = 1;
nodes = (
"390 350 LINE",
"390 450 LINE",
"190 450 LINE",
"190 350 LINE"
);
},
{
closed = 1;
nodes = (
"190 500 LINE",
"190 650 LINE",
"50 650 LINE",
"50 500 LINE"
);
},
{
closed = 1;
nodes = (
"530 450 LINE",
"530 650 LINE",
"390 650 LINE",
"390 450 LINE"
);
},
{
closed = 1;
nodes = (
"390 650 LINE",
"390 800 LINE",
"190 800 LINE",
"190 650 LINE"
);
}
);
width = 580;
}
);
unicode = 0033;
},
{
glyphname = four;
lastChange = "2020-03-10 13:43:51 +0000";
layers = (
{
layerId = "83004642-28A7-499C-A4A0-A456D2DB2D8A";
paths = (
{
closed = 1;
nodes = (
"450 400 LINE",
"450 800 LINE",
"350 800 LINE",
"350 400 LINE"
);
},
{
closed = 1;
nodes = (
"450 0 LINE",
"450 300 LINE",
"350 300 LINE",
"350 0 LINE"
);
},
{
closed = 1;
nodes = (
"150 400 LINE",
"150 600 LINE",
"50 600 LINE",
"50 400 LINE"
);
},
{
closed = 1;
nodes = (
"350 300 LINE",
"350 400 LINE",
"150 400 LINE",
"150 300 LINE"
);
},
{
closed = 1;
nodes = (
"250 600 LINE",
"250 800 LINE",
"150 800 LINE",
"150 600 LINE"
);
}
);
width = 500;
},
{
layerId = "99106478-E82A-45B6-ABB4-B34A357236DB";
paths = (
{
closed = 1;
nodes = (
"600 400 LINE",
"600 800 LINE",
"450 800 LINE",
"450 400 LINE"
);
},
{
closed = 1;
nodes = (
"600 0 LINE",
"600 250 LINE",
"450 250 LINE",
"450 0 LINE"
);
},
{
closed = 1;
nodes = (
"200 400 LINE",
"200 600 LINE",
"50 600 LINE",
"50 400 LINE"
);
},
{
closed = 1;
nodes = (
"450 250 LINE",
"450 400 LINE",
"200 400 LINE",
"200 250 LINE"
);
},
{
closed = 1;
nodes = (
"350 600 LINE",
"350 800 LINE",
"200 800 LINE",
"200 600 LINE"
);
}
);
width = 650;
}
);
unicode = 0034;
},
{
glyphname = five;
lastChange = "2020-03-10 13:44:12 +0000";
layers = (
{
layerId = "83004642-28A7-499C-A4A0-A456D2DB2D8A";
paths = (
{
closed = 1;
nodes = (
"450 700 LINE",
"450 800 LINE",
"150 800 LINE",
"150 700 LINE"
);
},
{
closed = 1;
nodes = (
"150 100 LINE",
"150 300 LINE",
"50 300 LINE",
"50 100 LINE"
);
},
{
closed = 1;
nodes = (
"350 0 LINE",
"350 100 LINE",
"150 100 LINE",
"150 0 LINE"
);
},
{
closed = 1;
nodes = (
"150 500 LINE",
"150 700 LINE",
"50 700 LINE",
"50 500 LINE"
);
},
{
closed = 1;
nodes = (
"450 100 LINE",
"450 400 LINE",
"350 400 LINE",
"350 100 LINE"
);
},
{
closed = 1;
nodes = (
"350 400 LINE",
"350 500 LINE",
"150 500 LINE",
"150 400 LINE"
);
}
);
width = 500;
},
{
layerId = "99106478-E82A-45B6-ABB4-B34A357236DB";
paths = (
{
closed = 1;
nodes = (
"550 650 LINE",
"550 800 LINE",
"200 800 LINE",
"200 650 LINE"
);
},
{
closed = 1;
nodes = (
"200 150 LINE",
"200 300 LINE",
"50 300 LINE",
"50 150 LINE"
);
},
{
closed = 1;
nodes = (
"400 0 LINE",
"400 150 LINE",
"200 150 LINE",
"200 0 LINE"
);
},
{
closed = 1;
nodes = (
"200 500 LINE",
"200 650 LINE",
"50 650 LINE",
"50 500 LINE"
);
},
{
closed = 1;
nodes = (
"550 150 LINE",
"550 350 LINE",
"400 350 LINE",
"400 150 LINE"
);
},
{
closed = 1;
nodes = (
"400 350 LINE",
"400 500 LINE",
"200 500 LINE",
"200 350 LINE"
);
}
);
width = 600;
}
);
unicode = 0035;
},
{
glyphname = six;
lastChange = "2020-03-10 12:04:51 +0000";
layers = (
{
layerId = "83004642-28A7-499C-A4A0-A456D2DB2D8A";
paths = (
{
closed = 1;
nodes = (
"450 100 LINE",
"450 400 LINE",
"350 400 LINE",
"350 100 LINE"
);
},
{
closed = 1;
nodes = (
"350 0 LINE",
"350 100 LINE",
"150 100 LINE",
"150 0 LINE"
);
},
{
closed = 1;
nodes = (
"150 100 LINE",
"150 400 LINE",
"50 400 LINE",
"50 100 LINE"
);
},
{
closed = 1;
nodes = (
"350 400 LINE",
"350 500 LINE",
"150 500 LINE",
"150 400 LINE"
);
},
{
closed = 1;
nodes = (
"150 500 LINE",
"150 700 LINE",
"50 700 LINE",
"50 500 LINE"
);
},
{
closed = 1;
nodes = (
"350 700 LINE",
"350 800 LINE",
"150 800 LINE",
"150 700 LINE"
);
},
{
closed = 1;
nodes = (
"450 600 LINE",
"450 700 LINE",
"350 700 LINE",
"350 600 LINE"
);
}
);
width = 500;
},
{
layerId = "99106478-E82A-45B6-ABB4-B34A357236DB";
paths = (
{
closed = 1;
nodes = (
"550 150 LINE",
"550 350 LINE",
"400 350 LINE",
"400 150 LINE"
);
},
{
closed = 1;
nodes = (
"400 0 LINE",
"400 150 LINE",
"200 150 LINE",
"200 0 LINE"
);
},
{
closed = 1;
nodes = (
"200 150 LINE",
"200 350 LINE",
"50 350 LINE",
"50 150 LINE"
);
},
{
closed = 1;
nodes = (
"400 350 LINE",
"400 450 LINE",
"200 450 LINE",
"200 350 LINE"
);
},
{
closed = 1;
nodes = (
"200 450 LINE",
"200 650 LINE",
"50 650 LINE",
"50 450 LINE"
);
},
{
closed = 1;
nodes = (
"400 650 LINE",
"400 800 LINE",
"200 800 LINE",
"200 650 LINE"
);
},
{
closed = 1;
nodes = (
"550 525 LINE",
"550 650 LINE",
"400 650 LINE",
"400 525 LINE"
);
}
);
width = 600;
}
);
unicode = 0036;
},
{
glyphname = seven;
lastChange = "2020-03-10 12:00:59 +0000";
layers = (
{
layerId = "83004642-28A7-499C-A4A0-A456D2DB2D8A";
paths = (
{
closed = 1;
nodes = (
"350 700 LINE",
"350 800 LINE",
"50 800 LINE",
"50 700 LINE"
);
},
{
closed = 1;
nodes = (
"250 0 LINE",
"250 300 LINE",
"150 300 LINE",
"150 0 LINE"
);
},
{
closed = 1;
nodes = (
"350 300 LINE",
"350 500 LINE",
"250 500 LINE",
"250 300 LINE"
);
},
{
closed = 1;
nodes = (
"450 500 LINE",
"450 700 LINE",
"350 700 LINE",
"350 500 LINE"
);
}
);
width = 500;
},
{
layerId = "99106478-E82A-45B6-ABB4-B34A357236DB";
paths = (
{
closed = 1;
nodes = (
"400 650 LINE",
"400 800 LINE",
"50 800 LINE",
"50 650 LINE"
);
},
{
closed = 1;
nodes = (
"250 0 LINE",
"250 250 LINE",
"100 250 LINE",
"100 0 LINE"
);
},
{
closed = 1;
nodes = (
"400 250 LINE",
"400 450 LINE",
"250 450 LINE",
"250 250 LINE"
);
},
{
closed = 1;
nodes = (
"550 450 LINE",
"550 650 LINE",
"400 650 LINE",
"400 450 LINE"
);
}
);
width = 600;
}
);
unicode = 0037;
},
{
glyphname = eight;
lastChange = "2020-03-10 12:05:27 +0000";
layers = (
{
layerId = "83004642-28A7-499C-A4A0-A456D2DB2D8A";
paths = (
{
closed = 1;
nodes = (
"450 100 LINE",
"450 400 LINE",
"350 400 LINE",
"350 100 LINE"
);
},
{
closed = 1;
nodes = (
"350 0 LINE",
"350 100 LINE",
"150 100 LINE",
"150 0 LINE"
);
},
{
closed = 1;
nodes = (
"150 100 LINE",
"150 400 LINE",
"50 400 LINE",
"50 100 LINE"
);
},
{
closed = 1;
nodes = (
"350 400 LINE",
"350 500 LINE",
"150 500 LINE",
"150 400 LINE"
);
},
{
closed = 1;
nodes = (
"150 500 LINE",
"150 700 LINE",
"50 700 LINE",
"50 500 LINE"
);
},
{
closed = 1;
nodes = (
"350 700 LINE",
"350 800 LINE",
"150 800 LINE",
"150 700 LINE"
);
},
{
closed = 1;
nodes = (
"450 500 LINE",
"450 700 LINE",
"350 700 LINE",
"350 500 LINE"
);
}
);
width = 500;
},
{
layerId = "99106478-E82A-45B6-ABB4-B34A357236DB";
paths = (
{
closed = 1;
nodes = (
"550 150 LINE",
"550 350 LINE",
"400 350 LINE",
"400 150 LINE"
);
},
{
closed = 1;
nodes = (
"400 0 LINE",
"400 150 LINE",
"200 150 LINE",
"200 0 LINE"
);
},
{
closed = 1;
nodes = (
"200 150 LINE",
"200 350 LINE",
"50 350 LINE",
"50 150 LINE"
);
},
{
closed = 1;
nodes = (
"400 350 LINE",
"400 450 LINE",
"200 450 LINE",
"200 350 LINE"
);
},
{
closed = 1;
nodes = (
"200 450 LINE",
"200 650 LINE",
"50 650 LINE",
"50 450 LINE"
);
},
{
closed = 1;
nodes = (
"400 650 LINE",
"400 800 LINE",
"200 800 LINE",
"200 650 LINE"
);
},
{
closed = 1;
nodes = (
"550 450 LINE",
"550 650 LINE",
"400 650 LINE",
"400 450 LINE"
);
}
);
width = 600;
}
);
unicode = 0038;
},
{
glyphname = fraction;
lastChange = "2020-03-10 12:05:39 +0000";
layers = (
{
layerId = "83004642-28A7-499C-A4A0-A456D2DB2D8A";
paths = (
{
closed = 1;
nodes = (
"450 600 LINE",
"450 800 LINE",
"350 800 LINE",
"350 600 LINE"
);
},
{
closed = 1;
nodes = (
"150 0 LINE",
"150 200 LINE",
"50 200 LINE",
"50 0 LINE"
);
},
{
closed = 1;
nodes = (
"250 200 LINE",
"250 400 LINE",
"150 400 LINE",
"150 200 LINE"
);
},
{
closed = 1;
nodes = (
"350 400 LINE",
"350 600 LINE",
"250 600 LINE",
"250 400 LINE"
);
}
);
width = 500;
},
{
layerId = "99106478-E82A-45B6-ABB4-B34A357236DB";
paths = (
{
closed = 1;
nodes = (
"650 600 LINE",
"650 800 LINE",
"500 800 LINE",
"500 600 LINE"
);
},
{
closed = 1;
nodes = (
"200 0 LINE",
"200 200 LINE",
"50 200 LINE",
"50 0 LINE"
);
},
{
closed = 1;
nodes = (
"350 200 LINE",
"350 400 LINE",
"200 400 LINE",
"200 200 LINE"
);
},
{
closed = 1;
nodes = (
"500 400 LINE",
"500 600 LINE",
"350 600 LINE",
"350 400 LINE"
);
}
);
width = 700;
}
);
unicode = 2044;
},
{
glyphname = comma;
lastChange = "2020-03-08 17:53:49 +0000";
layers = (
{
layerId = "83004642-28A7-499C-A4A0-A456D2DB2D8A";
paths = (
{
closed = 1;
nodes = (
"150 -100 LINE",
"150 100 LINE",
"50 100 LINE",
"50 -100 LINE"
);
},
{
closed = 1;
nodes = (
"50 -200 LINE",
"50 -100 LINE",
"-50 -100 LINE",
"-50 -200 LINE"
);
}
);
width = 200;
},
{
layerId = "99106478-E82A-45B6-ABB4-B34A357236DB";
paths = (
{
closed = 1;
nodes = (
"200 -100 LINE",
"200 150 LINE",
"50 150 LINE",
"50 -100 LINE"
);
},
{
closed = 1;
nodes = (
"50 -200 LINE",
"50 -100 LINE",
"-100 -100 LINE",
"-100 -200 LINE"
);
}
);
width = 250;
}
);
leftKerningGroup = virgule;
rightKerningGroup = point;
unicode = 002C;
},
{
glyphname = exclam;
lastChange = "2020-03-03 14:34:43 +0000";
layers = (
{
components = (
{
name = _part.point;
}
);
layerId = "83004642-28A7-499C-A4A0-A456D2DB2D8A";
paths = (
{
closed = 1;
nodes = (
"150 200 LINE",
"150 800 LINE",
"50 800 LINE",
"50 200 LINE"
);
}
);
width = 200;
},
{
components = (
{
name = _part.point;
}
);
layerId = "99106478-E82A-45B6-ABB4-B34A357236DB";
paths = (
{
closed = 1;
nodes = (
"200 250 LINE",
"200 800 LINE",
"50 800 LINE",
"50 250 LINE"
);
}
);
width = 250;
}
);
unicode = 0021;
},
{
glyphname = question;
lastChange = "2020-03-03 14:34:43 +0000";
layers = (
{
components = (
{
name = _part.point;
transform = "{1, 0, 0, 1, 100, 0}";
}
);
layerId = "83004642-28A7-499C-A4A0-A456D2DB2D8A";
paths = (
{
closed = 1;
nodes = (
"350 400 LINE",
"350 700 LINE",
"250 700 LINE",
"250 400 LINE"
);
},
{
closed = 1;
nodes = (
"250 200 LINE",
"250 400 LINE",
"150 400 LINE",
"150 200 LINE"
);
},
{
closed = 1;
nodes = (
"150 500 LINE",
"150 700 LINE",
"50 700 LINE",
"50 500 LINE"
);
},
{
closed = 1;
nodes = (
"250 700 LINE",
"250 800 LINE",
"150 800 LINE",
"150 700 LINE"
);
}
);
width = 400;
},
{
components = (
{
name = _part.point;
transform = "{1, 0, 0, 1, 150, 0}";
}
);
layerId = "99106478-E82A-45B6-ABB4-B34A357236DB";
paths = (
{
closed = 1;
nodes = (
"500 400 LINE",
"500 650 LINE",
"350 650 LINE",
"350 400 LINE"
);
},
{
closed = 1;
nodes = (
"350 250 LINE",
"350 400 LINE",
"200 400 LINE",
"200 250 LINE"
);
},
{
closed = 1;
nodes = (
"200 500 LINE",
"200 650 LINE",
"50 650 LINE",
"50 500 LINE"
);
},
{
closed = 1;
nodes = (
"350 650 LINE",
"350 800 LINE",
"200 800 LINE",
"200 650 LINE"
);
}
);
width = 550;
}
);
unicode = 003F;
},
{
glyphname = bullet;
lastChange = "2020-02-25 20:06:53 +0000";
layers = (
{
layerId = "83004642-28A7-499C-A4A0-A456D2DB2D8A";
paths = (
{
closed = 1;
nodes = (
"280 92 OFFCURVE",
"351 163 OFFCURVE",
"351 250 CURVE SMOOTH",
"351 336 OFFCURVE",
"280 408 OFFCURVE",
"193 408 CURVE SMOOTH",
"105 408 OFFCURVE",
"35 336 OFFCURVE",
"35 250 CURVE SMOOTH",
"35 163 OFFCURVE",
"105 92 OFFCURVE",
"193 92 CURVE SMOOTH"
);
}
);
width = 386;
},
{
layerId = "99106478-E82A-45B6-ABB4-B34A357236DB";
paths = (
{
closed = 1;
nodes = (
"280 92 OFFCURVE",
"351 163 OFFCURVE",
"351 250 CURVE SMOOTH",
"351 336 OFFCURVE",
"280 408 OFFCURVE",
"193 408 CURVE SMOOTH",
"105 408 OFFCURVE",
"35 336 OFFCURVE",
"35 250 CURVE SMOOTH",
"35 163 OFFCURVE",
"105 92 OFFCURVE",
"193 92 CURVE SMOOTH"
);
}
);
width = 386;
}
);
unicode = 2022;
},
{
glyphname = asterisk;
lastChange = "2020-03-10 14:27:31 +0000";
layers = (
{
layerId = "83004642-28A7-499C-A4A0-A456D2DB2D8A";
paths = (
{
closed = 1;
nodes = (
"335 600 LINE",
"335 800 LINE",
"235 800 LINE",
"235 600 LINE"
);
},
{
closed = 1;
nodes = (
"135 400 LINE",
"135 500 LINE",
"35 500 LINE",
"35 400 LINE"
);
},
{
closed = 1;
nodes = (
"335 300 LINE",
"335 500 LINE",
"235 500 LINE",
"235 300 LINE"
);
},
{
closed = 1;
nodes = (
"235 500 LINE",
"235 600 LINE",
"135 600 LINE",
"135 500 LINE"
);
},
{
closed = 1;
nodes = (
"135 600 LINE",
"135 700 LINE",
"35 700 LINE",
"35 600 LINE"
);
},
{
closed = 1;
nodes = (
"435 500 LINE",
"435 600 LINE",
"335 600 LINE",
"335 500 LINE"
);
},
{
closed = 1;
nodes = (
"535 400 LINE",
"535 500 LINE",
"435 500 LINE",
"435 400 LINE"
);
},
{
closed = 1;
nodes = (
"535 600 LINE",
"535 700 LINE",
"435 700 LINE",
"435 600 LINE"
);
}
);
width = 570;
},
{
layerId = "99106478-E82A-45B6-ABB4-B34A357236DB";
paths = (
{
closed = 1;
nodes = (
"350 550 LINE",
"350 800 LINE",
"250 800 LINE",
"250 550 LINE"
);
},
{
closed = 1;
nodes = (
"150 250 LINE",
"150 400 LINE",
"50 400 LINE",
"50 250 LINE"
);
},
{
closed = 1;
nodes = (
"350 150 LINE",
"350 400 LINE",
"250 400 LINE",
"250 150 LINE"
);
},
{
closed = 1;
nodes = (
"250 400 LINE",
"250 550 LINE",
"150 550 LINE",
"150 400 LINE"
);
},
{
closed = 1;
nodes = (
"150 550 LINE",
"150 700 LINE",
"50 700 LINE",
"50 550 LINE"
);
},
{
closed = 1;
nodes = (
"450 400 LINE",
"450 550 LINE",
"350 550 LINE",
"350 400 LINE"
);
},
{
closed = 1;
nodes = (
"550 250 LINE",
"550 400 LINE",
"450 400 LINE",
"450 250 LINE"
);
},
{
closed = 1;
nodes = (
"550 550 LINE",
"550 700 LINE",
"450 700 LINE",
"450 550 LINE"
);
}
);
width = 600;
}
);
unicode = 002A;
},
{
glyphname = numbersign;
lastChange = "2020-03-09 18:36:19 +0000";
layers = (
{
layerId = "83004642-28A7-499C-A4A0-A456D2DB2D8A";
paths = (
{
closed = 1;
nodes = (
"450 600 LINE",
"450 800 LINE",
"350 800 LINE",
"350 600 LINE"
);
},
{
closed = 1;
nodes = (
"250 0 LINE",
"250 200 LINE",
"150 200 LINE",
"150 0 LINE"
);
},
{
closed = 1;
nodes = (
"150 200 LINE",
"150 300 LINE",
"50 300 LINE",
"50 200 LINE"
);
},
{
closed = 1;
nodes = (
"450 0 LINE",
"450 200 LINE",
"350 200 LINE",
"350 0 LINE"
);
},
{
closed = 1;
nodes = (
"350 200 LINE",
"350 300 LINE",
"250 300 LINE",
"250 200 LINE"
);
},
{
closed = 1;
nodes = (
"250 300 LINE",
"250 500 LINE",
"150 500 LINE",
"150 300 LINE"
);
},
{
closed = 1;
nodes = (
"150 500 LINE",
"150 600 LINE",
"50 600 LINE",
"50 500 LINE"
);
},
{
closed = 1;
nodes = (
"550 200 LINE",
"550 300 LINE",
"450 300 LINE",
"450 200 LINE"
);
},
{
closed = 1;
nodes = (
"450 300 LINE",
"450 500 LINE",
"350 500 LINE",
"350 300 LINE"
);
},
{
closed = 1;
nodes = (
"350 500 LINE",
"350 600 LINE",
"250 600 LINE",
"250 500 LINE"
);
},
{
closed = 1;
nodes = (
"250 600 LINE",
"250 800 LINE",
"150 800 LINE",
"150 600 LINE"
);
},
{
closed = 1;
nodes = (
"550 500 LINE",
"550 600 LINE",
"450 600 LINE",
"450 500 LINE"
);
}
);
width = 600;
},
{
layerId = "99106478-E82A-45B6-ABB4-B34A357236DB";
paths = (
{
closed = 1;
nodes = (
"600 650 LINE",
"600 800 LINE",
"450 800 LINE",
"450 650 LINE"
);
},
{
closed = 1;
nodes = (
"300 0 LINE",
"300 150 LINE",
"150 150 LINE",
"150 0 LINE"
);
},
{
closed = 1;
nodes = (
"150 150 LINE",
"150 300 LINE",
"50 300 LINE",
"50 150 LINE"
);
},
{
closed = 1;
nodes = (
"600 0 LINE",
"600 150 LINE",
"450 150 LINE",
"450 0 LINE"
);
},
{
closed = 1;
nodes = (
"450 150 LINE",
"450 300 LINE",
"300 300 LINE",
"300 150 LINE"
);
},
{
closed = 1;
nodes = (
"300 300 LINE",
"300 500 LINE",
"150 500 LINE",
"150 300 LINE"
);
},
{
closed = 1;
nodes = (
"150 500 LINE",
"150 650 LINE",
"50 650 LINE",
"50 500 LINE"
);
},
{
closed = 1;
nodes = (
"700 150 LINE",
"700 300 LINE",
"600 300 LINE",
"600 150 LINE"
);
},
{
closed = 1;
nodes = (
"600 300 LINE",
"600 500 LINE",
"450 500 LINE",
"450 300 LINE"
);
},
{
closed = 1;
nodes = (
"450 500 LINE",
"450 650 LINE",
"300 650 LINE",
"300 500 LINE"
);
},
{
closed = 1;
nodes = (
"300 650 LINE",
"300 800 LINE",
"150 800 LINE",
"150 650 LINE"
);
},
{
closed = 1;
nodes = (
"700 500 LINE",
"700 650 LINE",
"600 650 LINE",
"600 500 LINE"
);
}
);
width = 750;
}
);
unicode = 0023;
},
{
glyphname = slash;
lastChange = "2020-03-03 14:34:43 +0000";
layers = (
{
layerId = "83004642-28A7-499C-A4A0-A456D2DB2D8A";
paths = (
{
closed = 1;
nodes = (
"250 400 LINE",
"250 800 LINE",
"150 800 LINE",
"150 400 LINE"
);
},
{
closed = 1;
nodes = (
"150 0 LINE",
"150 400 LINE",
"50 400 LINE",
"50 0 LINE"
);
}
);
width = 300;
},
{
layerId = "99106478-E82A-45B6-ABB4-B34A357236DB";
paths = (
{
closed = 1;
nodes = (
"350 400 LINE",
"350 800 LINE",
"200 800 LINE",
"200 400 LINE"
);
},
{
closed = 1;
nodes = (
"200 0 LINE",
"200 400 LINE",
"50 400 LINE",
"50 0 LINE"
);
}
);
width = 400;
}
);
unicode = 002F;
},
{
glyphname = parenleft;
lastChange = "2020-03-03 14:34:43 +0000";
layers = (
{
layerId = "83004642-28A7-499C-A4A0-A456D2DB2D8A";
paths = (
{
closed = 1;
nodes = (
"150 100 LINE",
"150 700 LINE",
"50 700 LINE",
"50 100 LINE"
);
},
{
closed = 1;
nodes = (
"250 0 LINE",
"250 100 LINE",
"150 100 LINE",
"150 0 LINE"
);
},
{
closed = 1;
nodes = (
"250 700 LINE",
"250 800 LINE",
"150 800 LINE",
"150 700 LINE"
);
}
);
width = 300;
},
{
layerId = "99106478-E82A-45B6-ABB4-B34A357236DB";
paths = (
{
closed = 1;
nodes = (
"200 150 LINE",
"200 650 LINE",
"50 650 LINE",
"50 150 LINE"
);
},
{
closed = 1;
nodes = (
"350 0 LINE",
"350 150 LINE",
"200 150 LINE",
"200 0 LINE"
);
},
{
closed = 1;
nodes = (
"350 650 LINE",
"350 800 LINE",
"200 800 LINE",
"200 650 LINE"
);
}
);
width = 400;
}
);
rightKerningGroup = paren;
unicode = 0028;
},
{
glyphname = braceleft;
lastChange = "2020-03-08 13:13:06 +0000";
layers = (
{
layerId = "83004642-28A7-499C-A4A0-A456D2DB2D8A";
paths = (
{
closed = 1;
nodes = (
"250 450 LINE",
"250 700 LINE",
"150 700 LINE",
"150 450 LINE"
);
},
{
closed = 1;
nodes = (
"350 0 LINE",
"350 100 LINE",
"250 100 LINE",
"250 0 LINE"
);
},
{
closed = 1;
nodes = (
"250 100 LINE",
"250 350 LINE",
"150 350 LINE",
"150 100 LINE"
);
},
{
closed = 1;
nodes = (
"150 350 LINE",
"150 450 LINE",
"50 450 LINE",
"50 350 LINE"
);
},
{
closed = 1;
nodes = (
"350 700 LINE",
"350 800 LINE",
"250 800 LINE",
"250 700 LINE"
);
}
);
width = 400;
},
{
layerId = "99106478-E82A-45B6-ABB4-B34A357236DB";
paths = (
{
closed = 1;
nodes = (
"350 450 LINE",
"350 700 LINE",
"200 700 LINE",
"200 450 LINE"
);
},
{
closed = 1;
nodes = (
"500 0 LINE",
"500 110 LINE",
"350 110 LINE",
"350 0 LINE"
);
},
{
closed = 1;
nodes = (
"350 110 LINE",
"350 350 LINE",
"200 350 LINE",
"200 110 LINE"
);
},
{
closed = 1;
nodes = (
"200 350 LINE",
"200 450 LINE",
"50 450 LINE",
"50 350 LINE"
);
},
{
closed = 1;
nodes = (
"500 700 LINE",
"500 800 LINE",
"350 800 LINE",
"350 700 LINE"
);
}
);
width = 550;
}
);
rightKerningGroup = paren;
unicode = 007B;
},
{
glyphname = bracketleft;
lastChange = "2020-03-04 22:07:18 +0000";
layers = (
{
layerId = "83004642-28A7-499C-A4A0-A456D2DB2D8A";
paths = (
{
closed = 1;
nodes = (
"150 100 LINE",
"150 700 LINE",
"50 700 LINE",
"50 100 LINE"
);
},
{
closed = 1;
nodes = (
"350 0 LINE",
"350 100 LINE",
"150 100 LINE",
"150 0 LINE"
);
},
{
closed = 1;
nodes = (
"350 700 LINE",
"350 800 LINE",
"150 800 LINE",
"150 700 LINE"
);
}
);
width = 400;
},
{
layerId = "99106478-E82A-45B6-ABB4-B34A357236DB";
paths = (
{
closed = 1;
nodes = (
"150 150 LINE",
"150 650 LINE",
"0 650 LINE",
"0 150 LINE"
);
},
{
closed = 1;
nodes = (
"350 0 LINE",
"350 150 LINE",
"150 150 LINE",
"150 0 LINE"
);
},
{
closed = 1;
nodes = (
"350 650 LINE",
"350 800 LINE",
"150 800 LINE",
"150 650 LINE"
);
}
);
width = 400;
}
);
rightKerningGroup = paren;
unicode = 005B;
},
{
glyphname = cornerbracketleft.half;
lastChange = "2020-03-03 14:34:43 +0000";
layers = (
{
layerId = "83004642-28A7-499C-A4A0-A456D2DB2D8A";
paths = (
{
closed = 1;
nodes = (
"150 350 LINE",
"150 700 LINE",
"50 700 LINE",
"50 350 LINE"
);
},
{
closed = 1;
nodes = (
"350 700 LINE",
"350 800 LINE",
"150 800 LINE",
"150 700 LINE"
);
}
);
width = 350;
},
{
layerId = "99106478-E82A-45B6-ABB4-B34A357236DB";
paths = (
{
closed = 1;
nodes = (
"200 350 LINE",
"200 650 LINE",
"50 650 LINE",
"50 350 LINE"
);
},
{
closed = 1;
nodes = (
"400 650 LINE",
"400 800 LINE",
"200 800 LINE",
"200 650 LINE"
);
}
);
width = 400;
}
);
unicode = FF62;
},
{
glyphname = cornerbracketright.half;
lastChange = "2020-03-08 13:15:07 +0000";
layers = (
{
layerId = "83004642-28A7-499C-A4A0-A456D2DB2D8A";
paths = (
{
closed = 1;
nodes = (
"300 0 LINE",
"300 350 LINE",
"200 350 LINE",
"200 0 LINE"
);
},
{
closed = 1;
nodes = (
"200 -100 LINE",
"200 0 LINE",
"0 0 LINE",
"0 -100 LINE"
);
}
);
width = 350;
},
{
layerId = "99106478-E82A-45B6-ABB4-B34A357236DB";
paths = (
{
closed = 1;
nodes = (
"350 0 LINE",
"350 300 LINE",
"200 300 LINE",
"200 0 LINE"
);
},
{
closed = 1;
nodes = (
"200 -150 LINE",
"200 0 LINE",
"0 0 LINE",
"0 -150 LINE"
);
}
);
width = 400;
}
);
unicode = FF63;
},
{
glyphname = hyphen;
lastChange = "2020-03-03 14:34:43 +0000";
layers = (
{
layerId = "83004642-28A7-499C-A4A0-A456D2DB2D8A";
paths = (
{
closed = 1;
nodes = (
"250 200 LINE",
"250 300 LINE",
"50 300 LINE",
"50 200 LINE"
);
}
);
width = 300;
},
{
layerId = "99106478-E82A-45B6-ABB4-B34A357236DB";
paths = (
{
closed = 1;
nodes = (
"300 175 LINE",
"300 325 LINE",
"50 325 LINE",
"50 175 LINE"
);
}
);
width = 350;
}
);
unicode = 002D;
},
{
glyphname = endash;
lastChange = "2020-03-03 14:34:43 +0000";
layers = (
{
layerId = "83004642-28A7-499C-A4A0-A456D2DB2D8A";
paths = (
{
closed = 1;
nodes = (
"450 200 LINE",
"450 300 LINE",
"50 300 LINE",
"50 200 LINE"
);
}
);
width = 500;
},
{
layerId = "99106478-E82A-45B6-ABB4-B34A357236DB";
paths = (
{
closed = 1;
nodes = (
"550 175 LINE",
"550 325 LINE",
"50 325 LINE",
"50 175 LINE"
);
}
);
width = 600;
}
);
unicode = 2013;
},
{
glyphname = emdash;
lastChange = "2020-03-04 22:08:23 +0000";
layers = (
{
layerId = "83004642-28A7-499C-A4A0-A456D2DB2D8A";
paths = (
{
closed = 1;
nodes = (
"650 200 LINE",
"650 300 LINE",
"50 300 LINE",
"50 200 LINE"
);
}
);
width = 700;
},
{
layerId = "99106478-E82A-45B6-ABB4-B34A357236DB";
paths = (
{
closed = 1;
nodes = (
"680 175 LINE",
"680 325 LINE",
"50 325 LINE",
"50 175 LINE"
);
}
);
width = 730;
}
);
unicode = 2014;
},
{
glyphname = underscore;
lastChange = "2020-03-04 22:08:56 +0000";
layers = (
{
layerId = "83004642-28A7-499C-A4A0-A456D2DB2D8A";
paths = (
{
closed = 1;
nodes = (
"400 -100 LINE",
"400 0 LINE",
"0 0 LINE",
"0 -100 LINE"
);
}
);
width = 400;
},
{
layerId = "99106478-E82A-45B6-ABB4-B34A357236DB";
paths = (
{
closed = 1;
nodes = (
"400 -150 LINE",
"400 0 LINE",
"0 0 LINE",
"0 -150 LINE"
);
}
);
width = 400;
}
);
unicode = 005F;
},
{
glyphname = quotesinglbase;
lastChange = "2020-03-05 13:31:28 +0000";
layers = (
{
layerId = "83004642-28A7-499C-A4A0-A456D2DB2D8A";
paths = (
{
closed = 1;
nodes = (
"150 -100 LINE",
"150 100 LINE",
"50 100 LINE",
"50 -100 LINE"
);
},
{
closed = 1;
nodes = (
"50 -200 LINE",
"50 -100 LINE",
"-50 -100 LINE",
"-50 -200 LINE"
);
}
);
width = 200;
},
{
layerId = "99106478-E82A-45B6-ABB4-B34A357236DB";
paths = (
{
closed = 1;
nodes = (
"200 -100 LINE",
"200 100 LINE",
"50 100 LINE",
"50 -100 LINE"
);
},
{
closed = 1;
nodes = (
"50 -200 LINE",
"50 -100 LINE",
"-50 -100 LINE",
"-50 -200 LINE"
);
}
);
width = 250;
}
);
unicode = 201A;
},
{
glyphname = quotedblbase;
lastChange = "2020-03-05 13:31:55 +0000";
layers = (
{
layerId = "83004642-28A7-499C-A4A0-A456D2DB2D8A";
paths = (
{
closed = 1;
nodes = (
"350 -100 LINE",
"350 100 LINE",
"250 100 LINE",
"250 -100 LINE"
);
},
{
closed = 1;
nodes = (
"250 -200 LINE",
"250 -100 LINE",
"150 -100 LINE",
"150 -200 LINE"
);
},
{
closed = 1;
nodes = (
"150 -100 LINE",
"150 100 LINE",
"50 100 LINE",
"50 -100 LINE"
);
},
{
closed = 1;
nodes = (
"50 -200 LINE",
"50 -100 LINE",
"-50 -100 LINE",
"-50 -200 LINE"
);
}
);
width = 350;
},
{
layerId = "99106478-E82A-45B6-ABB4-B34A357236DB";
paths = (
{
closed = 1;
nodes = (
"450 -100 LINE",
"450 100 LINE",
"300 100 LINE",
"300 -100 LINE"
);
},
{
closed = 1;
nodes = (
"300 -200 LINE",
"300 -100 LINE",
"200 -100 LINE",
"200 -200 LINE"
);
},
{
closed = 1;
nodes = (
"200 -100 LINE",
"200 100 LINE",
"50 100 LINE",
"50 -100 LINE"
);
},
{
closed = 1;
nodes = (
"50 -200 LINE",
"50 -100 LINE",
"-50 -100 LINE",
"-50 -200 LINE"
);
}
);
width = 500;
}
);
unicode = 201E;
},
{
glyphname = quotedblleft;
lastChange = "2020-03-05 13:30:25 +0000";
layers = (
{
layerId = "83004642-28A7-499C-A4A0-A456D2DB2D8A";
paths = (
{
closed = 1;
nodes = (
"300 500 LINE",
"300 700 LINE",
"200 700 LINE",
"200 500 LINE"
);
},
{
closed = 1;
nodes = (
"100 500 LINE",
"100 700 LINE",
"0 700 LINE",
"0 500 LINE"
);
},
{
closed = 1;
nodes = (
"200 700 LINE",
"200 800 LINE",
"100 800 LINE",
"100 700 LINE"
);
},
{
closed = 1;
nodes = (
"400 700 LINE",
"400 800 LINE",
"300 800 LINE",
"300 700 LINE"
);
}
);
width = 400;
},
{
layerId = "99106478-E82A-45B6-ABB4-B34A357236DB";
paths = (
{
closed = 1;
nodes = (
"400 500 LINE",
"400 700 LINE",
"250 700 LINE",
"250 500 LINE"
);
},
{
closed = 1;
nodes = (
"150 500 LINE",
"150 700 LINE",
"0 700 LINE",
"0 500 LINE"
);
},
{
closed = 1;
nodes = (
"250 700 LINE",
"250 800 LINE",
"150 800 LINE",
"150 700 LINE"
);
},
{
closed = 1;
nodes = (
"500 700 LINE",
"500 800 LINE",
"400 800 LINE",
"400 700 LINE"
);
}
);
width = 500;
}
);
leftKerningGroup = quote;
rightKerningGroup = quote;
unicode = 201C;
},
{
glyphname = quoteleft;
lastChange = "2020-03-10 20:11:27 +0000";
layers = (
{
layerId = "83004642-28A7-499C-A4A0-A456D2DB2D8A";
paths = (
{
closed = 1;
nodes = (
"100 500 LINE",
"100 700 LINE",
"0 700 LINE",
"0 500 LINE"
);
},
{
closed = 1;
nodes = (
"200 700 LINE",
"200 800 LINE",
"100 800 LINE",
"100 700 LINE"
);
}
);
width = 200;
},
{
layerId = "99106478-E82A-45B6-ABB4-B34A357236DB";
paths = (
{
closed = 1;
nodes = (
"150 500 LINE",
"150 700 LINE",
"0 700 LINE",
"0 500 LINE"
);
},
{
closed = 1;
nodes = (
"250 700 LINE",
"250 800 LINE",
"150 800 LINE",
"150 700 LINE"
);
}
);
width = 250;
}
);
leftKerningGroup = quote;
rightKerningGroup = quote;
unicode = 2018;
},
{
glyphname = quoteright;
lastChange = "2020-03-10 20:16:42 +0000";
layers = (
{
layerId = "83004642-28A7-499C-A4A0-A456D2DB2D8A";
paths = (
{
closed = 1;
nodes = (
"200 600 LINE",
"200 800 LINE",
"100 800 LINE",
"100 600 LINE"
);
},
{
closed = 1;
nodes = (
"100 500 LINE",
"100 600 LINE",
"0 600 LINE",
"0 500 LINE"
);
}
);
width = 200;
},
{
layerId = "99106478-E82A-45B6-ABB4-B34A357236DB";
paths = (
{
closed = 1;
nodes = (
"250 600 LINE",
"250 800 LINE",
"100 800 LINE",
"100 600 LINE"
);
},
{
closed = 1;
nodes = (
"100 500 LINE",
"100 600 LINE",
"0 600 LINE",
"0 500 LINE"
);
}
);
width = 250;
}
);
leftKerningGroup = quote;
rightKerningGroup = quote;
unicode = 2019;
},
{
glyphname = guillemetleft;
lastChange = "2020-03-08 13:15:44 +0000";
layers = (
{
layerId = "83004642-28A7-499C-A4A0-A456D2DB2D8A";
paths = (
{
closed = 1;
nodes = (
"450 300 LINE",
"450 400 LINE",
"350 400 LINE",
"350 300 LINE"
);
},
{
closed = 1;
nodes = (
"100 200 LINE",
"100 300 LINE",
"0 300 LINE",
"0 200 LINE"
);
},
{
closed = 1;
nodes = (
"200 100 LINE",
"200 200 LINE",
"100 200 LINE",
"100 100 LINE"
);
},
{
closed = 1;
nodes = (
"200 300 LINE",
"200 400 LINE",
"100 400 LINE",
"100 300 LINE"
);
},
{
closed = 1;
nodes = (
"350 200 LINE",
"350 300 LINE",
"250 300 LINE",
"250 200 LINE"
);
},
{
closed = 1;
nodes = (
"450 100 LINE",
"450 200 LINE",
"350 200 LINE",
"350 100 LINE"
);
}
);
width = 500;
},
{
layerId = "99106478-E82A-45B6-ABB4-B34A357236DB";
paths = (
{
closed = 1;
nodes = (
"500 325 LINE",
"500 475 LINE",
"400 475 LINE",
"400 325 LINE"
);
},
{
closed = 1;
nodes = (
"150 175 LINE",
"150 325 LINE",
"50 325 LINE",
"50 175 LINE"
);
},
{
closed = 1;
nodes = (
"250 25 LINE",
"250 175 LINE",
"150 175 LINE",
"150 25 LINE"
);
},
{
closed = 1;
nodes = (
"250 325 LINE",
"250 475 LINE",
"150 475 LINE",
"150 325 LINE"
);
},
{
closed = 1;
nodes = (
"400 175 LINE",
"400 325 LINE",
"300 325 LINE",
"300 175 LINE"
);
},
{
closed = 1;
nodes = (
"500 25 LINE",
"500 175 LINE",
"400 175 LINE",
"400 25 LINE"
);
}
);
width = 550;
}
);
unicode = 00AB;
},
{
glyphname = guilsinglleft;
lastChange = "2020-03-05 14:14:39 +0000";
layers = (
{
layerId = "83004642-28A7-499C-A4A0-A456D2DB2D8A";
paths = (
{
closed = 1;
nodes = (
"250 300 LINE",
"250 400 LINE",
"150 400 LINE",
"150 300 LINE"
);
},
{
closed = 1;
nodes = (
"150 200 LINE",
"150 300 LINE",
"50 300 LINE",
"50 200 LINE"
);
},
{
closed = 1;
nodes = (
"250 100 LINE",
"250 200 LINE",
"150 200 LINE",
"150 100 LINE"
);
}
);
width = 300;
},
{
layerId = "99106478-E82A-45B6-ABB4-B34A357236DB";
paths = (
{
closed = 1;
nodes = (
"250 325 LINE",
"250 475 LINE",
"150 475 LINE",
"150 325 LINE"
);
},
{
closed = 1;
nodes = (
"150 175 LINE",
"150 325 LINE",
"50 325 LINE",
"50 175 LINE"
);
},
{
closed = 1;
nodes = (
"250 25 LINE",
"250 175 LINE",
"150 175 LINE",
"150 25 LINE"
);
}
);
width = 300;
}
);
unicode = 2039;
},
{
glyphname = quotedbl;
lastChange = "2020-03-05 14:17:38 +0000";
layers = (
{
layerId = "83004642-28A7-499C-A4A0-A456D2DB2D8A";
paths = (
{
closed = 1;
nodes = (
"300 500 LINE",
"300 700 LINE",
"200 700 LINE",
"200 500 LINE"
);
},
{
closed = 1;
nodes = (
"100 500 LINE",
"100 700 LINE",
"0 700 LINE",
"0 500 LINE"
);
}
);
width = 300;
},
{
layerId = "99106478-E82A-45B6-ABB4-B34A357236DB";
paths = (
{
closed = 1;
nodes = (
"385 450 LINE",
"385 750 LINE",
"235 750 LINE",
"235 450 LINE"
);
},
{
closed = 1;
nodes = (
"150 450 LINE",
"150 750 LINE",
"0 750 LINE",
"0 450 LINE"
);
}
);
width = 385;
}
);
leftKerningGroup = quote;
rightKerningGroup = quote;
unicode = 0022;
},
{
glyphname = quotesingle;
lastChange = "2020-03-05 14:18:19 +0000";
layers = (
{
layerId = "83004642-28A7-499C-A4A0-A456D2DB2D8A";
paths = (
{
closed = 1;
nodes = (
"100 500 LINE",
"100 700 LINE",
"0 700 LINE",
"0 500 LINE"
);
}
);
width = 100;
},
{
layerId = "99106478-E82A-45B6-ABB4-B34A357236DB";
paths = (
{
closed = 1;
nodes = (
"150 450 LINE",
"150 750 LINE",
"0 750 LINE",
"0 450 LINE"
);
}
);
width = 150;
}
);
rightKerningGroup = quote;
unicode = 0027;
},
{
glyphname = .notdef;
lastChange = "2020-03-08 17:30:38 +0000";
layers = (
{
layerId = "83004642-28A7-499C-A4A0-A456D2DB2D8A";
paths = (
{
closed = 1;
nodes = (
"350 300 LINE",
"350 600 LINE",
"250 600 LINE",
"250 300 LINE"
);
},
{
closed = 1;
nodes = (
"150 200 LINE",
"150 300 LINE",
"50 300 LINE",
"50 200 LINE"
);
},
{
closed = 1;
nodes = (
"450 100 LINE",
"450 200 LINE",
"150 200 LINE",
"150 100 LINE"
);
},
{
closed = 1;
nodes = (
"150 400 LINE",
"150 500 LINE",
"50 500 LINE",
"50 400 LINE"
);
},
{
closed = 1;
nodes = (
"550 200 LINE",
"550 300 LINE",
"450 300 LINE",
"450 200 LINE"
);
},
{
closed = 1;
nodes = (
"250 600 LINE",
"250 700 LINE",
"50 700 LINE",
"50 600 LINE"
);
},
{
closed = 1;
nodes = (
"550 400 LINE",
"550 500 LINE",
"450 500 LINE",
"450 400 LINE"
);
},
{
closed = 1;
nodes = (
"550 600 LINE",
"550 700 LINE",
"350 700 LINE",
"350 600 LINE"
);
}
);
width = 600;
},
{
layerId = "99106478-E82A-45B6-ABB4-B34A357236DB";
paths = (
{
closed = 1;
nodes = (
"450 300 LINE",
"450 650 LINE",
"300 650 LINE",
"300 300 LINE"
);
},
{
closed = 1;
nodes = (
"200 150 LINE",
"200 300 LINE",
"50 300 LINE",
"50 150 LINE"
);
},
{
closed = 1;
nodes = (
"550 0 LINE",
"550 150 LINE",
"200 150 LINE",
"200 0 LINE"
);
},
{
closed = 1;
nodes = (
"200 400 LINE",
"200 550 LINE",
"50 550 LINE",
"50 400 LINE"
);
},
{
closed = 1;
nodes = (
"700 150 LINE",
"700 300 LINE",
"550 300 LINE",
"550 150 LINE"
);
},
{
closed = 1;
nodes = (
"300 650 LINE",
"300 800 LINE",
"50 800 LINE",
"50 650 LINE"
);
},
{
closed = 1;
nodes = (
"700 400 LINE",
"700 550 LINE",
"550 550 LINE",
"550 400 LINE"
);
},
{
closed = 1;
nodes = (
"700 650 LINE",
"700 800 LINE",
"450 800 LINE",
"450 650 LINE"
);
}
);
width = 750;
}
);
},
{
glyphname = cent;
lastChange = "2020-03-10 13:39:34 +0000";
layers = (
{
layerId = "83004642-28A7-499C-A4A0-A456D2DB2D8A";
paths = (
{
closed = 1;
nodes = (
"350 100 LINE",
"350 400 LINE",
"250 400 LINE",
"250 100 LINE"
);
},
{
closed = 1;
nodes = (
"250 0 LINE",
"250 100 LINE",
"150 100 LINE",
"150 0 LINE"
);
},
{
closed = 1;
nodes = (
"350 -100 LINE",
"350 0 LINE",
"250 0 LINE",
"250 -100 LINE"
);
},
{
closed = 1;
nodes = (
"150 100 LINE",
"150 400 LINE",
"50 400 LINE",
"50 100 LINE"
);
},
{
closed = 1;
nodes = (
"500 0 LINE",
"500 100 LINE",
"350 100 LINE",
"350 0 LINE"
);
},
{
closed = 1;
nodes = (
"250 400 LINE",
"250 500 LINE",
"150 500 LINE",
"150 400 LINE"
);
},
{
closed = 1;
nodes = (
"350 500 LINE",
"350 600 LINE",
"250 600 LINE",
"250 500 LINE"
);
},
{
closed = 1;
nodes = (
"500 400 LINE",
"500 500 LINE",
"350 500 LINE",
"350 400 LINE"
);
}
);
width = 550;
},
{
layerId = "99106478-E82A-45B6-ABB4-B34A357236DB";
paths = (
{
closed = 1;
nodes = (
"375 150 LINE",
"375 350 LINE",
"275 350 LINE",
"275 150 LINE"
);
},
{
closed = 1;
nodes = (
"275 0 LINE",
"275 150 LINE",
"150 150 LINE",
"150 0 LINE"
);
},
{
closed = 1;
nodes = (
"375 -100 LINE",
"375 0 LINE",
"275 0 LINE",
"275 -100 LINE"
);
},
{
closed = 1;
nodes = (
"150 150 LINE",
"150 350 LINE",
"50 350 LINE",
"50 150 LINE"
);
},
{
closed = 1;
nodes = (
"500 0 LINE",
"500 150 LINE",
"375 150 LINE",
"375 0 LINE"
);
},
{
closed = 1;
nodes = (
"275 350 LINE",
"275 500 LINE",
"150 500 LINE",
"150 350 LINE"
);
},
{
closed = 1;
nodes = (
"375 500 LINE",
"375 600 LINE",
"275 600 LINE",
"275 500 LINE"
);
},
{
closed = 1;
nodes = (
"500 350 LINE",
"500 500 LINE",
"375 500 LINE",
"375 350 LINE"
);
}
);
width = 550;
}
);
unicode = 00A2;
},
{
glyphname = currency;
lastChange = "2020-03-03 14:34:43 +0000";
layers = (
{
layerId = "83004642-28A7-499C-A4A0-A456D2DB2D8A";
paths = (
{
closed = 1;
nodes = (
"550 200 LINE",
"550 400 LINE",
"450 400 LINE",
"450 200 LINE"
);
},
{
closed = 1;
nodes = (
"150 0 LINE",
"150 100 LINE",
"50 100 LINE",
"50 0 LINE"
);
},
{
closed = 1;
nodes = (
"250 200 LINE",
"250 400 LINE",
"150 400 LINE",
"150 200 LINE"
);
},
{
closed = 1;
nodes = (
"450 100 LINE",
"450 200 LINE",
"250 200 LINE",
"250 100 LINE"
);
},
{
closed = 1;
nodes = (
"650 0 LINE",
"650 100 LINE",
"550 100 LINE",
"550 0 LINE"
);
},
{
closed = 1;
nodes = (
"150 500 LINE",
"150 600 LINE",
"50 600 LINE",
"50 500 LINE"
);
},
{
closed = 1;
nodes = (
"450 400 LINE",
"450 500 LINE",
"250 500 LINE",
"250 400 LINE"
);
},
{
closed = 1;
nodes = (
"650 500 LINE",
"650 600 LINE",
"550 600 LINE",
"550 500 LINE"
);
}
);
width = 700;
},
{
layerId = "99106478-E82A-45B6-ABB4-B34A357236DB";
paths = (
{
closed = 1;
nodes = (
"600 200 LINE",
"600 400 LINE",
"450 400 LINE",
"450 200 LINE"
);
},
{
closed = 1;
nodes = (
"150 0 LINE",
"150 100 LINE",
"50 100 LINE",
"50 0 LINE"
);
},
{
closed = 1;
nodes = (
"250 200 LINE",
"250 400 LINE",
"100 400 LINE",
"100 200 LINE"
);
},
{
closed = 1;
nodes = (
"450 50 LINE",
"450 200 LINE",
"250 200 LINE",
"250 50 LINE"
);
},
{
closed = 1;
nodes = (
"650 0 LINE",
"650 100 LINE",
"550 100 LINE",
"550 0 LINE"
);
},
{
closed = 1;
nodes = (
"150 500 LINE",
"150 600 LINE",
"50 600 LINE",
"50 500 LINE"
);
},
{
closed = 1;
nodes = (
"450 400 LINE",
"450 550 LINE",
"250 550 LINE",
"250 400 LINE"
);
},
{
closed = 1;
nodes = (
"650 500 LINE",
"650 600 LINE",
"550 600 LINE",
"550 500 LINE"
);
}
);
width = 700;
}
);
unicode = 00A4;
},
